SplineFontDB: 3.2
FontName: IRJadid
FullName: IRJadid
FamilyName: IRJadid
Weight: Book
Copyright: Copyright (c) 2022, Information Technology Organization of Iran (ito.gov.ir)
Version: 1.001
ItalicAngle: 0
UnderlinePosition: -100
UnderlineWidth: 60
Ascent: 1638
Descent: 410
InvalidEm: 0
sfntRevision: 0x00010042
LayerCount: 2
Layer: 0 1 "Back" 1
Layer: 1 1 "Fore" 0
XUID: [1021 420 722297922 15342581]
StyleMap: 0x0040
FSType: 0
OS2Version: 3
OS2_WeightWidthSlopeOnly: 0
OS2_UseTypoMetrics: 0
CreationTime: 1356332184
ModificationTime: 1662627469
PfmFamily: 17
TTFWeight: 400
TTFWidth: 5
LineGap: 100
VLineGap: 0
Panose: 2 0 5 3 0 0 0 2 0 2
OS2TypoAscent: 2208
OS2TypoAOffset: 0
OS2TypoDescent: -1334
OS2TypoDOffset: 0
OS2TypoLinegap: 1500
OS2WinAscent: 2208
OS2WinAOffset: 0
OS2WinDescent: 1334
OS2WinDOffset: 0
HheadAscent: 2208
HheadAOffset: 0
HheadDescent: -1334
HheadDOffset: 0
OS2SubXSize: 1434
OS2SubYSize: 1331
OS2SubXOff: 0
OS2SubYOff: 293
OS2SupXSize: 1434
OS2SupYSize: 1331
OS2SupXOff: 0
OS2SupYOff: 930
OS2StrikeYSize: 50
OS2StrikeYPos: 250
OS2CapHeight: 2221
OS2XHeight: 594
OS2FamilyClass: 2048
OS2Vendor: 'PARS'
OS2CodePages: 20000041.00000000
OS2UnicodeRanges: 00002003.00000000.00000000.00000000
Lookup: 1 1 0 "'isol' Isolated Forms in Arabic lookup 0" { "'isol' Isolated Forms in Arabic lookup 0 subtable"  } ['isol' ('arab' <'dflt' > ) ]
Lookup: 1 1 0 "'init' Initial Forms in Arabic lookup 1" { "'init' Initial Forms in Arabic lookup 1 subtable"  } ['init' ('arab' <'dflt' > ) ]
Lookup: 1 1 0 "'fina' Terminal Forms in Arabic lookup 2" { "'fina' Terminal Forms in Arabic lookup 2 subtable"  } ['fina' ('arab' <'dflt' > ) ]
Lookup: 1 1 0 "'medi' Medial Forms in Arabic lookup 3" { "'medi' Medial Forms in Arabic lookup 3 subtable"  } ['medi' ('arab' <'dflt' > ) ]
Lookup: 4 1 0 "'ccmp' Glyph Composition/Decomposition in Arabic lookup 4" { "'ccmp' Glyph Composition/Decomposition in Arabic lookup 4 subtable"  } ['ccmp' ('arab' <'dflt' > ) ]

StartChar: quotedbl
Encoding: 34 34 4
Width: 966
Flags: W
LayerCount: 2
Fore
SplineSet
221 878 m 1,0,1
 214 907 214 907 209.5 929.5 c 128,-1,2
 205 952 205 952 202 962 c 0,3,4
 175 1071 175 1071 159.5 1149 c 128,-1,5
 144 1227 144 1227 144 1254 c 0,6,7
 144 1311 144 1311 175 1344.5 c 128,-1,8
 206 1378 206 1378 256 1378 c 0,9,10
 280 1378 280 1378 300.5 1369 c 128,-1,11
 321 1360 321 1360 336.5 1344.5 c 128,-1,12
 352 1329 352 1329 360.5 1307.5 c 128,-1,13
 369 1286 369 1286 369 1261 c 0,14,15
 369 1247 369 1247 365.5 1221 c 128,-1,16
 362 1195 362 1195 353 1151 c 128,-1,17
 344 1107 344 1107 329 1040.5 c 128,-1,18
 314 974 314 974 292 878 c 1,19,-1
 221 878 l 1,0,1
674 878 m 1,20,21
 667 905 667 905 661.5 928.5 c 128,-1,22
 656 952 656 952 654 962 c 0,23,24
 627 1072 627 1072 612 1149.5 c 128,-1,25
 597 1227 597 1227 597 1254 c 0,26,27
 597 1311 597 1311 628 1344.5 c 128,-1,28
 659 1378 659 1378 709 1378 c 0,29,30
 733 1378 733 1378 753.5 1369 c 128,-1,31
 774 1360 774 1360 789.5 1344.5 c 128,-1,32
 805 1329 805 1329 813.5 1307.5 c 128,-1,33
 822 1286 822 1286 822 1261 c 0,34,35
 822 1247 822 1247 817.5 1218 c 128,-1,36
 813 1189 813 1189 803.5 1142.5 c 128,-1,37
 794 1096 794 1096 779.5 1030.5 c 128,-1,38
 765 965 765 965 745 878 c 1,39,-1
 674 878 l 1,20,21
EndSplineSet
EndChar

StartChar: quotesingle
Encoding: 39 39 5
Width: 600
Flags: W
LayerCount: 2
Fore
SplineSet
282 878 m 1,0,1
 275 905 275 905 269.5 928.5 c 128,-1,2
 264 952 264 952 262 962 c 0,3,4
 235 1072 235 1072 220 1149.5 c 128,-1,5
 205 1227 205 1227 205 1254 c 0,6,7
 205 1311 205 1311 236 1344.5 c 128,-1,8
 267 1378 267 1378 317 1378 c 0,9,10
 341 1378 341 1378 361.5 1369 c 128,-1,11
 382 1360 382 1360 397.5 1344.5 c 128,-1,12
 413 1329 413 1329 421.5 1307.5 c 128,-1,13
 430 1286 430 1286 430 1261 c 0,14,15
 430 1247 430 1247 425.5 1218 c 128,-1,16
 421 1189 421 1189 411.5 1142.5 c 128,-1,17
 402 1096 402 1096 387.5 1030.5 c 128,-1,18
 373 965 373 965 353 878 c 1,19,-1
 282 878 l 1,0,1
EndSplineSet
EndChar

StartChar: asterisk
Encoding: 42 42 6
Width: 1126
Flags: W
LayerCount: 2
Fore
SplineSet
568 347 m 1,0,-1
 574 687 l 1,1,-1
 355 467 l 1,2,-1
 250 467 l 1,3,-1
 527 746 l 1,4,-1
 203 746 l 1,5,-1
 223 839 l 1,6,-1
 547 839 l 1,7,-1
 277 1104 l 1,8,-1
 370 1104 l 1,9,-1
 579 899 l 1,10,-1
 585 1199 l 1,11,-1
 704 1239 l 1,12,-1
 699 912 l 1,13,-1
 905 1104 l 1,14,-1
 1013 1104 l 1,15,-1
 730 839 l 1,16,-1
 1065 839 l 1,17,-1
 1043 746 l 1,18,-1
 729 746 l 1,19,-1
 1002 467 l 1,20,-1
 910 467 l 1,21,-1
 696 687 l 1,22,-1
 688 386 l 1,23,-1
 568 347 l 1,0,-1
EndSplineSet
EndChar

StartChar: plus
Encoding: 43 43 7
Width: 1115
GlyphClass: 2
Flags: W
LayerCount: 2
Fore
SplineSet
1002 450 m 1,0,-1
 665 450 l 1,1,-1
 665 97 l 1,2,-1
 516 97 l 1,3,-1
 516 450 l 1,4,-1
 163 450 l 1,5,-1
 163 604 l 1,6,-1
 516 604 l 1,7,-1
 516 940 l 1,8,-1
 665 940 l 1,9,-1
 665 604 l 1,10,-1
 1002 604 l 1,11,-1
 1002 450 l 1,0,-1
EndSplineSet
EndChar

StartChar: hyphen
Encoding: 45 45 8
Width: 1216
Flags: W
LayerCount: 2
Fore
SplineSet
1023 450 m 1,0,-1
 184 450 l 1,1,-1
 184 604 l 1,2,-1
 1023 604 l 1,3,-1
 1023 450 l 1,0,-1
EndSplineSet
EndChar

StartChar: period
Encoding: 46 46 9
Width: 637
GlyphClass: 2
Flags: W
LayerCount: 2
Fore
SplineSet
368 316 m 0,0,1
 401 316 401 316 430 304 c 128,-1,2
 459 292 459 292 480.5 270.5 c 128,-1,3
 502 249 502 249 514 220 c 128,-1,4
 526 191 526 191 526 158 c 0,5,6
 526 126 526 126 514 97.5 c 128,-1,7
 502 69 502 69 480.5 48 c 128,-1,8
 459 27 459 27 430 15 c 128,-1,9
 401 3 401 3 368 3 c 256,10,11
 335 3 335 3 306.5 15 c 128,-1,12
 278 27 278 27 257 48.5 c 128,-1,13
 236 70 236 70 224.5 99 c 128,-1,14
 213 128 213 128 213 162 c 0,15,16
 213 194 213 194 225 221.5 c 128,-1,17
 237 249 237 249 258.5 270.5 c 128,-1,18
 280 292 280 292 308 304 c 128,-1,19
 336 316 336 316 368 316 c 0,0,1
EndSplineSet
EndChar

StartChar: slash
Encoding: 47 47 10
Width: 868
Flags: W
LayerCount: 2
Fore
SplineSet
769 1253 m 1,0,-1
 291 -107 l 1,1,-1
 134 -107 l 1,2,-1
 611 1253 l 1,3,-1
 769 1253 l 1,0,-1
EndSplineSet
EndChar

StartChar: less
Encoding: 60 60 11
Width: 992
Flags: W
LayerCount: 2
Fore
SplineSet
54 367 m 1,0,-1
 54 513 l 1,1,-1
 938 902 l 1,2,-1
 938 734 l 1,3,-1
 268 440 l 1,4,-1
 938 146 l 1,5,-1
 938 -21 l 1,6,-1
 54 367 l 1,0,-1
EndSplineSet
EndChar

StartChar: equal
Encoding: 61 61 12
Width: 1059
Flags: W
LayerCount: 2
Fore
SplineSet
891 294 m 1,0,-1
 169 294 l 1,1,-1
 169 426 l 1,2,-1
 891 426 l 1,3,-1
 891 294 l 1,0,-1
891 612 m 1,4,-1
 169 612 l 1,5,-1
 169 744 l 1,6,-1
 891 744 l 1,7,-1
 891 612 l 1,4,-1
EndSplineSet
EndChar

StartChar: greater
Encoding: 62 62 13
Width: 992
Flags: W
LayerCount: 2
Fore
SplineSet
54 146 m 1,0,-1
 724 440 l 1,1,-1
 54 734 l 1,2,-1
 54 902 l 1,3,-1
 938 513 l 1,4,-1
 938 367 l 1,5,-1
 54 -21 l 1,6,-1
 54 146 l 1,0,-1
EndSplineSet
EndChar

StartChar: bracketleft
Encoding: 91 91 14
Width: 571
GlyphClass: 2
Flags: W
LayerCount: 2
Fore
SplineSet
516 -255 m 1,0,-1
 114 -255 l 1,1,-1
 114 1162 l 1,2,-1
 516 1162 l 1,3,-1
 516 1105 l 1,4,-1
 408 1105 l 2,5,6
 372 1105 372 1105 349 1100.5 c 128,-1,7
 326 1096 326 1096 313.5 1082 c 128,-1,8
 301 1068 301 1068 296.5 1045.5 c 128,-1,9
 292 1023 292 1023 292 985 c 2,10,-1
 292 -108 l 2,11,12
 292 -136 292 -136 296 -153.5 c 128,-1,13
 300 -171 300 -171 309.5 -181 c 128,-1,14
 319 -191 319 -191 336 -194.5 c 128,-1,15
 353 -198 353 -198 379 -198 c 2,16,-1
 516 -198 l 1,17,-1
 516 -255 l 1,0,-1
EndSplineSet
EndChar

StartChar: bracketright
Encoding: 93 93 15
Width: 571
GlyphClass: 2
Flags: W
LayerCount: 2
Fore
SplineSet
55 -198 m 1,0,-1
 192 -198 l 2,1,2
 218 -198 218 -198 235 -195 c 128,-1,3
 252 -192 252 -192 261.5 -181.5 c 128,-1,4
 271 -171 271 -171 274 -154 c 128,-1,5
 277 -137 277 -137 277 -108 c 2,6,-1
 277 985 l 2,7,8
 277 1023 277 1023 273 1045.5 c 128,-1,9
 269 1068 269 1068 256.5 1082 c 128,-1,10
 244 1096 244 1096 221 1100.5 c 128,-1,11
 198 1105 198 1105 163 1105 c 2,12,-1
 55 1105 l 1,13,-1
 55 1162 l 1,14,-1
 456 1162 l 1,15,-1
 456 -255 l 1,16,-1
 55 -255 l 1,17,-1
 55 -198 l 1,0,-1
EndSplineSet
EndChar

StartChar: grave
Encoding: 96 96 16
Width: 476
Flags: W
LayerCount: 2
Fore
SplineSet
289 723 m 1,0,-1
 68 862 l 2,1,2
 49 876 49 876 38 891 c 128,-1,3
 27 906 27 906 27 923 c 0,4,5
 27 944 27 944 40 956 c 128,-1,6
 53 968 53 968 76 968 c 0,7,8
 91 968 91 968 103.5 961 c 128,-1,9
 116 954 116 954 136 935 c 2,10,-1
 346 723 l 1,11,-1
 289 723 l 1,0,-1
EndSplineSet
EndChar

StartChar: braceleft
Encoding: 123 123 17
Width: 675
GlyphClass: 2
Flags: W
LayerCount: 2
Fore
SplineSet
221 248 m 2,0,1
 221 294 221 294 212 326 c 128,-1,2
 203 358 203 358 182.5 380.5 c 128,-1,3
 162 403 162 403 127 418.5 c 128,-1,4
 92 434 92 434 38 448 c 1,5,6
 92 461 92 461 127 476.5 c 128,-1,7
 162 492 162 492 182.5 514.5 c 128,-1,8
 203 537 203 537 212 568.5 c 128,-1,9
 221 600 221 600 221 645 c 2,10,-1
 221 953 l 2,11,12
 221 1093 221 1093 307 1146 c 0,13,14
 328 1159 328 1159 352 1168.5 c 128,-1,15
 376 1178 376 1178 408 1184 c 128,-1,16
 440 1190 440 1190 483 1192.5 c 128,-1,17
 526 1195 526 1195 582 1196 c 1,18,-1
 582 1175 l 1,19,20
 531 1164 531 1164 496.5 1148 c 128,-1,21
 462 1132 462 1132 440 1107 c 128,-1,22
 418 1082 418 1082 409 1047 c 128,-1,23
 400 1012 400 1012 400 963 c 2,24,-1
 400 670 l 2,25,26
 400 616 400 616 391.5 579 c 128,-1,27
 383 542 383 542 359.5 517 c 128,-1,28
 336 492 336 492 297.5 476.5 c 128,-1,29
 259 461 259 461 198 448 c 1,30,31
 259 435 259 435 297.5 419 c 128,-1,32
 336 403 336 403 359.5 378 c 128,-1,33
 383 353 383 353 391.5 316 c 128,-1,34
 400 279 400 279 400 225 c 2,35,-1
 400 -69 l 2,36,37
 400 -118 400 -118 409.5 -153 c 128,-1,38
 419 -188 419 -188 440.5 -212.5 c 128,-1,39
 462 -237 462 -237 497 -253.5 c 128,-1,40
 532 -270 532 -270 582 -280 c 1,41,-1
 582 -299 l 1,42,43
 520 -299 520 -299 473 -295.5 c 128,-1,44
 426 -292 426 -292 392 -284.5 c 128,-1,45
 358 -277 358 -277 332.5 -265.5 c 128,-1,46
 307 -254 307 -254 287 -237 c 0,47,48
 253 -208 253 -208 237 -165 c 128,-1,49
 221 -122 221 -122 221 -59 c 2,50,-1
 221 248 l 2,0,1
EndSplineSet
EndChar

StartChar: bar
Encoding: 124 124 18
Width: 377
Flags: W
LayerCount: 2
Fore
SplineSet
113 1184 m 1,0,-1
 264 1184 l 1,1,-1
 264 -33 l 1,2,-1
 113 -33 l 1,3,-1
 113 1184 l 1,0,-1
EndSplineSet
EndChar

StartChar: asciitilde
Encoding: 126 126 19
Width: 891
Flags: W
LayerCount: 2
Fore
SplineSet
841 444 m 1,0,1
 812 404 812 404 787 376.5 c 128,-1,2
 762 349 762 349 737 332 c 128,-1,3
 712 315 712 315 686 307 c 128,-1,4
 660 299 660 299 631 299 c 0,5,6
 609 299 609 299 589.5 302 c 128,-1,7
 570 305 570 305 548.5 312 c 128,-1,8
 527 319 527 319 504 329.5 c 128,-1,9
 481 340 481 340 451 356 c 0,10,11
 390 388 390 388 347 402.5 c 128,-1,12
 304 417 304 417 259 417 c 0,13,14
 221 417 221 417 196 401 c 128,-1,15
 171 385 171 385 141 344 c 1,16,-1
 49 423 l 1,17,18
 93 500 93 500 143 533.5 c 128,-1,19
 193 567 193 567 262 567 c 0,20,21
 284 567 284 567 304 564 c 128,-1,22
 324 561 324 561 350 553 c 128,-1,23
 376 545 376 545 410 531 c 128,-1,24
 444 517 444 517 492 495 c 0,25,26
 522 482 522 482 543 474 c 128,-1,27
 564 466 564 466 579.5 460 c 128,-1,28
 595 454 595 454 607.5 452.5 c 128,-1,29
 620 451 620 451 631 451 c 0,30,31
 660 451 660 451 687.5 468.5 c 128,-1,32
 715 486 715 486 747 527 c 1,33,-1
 841 444 l 1,0,1
EndSplineSet
EndChar

StartChar: agrave
Encoding: 224 224 20
Width: 1075
Flags: W
LayerCount: 2
Fore
SplineSet
741 331 m 1,0,1
 720 266 720 266 690.5 213 c 128,-1,2
 661 160 661 160 626 114 c 0,3,4
 519 -19 519 -19 400 -19 c 0,5,6
 208 -19 208 -19 159 214 c 0,7,8
 133 334 133 334 157 451 c 128,-1,9
 181 568 181 568 252 683 c 0,10,11
 325 801 325 801 433 860 c 128,-1,12
 541 919 541 919 684 919 c 0,13,14
 712 919 712 919 746 918.5 c 128,-1,15
 780 918 780 918 815.5 916 c 128,-1,16
 851 914 851 914 886 912 c 128,-1,17
 921 910 921 910 952 908 c 1,18,-1
 946 646 l 1,19,-1
 946 647 l 1,20,-1
 950 254 l 2,21,22
 952 209 952 209 954.5 179.5 c 128,-1,23
 957 150 957 150 958 139 c 0,24,25
 961 114 961 114 985 114 c 0,26,27
 1053 114 1053 114 1214 346 c 1,28,-1
 1218 179 l 1,29,30
 1073 -19 1073 -19 925 -19 c 0,31,32
 785 -19 785 -19 753 126 c 0,33,34
 749 146 749 146 747 182 c 128,-1,35
 745 218 745 218 745 264 c 2,36,-1
 741 331 l 1,0,1
737 758 m 1,37,38
 688 775 688 775 647 783.5 c 128,-1,39
 606 792 606 792 561 792 c 0,40,41
 497 792 497 792 453.5 749.5 c 128,-1,42
 410 707 410 707 387 625 c 0,43,44
 362 522 362 522 357 425 c 128,-1,45
 352 328 352 328 368 248 c 0,46,47
 388 146 388 146 437 146 c 0,48,49
 493 146 493 146 589 280 c 0,50,51
 637 352 637 352 674 430 c 128,-1,52
 711 508 711 508 739 599 c 1,53,-1
 737 758 l 1,37,38
578 378 m 1,54,-1
 357 517 l 2,55,56
 338 531 338 531 327 546 c 128,-1,57
 316 561 316 561 316 578 c 0,58,59
 316 599 316 599 329 611 c 128,-1,60
 342 623 342 623 365 623 c 0,61,62
 380 623 380 623 392.5 616 c 128,-1,63
 405 609 405 609 425 590 c 2,64,-1
 635 378 l 1,65,-1
 578 378 l 1,54,-1
EndSplineSet
EndChar

StartChar: ocircumflex.001
Encoding: 65539 -1 26
Width: 1112
Flags: W
LayerCount: 2
Fore
SplineSet
416 -19 m 0,0,1
 301 -19 301 -19 205 70 c 0,2,3
 110 160 110 160 85 288 c 0,4,5
 32 528 32 528 170 726 c 0,6,7
 307 928 307 928 522 928 c 0,8,9
 643 928 643 928 742 842 c 1,10,11
 837 753 837 753 864 626 c 0,12,13
 890 499 890 499 869 388.5 c 128,-1,14
 848 278 848 278 781 179 c 0,15,16
 711 79 711 79 619.5 30 c 128,-1,17
 528 -19 528 -19 416 -19 c 0,0,1
483 98 m 0,18,19
 536 98 536 98 573.5 133 c 128,-1,20
 611 168 611 168 637 236 c 0,21,22
 665 310 665 310 668.5 393.5 c 128,-1,23
 672 477 672 477 652 574 c 0,24,25
 602 813 602 813 466 813 c 0,26,27
 365 813 365 813 313 670 c 0,28,29
 284 595 284 595 281 510.5 c 128,-1,30
 278 426 278 426 298 332 c 0,31,32
 324 213 324 213 370 155.5 c 128,-1,33
 416 98 416 98 483 98 c 0,18,19
EndSplineSet
EndChar

StartChar: dagger
Encoding: 8224 8224 30
Width: 932
Flags: W
LayerCount: 2
Fore
SplineSet
347 -231 m 1,0,-1
 567 622 l 1,1,-1
 248 592 l 1,2,-1
 297 700 l 1,3,-1
 576 668 l 1,4,-1
 607 1066 l 1,5,-1
 755 1093 l 1,6,-1
 621 668 l 1,7,-1
 941 700 l 1,8,-1
 895 592 l 1,9,-1
 612 622 l 1,10,-1
 496 -213 l 1,11,-1
 347 -231 l 1,0,-1
EndSplineSet
EndChar

StartChar: degree
Encoding: 176 176 31
Width: 409
Flags: W
LayerCount: 2
Fore
SplineSet
395 844 m 0,0,1
 344 844 344 844 307.5 880 c 128,-1,2
 271 916 271 916 271 968 c 0,3,4
 271 1021 271 1021 307.5 1057 c 128,-1,5
 344 1093 344 1093 395 1093 c 0,6,7
 447 1093 447 1093 483 1057 c 128,-1,8
 519 1021 519 1021 519 968 c 0,9,10
 519 916 519 916 483 880 c 128,-1,11
 447 844 447 844 395 844 c 0,0,1
395 888 m 256,12,13
 427 888 427 888 450.5 912 c 128,-1,14
 474 936 474 936 474 968 c 256,15,16
 474 1000 474 1000 450.5 1024 c 128,-1,17
 427 1048 427 1048 395 1048 c 256,18,19
 363 1048 363 1048 339 1024 c 128,-1,20
 315 1000 315 1000 315 968 c 256,21,22
 315 936 315 936 339 912 c 128,-1,23
 363 888 363 888 395 888 c 256,12,13
EndSplineSet
EndChar

StartChar: bullet
Encoding: 8226 8226 32
Width: 931
Flags: W
LayerCount: 2
Fore
SplineSet
817 662 m 256,0,1
 817 517 817 517 713.5 414 c 128,-1,2
 610 311 610 311 465 311 c 256,3,4
 320 311 320 311 217 414 c 128,-1,5
 114 517 114 517 114 662 c 256,6,7
 114 807 114 807 217 910 c 128,-1,8
 320 1013 320 1013 465 1013 c 256,9,10
 610 1013 610 1013 713.5 910 c 128,-1,11
 817 807 817 807 817 662 c 256,0,1
EndSplineSet
EndChar

StartChar: registered
Encoding: 174 174 33
Width: 897
Flags: W
LayerCount: 2
Fore
SplineSet
580 445 m 0,0,1
 448 445 448 445 354.5 538.5 c 128,-1,2
 261 632 261 632 261 764 c 256,3,4
 261 896 261 896 354.5 990 c 128,-1,5
 448 1084 448 1084 580 1084 c 0,6,7
 714 1084 714 1084 807 990 c 128,-1,8
 900 896 900 896 900 764 c 256,9,10
 900 632 900 632 806.5 538.5 c 128,-1,11
 713 445 713 445 580 445 c 0,0,1
580 484 m 0,12,13
 695 484 695 484 777.5 567 c 128,-1,14
 860 650 860 650 860 764 c 256,15,16
 860 878 860 878 777.5 961 c 128,-1,17
 695 1044 695 1044 580 1044 c 0,18,19
 466 1044 466 1044 383.5 961 c 128,-1,20
 301 878 301 878 301 764 c 256,21,22
 301 650 301 650 383.5 567 c 128,-1,23
 466 484 466 484 580 484 c 0,12,13
529 737 m 1,24,-1
 501 596 l 1,25,-1
 394 596 l 1,26,-1
 403 639 l 1,27,-1
 456 639 l 1,28,-1
 511 915 l 1,29,-1
 458 915 l 1,30,-1
 466 959 l 1,31,-1
 598 959 l 2,32,33
 751 959 751 959 751 875 c 0,34,35
 751 800 751 800 650 750 c 1,36,-1
 685 639 l 1,37,-1
 747 639 l 1,38,-1
 738 596 l 1,39,-1
 641 596 l 1,40,-1
 591 737 l 1,41,-1
 529 737 l 1,24,-1
538 782 m 1,42,-1
 574 782 l 2,43,44
 697 782 697 782 697 866 c 0,45,46
 697 915 697 915 607 915 c 2,47,-1
 564 915 l 1,48,-1
 538 782 l 1,42,-1
EndSplineSet
EndChar

StartChar: copyright
Encoding: 169 169 34
Width: 1244
Flags: W
LayerCount: 2
Fore
SplineSet
725 -27 m 0,0,1
 495 -27 495 -27 330.5 137 c 128,-1,2
 166 301 166 301 166 533 c 256,3,4
 166 765 166 765 330.5 929 c 128,-1,5
 495 1093 495 1093 725 1093 c 0,6,7
 958 1093 958 1093 1122 929 c 128,-1,8
 1286 765 1286 765 1286 533 c 256,9,10
 1286 301 1286 301 1122 137 c 128,-1,11
 958 -27 958 -27 725 -27 c 0,0,1
725 18 m 0,12,13
 939 18 939 18 1090 169 c 128,-1,14
 1241 320 1241 320 1241 533 c 256,15,16
 1241 746 1241 746 1090 897 c 128,-1,17
 939 1048 939 1048 725 1048 c 0,18,19
 513 1048 513 1048 362 897 c 128,-1,20
 211 746 211 746 211 533 c 256,21,22
 211 320 211 320 362 169 c 128,-1,23
 513 18 513 18 725 18 c 0,12,13
890 246 m 1,24,25
 785 213 785 213 704 213 c 0,26,27
 580 213 580 213 508 279.5 c 128,-1,28
 436 346 436 346 436 462 c 0,29,30
 436 625 436 625 541 734.5 c 128,-1,31
 646 844 646 844 805 844 c 0,32,33
 896 844 896 844 1003 814 c 1,34,-1
 967 675 l 1,35,-1
 915 684 l 1,36,-1
 923 766 l 1,37,38
 854 798 854 798 792 798 c 0,39,40
 688 798 688 798 616 700 c 128,-1,41
 544 602 544 602 544 462 c 0,42,43
 544 271 544 271 722 271 c 0,44,45
 823 271 823 271 902 307 c 1,46,-1
 890 246 l 1,24,25
EndSplineSet
EndChar

StartChar: trademark
Encoding: 8482 8482 35
Width: 1333
Flags: W
LayerCount: 2
Fore
SplineSet
440 1021 m 1,0,-1
 307 1021 l 1,1,-1
 288 923 l 1,2,-1
 225 923 l 1,3,-1
 254 1066 l 1,4,-1
 751 1066 l 1,5,-1
 723 923 l 1,6,-1
 661 923 l 1,7,-1
 679 1021 l 1,8,-1
 546 1021 l 1,9,-1
 456 569 l 1,10,-1
 554 569 l 1,11,-1
 545 524 l 1,12,-1
 243 524 l 1,13,-1
 253 569 l 1,14,-1
 350 569 l 1,15,-1
 440 1021 l 1,0,-1
1011 569 m 1,16,-1
 942 956 l 1,17,-1
 857 524 l 1,18,-1
 688 524 l 1,19,-1
 697 569 l 1,20,-1
 794 569 l 1,21,-1
 884 1021 l 1,22,-1
 787 1021 l 1,23,-1
 796 1066 l 1,24,-1
 1036 1066 l 1,25,-1
 1092 747 l 1,26,-1
 1265 1066 l 1,27,-1
 1481 1066 l 1,28,-1
 1473 1021 l 1,29,-1
 1375 1021 l 1,30,-1
 1285 569 l 1,31,-1
 1383 569 l 1,32,-1
 1373 524 l 1,33,-1
 1178 524 l 1,34,-1
 1270 985 l 1,35,-1
 1041 569 l 1,36,-1
 1011 569 l 1,16,-1
EndSplineSet
EndChar

StartChar: logicalnot
Encoding: 172 172 39
Width: 932
Flags: W
LayerCount: 2
Fore
SplineSet
177 510 m 1,0,-1
 193 590 l 1,1,-1
 975 590 l 1,2,-1
 906 248 l 1,3,-1
 814 248 l 1,4,-1
 866 510 l 1,5,-1
 177 510 l 1,0,-1
EndSplineSet
EndChar

StartChar: florin
Encoding: 402 402 40
Width: 679
Flags: W
LayerCount: 2
Fore
SplineSet
158 -231 m 1,0,-1
 210 -18 l 1,1,-1
 286 364 l 1,2,-1
 108 364 l 1,3,-1
 117 409 l 1,4,-1
 294 409 l 1,5,-1
 298 427 l 2,6,7
 330 586 330 586 463 692.5 c 128,-1,8
 596 799 596 799 761 799 c 0,9,10
 818 799 818 799 860 784 c 1,11,-1
 764 678 l 1,12,13
 712 729 712 729 643 729 c 0,14,15
 500 729 500 729 457 512 c 2,16,-1
 436 409 l 1,17,-1
 623 409 l 1,18,-1
 614 364 l 1,19,-1
 427 364 l 1,20,-1
 313 -213 l 1,21,-1
 158 -231 l 1,0,-1
EndSplineSet
EndChar

StartChar: ellipsis
Encoding: 8230 8230 41
Width: 1827
Flags: W
LayerCount: 2
Fore
SplineSet
758 113 m 0,0,1
 758 144 758 144 809.5 245.5 c 128,-1,2
 861 347 861 347 876 355 c 0,3,4
 907 369 907 369 964.5 307.5 c 128,-1,5
 1022 246 1022 246 1026 211 c 1,6,7
 1026 166 1026 166 977.5 79.5 c 128,-1,8
 929 -7 929 -7 908 -7 c 0,9,10
 899 -7 899 -7 851 26.5 c 128,-1,11
 803 60 803 60 778 79 c 0,12,13
 758 96 758 96 758 113 c 0,0,1
1308 113 m 0,14,15
 1308 144 1308 144 1359 245.5 c 128,-1,16
 1410 347 1410 347 1426 355 c 0,17,18
 1457 369 1457 369 1514.5 307.5 c 128,-1,19
 1572 246 1572 246 1575 211 c 0,20,21
 1575 166 1575 166 1527 79.5 c 128,-1,22
 1479 -7 1479 -7 1458 -7 c 0,23,24
 1449 -7 1449 -7 1401 26.5 c 128,-1,25
 1353 60 1353 60 1328 79 c 0,26,27
 1308 96 1308 96 1308 113 c 0,14,15
211 113 m 0,28,29
 211 144 211 144 262 245.5 c 128,-1,30
 313 347 313 347 329 355 c 0,31,32
 360 369 360 369 417.5 307.5 c 128,-1,33
 475 246 475 246 478 211 c 0,34,35
 478 166 478 166 430 79.5 c 128,-1,36
 382 -7 382 -7 361 -7 c 0,37,38
 352 -7 352 -7 304 26.5 c 128,-1,39
 256 60 256 60 231 79 c 0,40,41
 211 96 211 96 211 113 c 0,28,29
EndSplineSet
EndChar

StartChar: endash
Encoding: 8211 8211 42
Width: 434
Flags: W
LayerCount: 2
Fore
SplineSet
434 154 m 1,0,-1
 0 154 l 1,1,-1
 0 234 l 1,2,-1
 434 234 l 1,3,-1
 434 154 l 1,0,-1
EndSplineSet
EndChar

StartChar: emdash
Encoding: 8212 8212 43
Width: 1862
Flags: W
LayerCount: 2
Fore
SplineSet
1866 572 m 1,0,-1
 -4 572 l 1,1,-1
 -4 732 l 1,2,-1
 1866 732 l 1,3,-1
 1866 572 l 1,0,-1
EndSplineSet
EndChar

StartChar: quotedblleft
Encoding: 8220 8220 44
Width: 613
Flags: W
LayerCount: 2
Fore
SplineSet
340 993 m 0,0,1
 341 1058 341 1058 385 1121.5 c 128,-1,2
 429 1185 429 1185 483 1211 c 1,3,-1
 514 1153 l 1,4,5
 498 1144 498 1144 476 1120 c 128,-1,6
 454 1096 454 1096 444 1058 c 1,7,8
 510 1030 510 1030 507 975 c 0,9,10
 507 959 507 959 500.5 944.5 c 128,-1,11
 494 930 494 930 483.5 919 c 128,-1,12
 473 908 473 908 458 901.5 c 128,-1,13
 443 895 443 895 427 895 c 0,14,15
 406 895 406 895 390 903.5 c 128,-1,16
 374 912 374 912 363 925.5 c 128,-1,17
 352 939 352 939 346 957 c 128,-1,18
 340 975 340 975 340 993 c 0,0,1
121 993 m 0,19,20
 122 1058 122 1058 166 1121.5 c 128,-1,21
 210 1185 210 1185 265 1211 c 1,22,-1
 296 1153 l 1,23,24
 280 1144 280 1144 258 1120 c 128,-1,25
 236 1096 236 1096 226 1058 c 1,26,27
 292 1030 292 1030 289 975 c 0,28,29
 289 959 289 959 282.5 944.5 c 128,-1,30
 276 930 276 930 265 919 c 128,-1,31
 254 908 254 908 239 901.5 c 128,-1,32
 224 895 224 895 208 895 c 0,33,34
 188 895 188 895 171.5 903.5 c 128,-1,35
 155 912 155 912 144 925.5 c 128,-1,36
 133 939 133 939 127 957 c 128,-1,37
 121 975 121 975 121 993 c 0,19,20
EndSplineSet
EndChar

StartChar: quotedblright
Encoding: 8221 8221 45
Width: 597
Flags: W
LayerCount: 2
Fore
SplineSet
295 1113 m 0,0,1
 294 1048 294 1048 250 984.5 c 128,-1,2
 206 921 206 921 152 895 c 1,3,-1
 121 953 l 1,4,5
 137 962 137 962 159 986 c 128,-1,6
 181 1010 181 1010 191 1048 c 1,7,8
 125 1076 125 1076 128 1131 c 0,9,10
 128 1147 128 1147 134.5 1161.5 c 128,-1,11
 141 1176 141 1176 151.5 1187 c 128,-1,12
 162 1198 162 1198 176.5 1204.5 c 128,-1,13
 191 1211 191 1211 208 1211 c 0,14,15
 229 1211 229 1211 245 1202.5 c 128,-1,16
 261 1194 261 1194 272 1180.5 c 128,-1,17
 283 1167 283 1167 289 1149 c 128,-1,18
 295 1131 295 1131 295 1113 c 0,0,1
514 1113 m 0,19,20
 513 1048 513 1048 469 984.5 c 128,-1,21
 425 921 425 921 370 895 c 1,22,-1
 339 953 l 1,23,24
 355 962 355 962 377 986 c 128,-1,25
 399 1010 399 1010 409 1048 c 1,26,27
 343 1076 343 1076 346 1131 c 0,28,29
 346 1147 346 1147 352.5 1161.5 c 128,-1,30
 359 1176 359 1176 370 1187 c 128,-1,31
 381 1198 381 1198 395.5 1204.5 c 128,-1,32
 410 1211 410 1211 427 1211 c 0,33,34
 447 1211 447 1211 463 1202.5 c 128,-1,35
 479 1194 479 1194 490.5 1180.5 c 128,-1,36
 502 1167 502 1167 508 1149 c 128,-1,37
 514 1131 514 1131 514 1113 c 0,19,20
EndSplineSet
EndChar

StartChar: divide
Encoding: 247 247 46
Width: 1045
Flags: W
LayerCount: 2
Fore
SplineSet
657 780 m 256,0,1
 657 722 657 722 616.5 682 c 128,-1,2
 576 642 576 642 518 642 c 256,3,4
 460 642 460 642 420.5 682 c 128,-1,5
 381 722 381 722 381 780 c 256,6,7
 381 838 381 838 420.5 878.5 c 128,-1,8
 460 919 460 919 518 919 c 256,9,10
 576 919 576 919 616.5 878.5 c 128,-1,11
 657 838 657 838 657 780 c 256,0,1
933 408 m 1,12,-1
 124 408 l 1,13,-1
 124 535 l 1,14,-1
 933 535 l 1,15,-1
 933 408 l 1,12,-1
657 166 m 256,16,17
 657 108 657 108 616.5 68 c 128,-1,18
 576 28 576 28 518 28 c 256,19,20
 460 28 460 28 420.5 68 c 128,-1,21
 381 108 381 108 381 166 c 256,22,23
 381 224 381 224 420.5 264.5 c 128,-1,24
 460 305 460 305 518 305 c 256,25,26
 576 305 576 305 616.5 264.5 c 128,-1,27
 657 224 657 224 657 166 c 256,16,17
EndSplineSet
EndChar

StartChar: lozenge
Encoding: 9674 9674 47
Width: 1118
Flags: W
LayerCount: 2
Fore
SplineSet
1003 699 m 1,0,-1
 560 197 l 1,1,-1
 117 699 l 1,2,-1
 560 1202 l 1,3,-1
 1003 699 l 1,0,-1
848 699 m 1,4,-1
 560 1036 l 1,5,-1
 271 699 l 1,6,-1
 560 364 l 1,7,-1
 848 699 l 1,4,-1
EndSplineSet
EndChar

StartChar: fraction
Encoding: 8260 8260 48
Width: 742
Flags: W
LayerCount: 2
Fore
SplineSet
740 1101 m 1,0,-1
 101 -82 l 1,1,-1
 -9 -82 l 1,2,-1
 629 1101 l 1,3,-1
 740 1101 l 1,0,-1
EndSplineSet
EndChar

StartChar: guilsinglleft
Encoding: 8249 8249 49
Width: 1117
Flags: W
LayerCount: 2
Fore
SplineSet
955 58 m 1,0,-1
 150 444 l 1,1,-1
 150 534 l 1,2,-1
 955 918 l 1,3,-1
 955 784 l 1,4,-1
 331 489 l 1,5,-1
 955 192 l 1,6,-1
 955 58 l 1,0,-1
EndSplineSet
EndChar

StartChar: daggerdbl
Encoding: 8225 8225 52
Width: 932
Flags: W
LayerCount: 2
Fore
SplineSet
349 -231 m 1,0,-1
 481 185 l 1,1,-1
 161 154 l 1,2,-1
 211 261 l 1,3,-1
 490 229 l 1,4,-1
 567 616 l 1,5,-1
 247 586 l 1,6,-1
 297 693 l 1,7,-1
 575 661 l 1,8,-1
 608 1066 l 1,9,-1
 758 1093 l 1,10,-1
 620 661 l 1,11,-1
 940 693 l 1,12,-1
 889 586 l 1,13,-1
 611 616 l 1,14,-1
 535 229 l 1,15,-1
 855 261 l 1,16,-1
 804 154 l 1,17,-1
 525 185 l 1,18,-1
 499 -213 l 1,19,-1
 349 -231 l 1,0,-1
EndSplineSet
EndChar

StartChar: middot.001
Encoding: 8729 8729 53
Width: 620
Flags: W
LayerCount: 2
Fore
SplineSet
429 516 m 1,0,-1
 190 516 l 1,1,-1
 190 789 l 1,2,-1
 429 789 l 1,3,-1
 429 516 l 1,0,-1
EndSplineSet
EndChar

StartChar: quotesinglbase
Encoding: 8218 8218 54
Width: 418
Flags: W
LayerCount: 2
Fore
SplineSet
103 128 m 1,0,-1
 247 231 l 1,1,-1
 353 90 l 1,2,3
 345 -56 345 -56 262.5 -134.5 c 128,-1,4
 180 -213 180 -213 36 -213 c 1,5,-1
 76 -168 l 1,6,7
 189 -158 189 -158 211 -18 c 1,8,-1
 103 128 l 1,0,-1
EndSplineSet
EndChar

StartChar: quotedblbase
Encoding: 8222 8222 55
Width: 684
Flags: W
LayerCount: 2
Fore
SplineSet
91 92 m 1,0,-1
 204 178 l 1,1,-1
 292 64 l 1,2,3
 270 -213 270 -213 31 -213 c 1,4,-1
 60 -168 l 1,5,6
 166 -148 166 -148 179 -16 c 1,7,-1
 91 92 l 1,0,-1
401 92 m 1,8,-1
 516 178 l 1,9,-1
 602 64 l 1,10,11
 581 -213 581 -213 341 -213 c 1,12,-1
 372 -168 l 1,13,14
 476 -148 476 -148 490 -16 c 1,15,-1
 401 92 l 1,8,-1
EndSplineSet
EndChar

StartChar: perthousand
Encoding: 8240 8240 56
Width: 1571
Flags: W
LayerCount: 2
Fore
SplineSet
385 533 m 0,0,1
 304 533 304 533 254.5 584.5 c 128,-1,2
 205 636 205 636 205 722 c 0,3,4
 205 865 205 865 286.5 965.5 c 128,-1,5
 368 1066 368 1066 483 1066 c 0,6,7
 567 1066 567 1066 617.5 1014.5 c 128,-1,8
 668 963 668 963 668 877 c 0,9,10
 668 733 668 733 585.5 633 c 128,-1,11
 503 533 503 533 385 533 c 0,0,1
311 715 m 0,12,13
 311 578 311 578 398 578 c 0,14,15
 463 578 463 578 517 671.5 c 128,-1,16
 571 765 571 765 571 881 c 0,17,18
 571 1022 571 1022 483 1022 c 0,19,20
 416 1022 416 1022 363.5 928 c 128,-1,21
 311 834 311 834 311 715 c 0,12,13
850 0 m 0,22,23
 769 0 769 0 719.5 51.5 c 128,-1,24
 670 103 670 103 670 189 c 0,25,26
 670 331 670 331 751 432 c 128,-1,27
 832 533 832 533 947 533 c 0,28,29
 1031 533 1031 533 1081.5 481.5 c 128,-1,30
 1132 430 1132 430 1132 344 c 0,31,32
 1132 200 1132 200 1049.5 100 c 128,-1,33
 967 0 967 0 850 0 c 0,22,23
776 182 m 0,34,35
 776 44 776 44 862 44 c 0,36,37
 929 44 929 44 982 138 c 128,-1,38
 1035 232 1035 232 1035 348 c 0,39,40
 1035 490 1035 490 948 490 c 0,41,42
 880 490 880 490 828 395.5 c 128,-1,43
 776 301 776 301 776 182 c 0,34,35
131 -27 m 1,44,-1
 1111 1093 l 1,45,-1
 1206 1093 l 1,46,-1
 225 -27 l 1,47,-1
 131 -27 l 1,44,-1
1376 0 m 0,48,49
 1294 0 1294 0 1244.5 51.5 c 128,-1,50
 1195 103 1195 103 1195 189 c 0,51,52
 1195 331 1195 331 1276.5 432 c 128,-1,53
 1358 533 1358 533 1473 533 c 0,54,55
 1557 533 1557 533 1607.5 481.5 c 128,-1,56
 1658 430 1658 430 1658 344 c 0,57,58
 1658 200 1658 200 1575.5 100 c 128,-1,59
 1493 0 1493 0 1376 0 c 0,48,49
1301 183 m 0,60,61
 1301 44 1301 44 1389 44 c 0,62,63
 1453 44 1453 44 1507 138 c 128,-1,64
 1561 232 1561 232 1561 347 c 0,65,66
 1561 490 1561 490 1473 490 c 0,67,68
 1406 490 1406 490 1353.5 395.5 c 128,-1,69
 1301 301 1301 301 1301 183 c 0,60,61
EndSplineSet
EndChar

StartChar: multiply
Encoding: 215 215 60
Width: 1015
Flags: W
LayerCount: 2
Fore
SplineSet
741 173 m 1,0,-1
 503 411 l 1,1,-1
 253 162 l 1,2,-1
 148 267 l 1,3,-1
 397 517 l 1,4,-1
 148 766 l 1,5,-1
 257 875 l 1,6,-1
 506 625 l 1,7,-1
 744 863 l 1,8,-1
 849 758 l 1,9,-1
 612 520 l 1,10,-1
 850 282 l 1,11,-1
 741 173 l 1,0,-1
EndSplineSet
EndChar

StartChar: macron
Encoding: 175 175 61
Width: 1118
Flags: W
LayerCount: 2
Fore
SplineSet
1134 1259 m 1,0,-1
 -16 1259 l 1,1,-1
 -16 1389 l 1,2,-1
 1134 1389 l 1,3,-1
 1134 1259 l 1,0,-1
EndSplineSet
EndChar

StartChar: periodcentered
Encoding: 183 183 62
Width: 724
Flags: W
LayerCount: 2
Fore
SplineSet
482 832 m 1,0,-1
 243 832 l 1,1,-1
 243 1117 l 1,2,-1
 482 1117 l 1,3,-1
 482 832 l 1,0,-1
EndSplineSet
EndChar

StartChar: H22073
Encoding: 9633 9633 63
Width: 1237
Flags: W
LayerCount: 2
Fore
SplineSet
146 944 m 1,0,-1
 1090 944 l 1,1,-1
 1090 0 l 1,2,-1
 146 0 l 1,3,-1
 146 944 l 1,0,-1
222 868 m 1,4,-1
 222 76 l 1,5,-1
 1014 76 l 1,6,-1
 1014 868 l 1,7,-1
 222 868 l 1,4,-1
EndSplineSet
EndChar

StartChar: H18543
Encoding: 9642 9642 64
Width: 1089
Flags: W
LayerCount: 2
Fore
SplineSet
886 894 m 1,0,-1
 886 200 l 1,1,-1
 192 200 l 1,2,-1
 192 894 l 1,3,-1
 886 894 l 1,0,-1
EndSplineSet
EndChar

StartChar: H18551
Encoding: 9643 9643 65
Width: 1089
Flags: W
LayerCount: 2
Fore
SplineSet
888 930 m 1,0,-1
 888 235 l 1,1,-1
 193 235 l 1,2,-1
 193 930 l 1,3,-1
 888 930 l 1,0,-1
774 816 m 1,4,-1
 307 816 l 1,5,-1
 307 349 l 1,6,-1
 774 349 l 1,7,-1
 774 816 l 1,4,-1
EndSplineSet
EndChar

StartChar: H18533
Encoding: 9679 9679 66
Width: 1339
Flags: W
LayerCount: 2
Fore
SplineSet
204 775 m 0,0,1
 204 976 204 976 345 1117 c 128,-1,2
 486 1258 486 1258 685 1258 c 0,3,4
 885 1258 885 1258 1026 1117 c 128,-1,5
 1167 976 1167 976 1167 775 c 0,6,7
 1167 577 1167 577 1026 436 c 128,-1,8
 885 295 885 295 685 295 c 0,9,10
 486 295 486 295 345 436 c 128,-1,11
 204 577 204 577 204 775 c 0,0,1
EndSplineSet
EndChar

StartChar: openbullet
Encoding: 9702 9702 67
Width: 1089
Flags: W
LayerCount: 2
Fore
SplineSet
544 1392 m 0,0,1
 700 1392 700 1392 810.5 1281.5 c 128,-1,2
 921 1171 921 1171 921 1015 c 256,3,4
 921 859 921 859 810.5 749 c 128,-1,5
 700 639 700 639 544 639 c 256,6,7
 388 639 388 639 278 749 c 128,-1,8
 168 859 168 859 168 1015 c 256,9,10
 168 1171 168 1171 277.5 1281.5 c 128,-1,11
 387 1392 387 1392 544 1392 c 0,0,1
544 1278 m 0,12,13
 435 1278 435 1278 358.5 1200.5 c 128,-1,14
 282 1123 282 1123 282 1015 c 0,15,16
 282 906 282 906 359 829.5 c 128,-1,17
 436 753 436 753 544 753 c 256,18,19
 652 753 652 753 729.5 829.5 c 128,-1,20
 807 906 807 906 807 1015 c 0,21,22
 807 1123 807 1123 730.5 1200.5 c 128,-1,23
 654 1278 654 1278 544 1278 c 0,12,13
EndSplineSet
EndChar

StartChar: uniFFFC
Encoding: 65532 65532 68
Width: 2048
Flags: W
LayerCount: 2
Fore
SplineSet
2048 1150 m 1,0,-1
 1948 1150 l 1,1,-1
 1948 1373 l 1,2,-1
 1725 1373 l 1,3,-1
 1725 1473 l 1,4,-1
 2048 1473 l 1,5,-1
 2048 1150 l 1,0,-1
1473 1373 m 1,6,-1
 1150 1373 l 1,7,-1
 1150 1473 l 1,8,-1
 1473 1473 l 1,9,-1
 1473 1373 l 1,6,-1
2048 575 m 1,10,-1
 1948 575 l 1,11,-1
 1948 898 l 1,12,-1
 2048 898 l 1,13,-1
 2048 575 l 1,10,-1
1782 611 m 2,14,15
 1782 370 1782 370 1571 370 c 0,16,17
 1485 370 1485 370 1433 415 c 1,18,-1
 1506 494 l 1,19,20
 1531 468 1531 468 1571 468 c 0,21,22
 1666 468 1666 468 1666 606 c 2,23,-1
 1666 1090 l 1,24,-1
 1782 1090 l 1,25,-1
 1782 611 l 2,14,15
898 1373 m 1,26,-1
 575 1373 l 1,27,-1
 575 1473 l 1,28,-1
 898 1473 l 1,29,-1
 898 1373 l 1,26,-1
2048 0 m 1,30,-1
 1725 0 l 1,31,-1
 1725 100 l 1,32,-1
 1948 100 l 1,33,-1
 1948 323 l 1,34,-1
 2048 323 l 1,35,-1
 2048 0 l 1,30,-1
1423 591 m 0,36,37
 1423 382 1423 382 1149 382 c 2,38,-1
 909 382 l 1,39,-1
 909 1090 l 1,40,-1
 1144 1090 l 2,41,42
 1393 1090 1393 1090 1393 904 c 0,43,44
 1393 813 1393 813 1304 759 c 1,45,46
 1423 713 1423 713 1423 591 c 0,36,37
323 1373 m 1,47,-1
 100 1373 l 1,48,-1
 100 1150 l 1,49,-1
 0 1150 l 1,50,-1
 0 1473 l 1,51,-1
 323 1473 l 1,52,-1
 323 1373 l 1,47,-1
1473 0 m 1,53,-1
 1150 0 l 1,54,-1
 1150 100 l 1,55,-1
 1473 100 l 1,56,-1
 1473 0 l 1,53,-1
854 735 m 0,57,58
 854 562 854 562 772 466 c 128,-1,59
 690 370 690 370 537 370 c 256,60,61
 384 370 384 370 303.5 466 c 128,-1,62
 223 562 223 562 223 735 c 0,63,64
 223 910 223 910 303.5 1006 c 128,-1,65
 384 1102 384 1102 537 1102 c 256,66,67
 690 1102 690 1102 772 1006 c 128,-1,68
 854 910 854 910 854 735 c 0,57,58
100 575 m 1,69,-1
 0 575 l 1,70,-1
 0 898 l 1,71,-1
 100 898 l 1,72,-1
 100 575 l 1,69,-1
898 0 m 1,73,-1
 575 0 l 1,74,-1
 575 100 l 1,75,-1
 898 100 l 1,76,-1
 898 0 l 1,73,-1
323 0 m 1,77,-1
 0 0 l 1,78,-1
 0 323 l 1,79,-1
 100 323 l 1,80,-1
 100 100 l 1,81,-1
 323 100 l 1,82,-1
 323 0 l 1,77,-1
1277 893 m 0,83,84
 1277 992 1277 992 1114 992 c 2,85,-1
 1025 992 l 1,86,-1
 1025 798 l 1,87,-1
 1126 798 l 2,88,89
 1277 798 1277 798 1277 893 c 0,83,84
1307 591 m 0,90,91
 1307 700 1307 700 1136 700 c 2,92,-1
 1025 700 l 1,93,-1
 1025 480 l 1,94,-1
 1149 480 l 2,95,96
 1307 480 1307 480 1307 591 c 0,90,91
738 735 m 0,97,98
 738 1004 738 1004 537 1004 c 0,99,100
 339 1004 339 1004 339 735 c 0,101,102
 339 468 339 468 537 468 c 0,103,104
 738 468 738 468 738 735 c 0,97,98
EndSplineSet
EndChar

StartChar: zerowidthnonjoiner
Encoding: 8204 8204 88
Width: 0
GlyphClass: 2
Flags: W
LayerCount: 2
Fore
SplineSet
36 1289 m 1,0,-1
 36 -275 l 1,1,-1
 -36 -275 l 1,2,-1
 -36 1289 l 1,3,-1
 36 1289 l 1,0,-1
EndSplineSet
EndChar

StartChar: zerowidthjoiner
Encoding: 8205 8205 89
Width: 0
GlyphClass: 2
Flags: W
LayerCount: 2
Fore
SplineSet
36 -275 m 1,0,-1
 -36 -275 l 1,1,-1
 -36 1114 l 1,2,-1
 -170 978 l 1,3,-1
 -219 1027 l 1,4,-1
 -48 1196 l 1,5,-1
 -219 1364 l 1,6,-1
 -170 1413 l 1,7,-1
 0 1242 l 1,8,-1
 170 1413 l 1,9,-1
 219 1364 l 1,10,-1
 48 1196 l 1,11,-1
 219 1027 l 1,12,-1
 170 978 l 1,13,-1
 36 1114 l 1,14,-1
 36 -275 l 1,0,-1
EndSplineSet
EndChar

StartChar: lefttorightmark
Encoding: 8206 8206 90
Width: 0
GlyphClass: 2
Flags: W
LayerCount: 2
Fore
SplineSet
430 1198 m 1,0,-1
 213 984 l 1,1,-1
 164 1033 l 1,2,-1
 301 1163 l 1,3,-1
 35 1163 l 1,4,-1
 35 -275 l 1,5,-1
 -36 -275 l 1,6,-1
 -36 1234 l 1,7,-1
 301 1234 l 1,8,-1
 164 1364 l 1,9,-1
 213 1413 l 1,10,-1
 430 1198 l 1,0,-1
EndSplineSet
EndChar

StartChar: righttoleftmark
Encoding: 8207 8207 91
Width: 0
GlyphClass: 2
Flags: W
LayerCount: 2
Fore
SplineSet
35 -275 m 1,0,-1
 -36 -275 l 1,1,-1
 -36 1163 l 1,2,-1
 -302 1163 l 1,3,-1
 -165 1033 l 1,4,-1
 -214 984 l 1,5,-1
 -431 1198 l 1,6,-1
 -214 1413 l 1,7,-1
 -165 1364 l 1,8,-1
 -302 1234 l 1,9,-1
 35 1234 l 1,10,-1
 35 -275 l 1,0,-1
EndSplineSet
EndChar

StartChar: afii57388.001
Encoding: 1644 1644 92
Width: 353
GlyphClass: 2
Flags: W
LayerCount: 2
Fore
SplineSet
210 654 m 0,0,1
 200 627 200 627 185 603 c 0,2,3
 180 597 180 597 173.5 593.5 c 128,-1,4
 167 590 167 590 162 590 c 128,-1,5
 157 590 157 590 154.5 593 c 128,-1,6
 152 596 152 596 155 603 c 0,7,8
 187 660 187 660 202.5 713.5 c 128,-1,9
 218 767 218 767 218 800 c 1,10,11
 194 806 194 806 179 816 c 128,-1,12
 164 826 164 826 155 837.5 c 128,-1,13
 146 849 146 849 143 859 c 128,-1,14
 140 869 140 869 140 874 c 0,15,16
 140 890 140 890 145.5 907 c 128,-1,17
 151 924 151 924 160.5 937.5 c 128,-1,18
 170 951 170 951 183.5 959.5 c 128,-1,19
 197 968 197 968 213 968 c 0,20,21
 272 968 272 968 272 874 c 0,22,23
 272 859 272 859 268 835 c 128,-1,24
 264 811 264 811 256 781.5 c 128,-1,25
 248 752 248 752 236.5 719.5 c 128,-1,26
 225 687 225 687 210 654 c 0,0,1
EndSplineSet
EndChar

StartChar: afii57409
Encoding: 1569 1569 93
Width: 809
GlyphClass: 2
Flags: W
AnchorPoint: "Anchor-3" 465 -375 basechar 0
AnchorPoint: "Anchor-2" 420 1035 basechar 0
LayerCount: 2
Fore
SplineSet
809 212 m 0,0,1
 809 128 809 128 789 100 c 0,2,3
 718 2 718 2 468 2 c 0,4,5
 217 2 217 2 131 100 c 1,6,-1
 206 290 l 1,7,8
 272 254 272 254 345 254 c 0,9,10
 367 254 367 254 378 259 c 1,11,12
 229 367 229 367 229 560 c 0,13,14
 229 645 229 645 284 706 c 0,15,16
 355 785 355 785 495 785 c 0,17,18
 667 785 667 785 720 634 c 0,19,20
 732 600 732 600 732 553 c 0,21,22
 732 473 732 473 711 473 c 0,23,24
 700 473 700 473 678 479.5 c 128,-1,25
 656 486 656 486 644 486 c 0,26,27
 597 486 597 486 562 457.5 c 128,-1,28
 527 429 527 429 527 383 c 0,29,30
 527 278 527 278 661 278 c 0,31,32
 701 278 701 278 741 291 c 0,33,34
 750 294 750 294 758 294 c 0,35,36
 809 294 809 294 809 212 c 0,0,1
EndSplineSet
EndChar

StartChar: afii57440
Encoding: 1600 1600 94
Width: 858
GlyphClass: 2
Flags: W
LayerCount: 2
Fore
SplineSet
902 0 m 1,0,-1
 -80 0 l 1,1,-1
 -80 660 l 1,2,-1
 902 660 l 1,3,-1
 902 0 l 1,0,-1
EndSplineSet
EndChar

StartChar: afii57453
Encoding: 1613 1613 95
Width: 0
GlyphClass: 4
Flags: W
AnchorPoint: "Anchor-3" 0 0 mark 0
AnchorPoint: "Anchor-1" 0 0 mark 0
LayerCount: 2
Fore
SplineSet
-199 -60 m 1,0,-1
 193 22 l 1,1,-1
 193 -54 l 1,2,-1
 -199 -136 l 1,3,-1
 -199 -60 l 1,0,-1
-199 78 m 1,4,-1
 193 159 l 1,5,-1
 193 84 l 1,6,-1
 -199 2 l 1,7,-1
 -199 78 l 1,4,-1
EndSplineSet
EndChar

StartChar: afii57381
Encoding: 1642 1642 96
Width: 810
GlyphClass: 2
Flags: W
LayerCount: 2
Fore
SplineSet
436 889 m 256,0,1
 436 831 436 831 394 790 c 128,-1,2
 352 749 352 749 294 749 c 256,3,4
 236 749 236 749 195 790 c 128,-1,5
 154 831 154 831 154 889 c 0,6,7
 154 948 154 948 195.5 989 c 128,-1,8
 237 1030 237 1030 296 1030 c 0,9,10
 354 1030 354 1030 395 988.5 c 128,-1,11
 436 947 436 947 436 889 c 256,0,1
810 1037 m 1,12,-1
 303 -111 l 1,13,-1
 145 -24 l 1,14,-1
 655 1119 l 1,15,-1
 810 1037 l 1,12,-1
814 62 m 0,16,17
 814 4 814 4 772 -37 c 128,-1,18
 730 -78 730 -78 672 -78 c 256,19,20
 614 -78 614 -78 572.5 -37 c 128,-1,21
 531 4 531 4 531 62 c 256,22,23
 531 120 531 120 572.5 161.5 c 128,-1,24
 614 203 614 203 672 203 c 0,25,26
 731 203 731 203 772.5 162 c 128,-1,27
 814 121 814 121 814 62 c 0,16,17
EndSplineSet
EndChar

StartChar: afii57461
Encoding: 1643 1643 97
Width: 536
GlyphClass: 2
Flags: W
LayerCount: 2
Fore
SplineSet
518 521 m 1,0,-1
 115 -382 l 1,1,-1
 19 -352 l 1,2,-1
 425 551 l 1,3,-1
 518 521 l 1,0,-1
EndSplineSet
EndChar

StartChar: afii63167
Encoding: 1645 1645 98
Width: 1118
GlyphClass: 2
Flags: W
LayerCount: 2
Fore
SplineSet
694 729 m 1,0,-1
 1057 733 l 1,1,-1
 1057 610 l 1,2,-1
 702 612 l 1,3,-1
 971 352 l 1,4,-1
 883 264 l 1,5,-1
 616 539 l 1,6,-1
 623 168 l 1,7,-1
 498 168 l 1,8,-1
 502 539 l 1,9,-1
 236 264 l 1,10,-1
 147 352 l 1,11,-1
 422 614 l 1,12,-1
 63 610 l 1,13,-1
 63 733 l 1,14,-1
 420 729 l 1,15,-1
 170 975 l 1,16,-1
 258 1065 l 1,17,-1
 502 817 l 1,18,-1
 498 1176 l 1,19,-1
 623 1176 l 1,20,-1
 616 813 l 1,21,-1
 860 1065 l 1,22,-1
 948 975 l 1,23,-1
 694 729 l 1,0,-1
EndSplineSet
EndChar

StartChar: afii57459
Encoding: 65543 -1 99
Width: 768
GlyphClass: 2
Flags: W
LayerCount: 2
Fore
SplineSet
768 65 m 2,0,1
 768 0 768 0 693 0 c 2,2,-1
 -100 0 l 1,3,-1
 -100 660 l 1,4,-1
 252 660 l 1,5,6
 208 715 208 715 208 781 c 0,7,8
 208 871 208 871 311.5 969 c 128,-1,9
 415 1067 415 1067 505 1067 c 0,10,11
 591 1067 591 1067 663 992 c 0,12,13
 768 883 768 883 768 656 c 2,14,-1
 768 65 l 2,0,1
590 689 m 0,15,16
 590 728 590 728 546.5 777 c 128,-1,17
 503 826 503 826 464 826 c 0,18,19
 444 826 444 826 426.5 812 c 128,-1,20
 409 798 409 798 409 779 c 0,21,22
 409 739 409 739 453.5 693 c 128,-1,23
 498 647 498 647 538 647 c 0,24,25
 590 647 590 647 590 689 c 0,15,16
EndSplineSet
EndChar

StartChar: afii57543
Encoding: 65544 -1 100
Width: 665
Flags: W
LayerCount: 2
Fore
SplineSet
670 0 m 1,0,-1
 554 0 l 2,1,2
 490 0 490 0 438.5 43.5 c 128,-1,3
 387 87 387 87 371 150 c 1,4,5
 349 85 349 85 298 44 c 0,6,7
 244 0 244 0 178 0 c 2,8,-1
 -85 0 l 1,9,-1
 -85 660 l 1,10,-1
 162 660 l 2,11,12
 234 660 234 660 272 710 c 0,13,14
 279 720 279 720 317 802 c 0,15,16
 340 852 340 852 374 852 c 0,17,18
 405 852 405 852 422 802 c 0,19,20
 448 727 448 727 460 710 c 0,21,22
 496 660 496 660 571 660 c 2,23,-1
 670 660 l 1,24,-1
 670 0 l 1,0,-1
EndSplineSet
EndChar

StartChar: afii57534
Encoding: 1749 1749 101
Width: 1031
GlyphClass: 2
Flags: W
LayerCount: 2
Fore
SplineSet
1027 581 m 0,0,1
 1027 363 1027 363 878 189 c 0,2,3
 722 7 722 7 508 7 c 0,4,5
 383 7 383 7 273 90 c 0,6,7
 131 197 131 197 131 392 c 0,8,9
 131 522 131 522 204 643 c 0,10,11
 264 742 264 742 349 802 c 0,12,13
 369 816 369 816 369 830 c 0,14,15
 369 842 369 842 350 848 c 0,16,17
 314 859 314 859 336 895 c 2,18,-1
 473 1117 l 2,19,20
 481 1130 481 1130 510 1130 c 0,21,22
 544 1130 544 1130 665 1052 c 0,23,24
 807 960 807 960 903 851 c 0,25,26
 1027 709 1027 709 1027 581 c 0,0,1
541 734 m 0,27,28
 512 734 512 734 488.5 710 c 128,-1,29
 465 686 465 686 465 657 c 0,30,31
 465 649 465 649 468 639 c 0,32,33
 498 539 498 539 641 539 c 0,34,35
 702 539 702 539 702 595 c 0,36,37
 702 649 702 649 648 693 c 0,38,39
 596 734 596 734 541 734 c 0,27,28
EndSplineSet
EndChar

StartChar: afii64240
Encoding: 65546 -1 103
Width: 401
Flags: W
LayerCount: 2
Fore
SplineSet
359 207 m 2,0,1
 375 191 375 191 355 171 c 2,2,-1
 208 23 l 2,3,4
 192 7 192 7 175 23 c 2,5,-1
 24 172 l 2,6,7
 5 191 5 191 24 210 c 2,8,-1
 171 357 l 2,9,10
 180 366 180 366 190 366 c 256,11,12
 200 366 200 366 209 357 c 2,13,-1
 359 207 l 2,0,1
EndSplineSet
EndChar

StartChar: afii64241
Encoding: 65547 -1 104
Width: 646
Flags: W
LayerCount: 2
Fore
SplineSet
614 203 m 2,0,1
 629 188 629 188 610 169 c 2,2,-1
 471 29 l 2,3,4
 456 14 456 14 440 29 c 2,5,-1
 322 145 l 1,6,-1
 206 29 l 2,7,8
 191 14 191 14 176 29 c 2,9,-1
 33 170 l 2,10,11
 15 188 15 188 33 206 c 2,12,-1
 172 345 l 2,13,14
 190 363 190 363 208 345 c 2,15,-1
 322 230 l 1,16,-1
 436 345 l 2,17,18
 454 363 454 363 472 345 c 2,19,-1
 614 203 l 2,0,1
EndSplineSet
EndChar

StartChar: afii63954
Encoding: 65548 -1 105
Width: 664
Flags: W
LayerCount: 2
Fore
SplineSet
480 427 m 2,0,1
 493 415 493 415 476 398 c 2,2,-1
 357 279 l 2,3,4
 344 266 344 266 331 279 c 2,5,-1
 209 399 l 2,6,7
 193 414 193 414 209 430 c 2,8,-1
 328 549 l 2,9,10
 336 557 336 557 343 557 c 256,11,12
 350 557 350 557 358 549 c 2,13,-1
 480 427 l 2,0,1
608 171 m 2,14,15
 621 158 621 158 604 140 c 2,16,-1
 479 14 l 2,17,18
 465 0 465 0 451 14 c 2,19,-1
 345 119 l 1,20,-1
 241 14 l 2,21,22
 228 1 228 1 214 14 c 2,23,-1
 85 141 l 2,24,25
 68 157 68 157 85 174 c 2,26,-1
 210 299 l 2,27,28
 226 315 226 315 242 299 c 2,29,-1
 345 195 l 1,30,-1
 447 299 l 2,31,32
 455 307 455 307 464 307 c 0,33,34
 472 307 472 307 480 299 c 2,35,-1
 608 171 l 2,14,15
EndSplineSet
EndChar

StartChar: afii57382
Encoding: 65549 -1 106
Width: 630
Flags: W
LayerCount: 2
Fore
SplineSet
320 -545 m 2,0,1
 312 -553 312 -553 305 -553 c 256,2,3
 298 -553 298 -553 290 -545 c 2,4,-1
 171 -426 l 2,5,6
 155 -410 155 -410 171 -395 c 2,7,-1
 293 -275 l 2,8,9
 306 -262 306 -262 319 -275 c 2,10,-1
 438 -394 l 2,11,12
 455 -411 455 -411 442 -423 c 2,13,-1
 320 -545 l 2,0,1
442 -295 m 2,14,15
 434 -303 434 -303 426 -303 c 0,16,17
 417 -303 417 -303 409 -295 c 2,18,-1
 307 -191 l 1,19,-1
 204 -295 l 2,20,21
 188 -311 188 -311 172 -295 c 2,22,-1
 47 -170 l 2,23,24
 30 -153 30 -153 47 -137 c 2,25,-1
 176 -10 l 2,26,27
 190 3 190 3 203 -10 c 2,28,-1
 307 -115 l 1,29,-1
 413 -10 l 2,30,31
 427 4 427 4 441 -10 c 2,32,-1
 566 -136 l 2,33,34
 583 -154 583 -154 570 -167 c 2,35,-1
 442 -295 l 2,14,15
EndSplineSet
EndChar

StartChar: afii64242
Encoding: 65550 -1 107
Width: 590
Flags: W
LayerCount: 2
Fore
SplineSet
463 54 m 2,0,1
 463 0 463 0 401 0 c 2,2,-1
 -79 0 l 1,3,-1
 -79 660 l 1,4,-1
 220 660 l 2,5,6
 235 660 235 660 235 682 c 0,7,8
 235 696 235 696 208 756 c 0,9,10
 196 783 196 783 170 830 c 0,11,12
 154 853 154 853 180 882 c 2,13,-1
 312 1026 l 2,14,15
 328 1044 328 1044 341 1044 c 256,16,17
 354 1044 354 1044 370 1024 c 0,18,19
 437 941 437 941 456 733 c 2,20,-1
 463 658 l 1,21,-1
 463 54 l 2,0,1
EndSplineSet
EndChar

StartChar: afii57373
Encoding: 65551 -1 112
Width: 529
Flags: W
LayerCount: 2
Fore
SplineSet
403 1377 m 0,0,1
 403 1345 403 1345 395 1332 c 0,2,3
 364 1295 364 1295 269 1295 c 256,4,5
 174 1295 174 1295 138 1332 c 1,6,-1
 167 1407 l 1,7,8
 197 1392 197 1392 216 1392 c 0,9,10
 226 1392 226 1392 234 1396 c 1,11,12
 176 1436 176 1436 176 1513 c 0,13,14
 176 1602 176 1602 280 1602 c 0,15,16
 379 1602 379 1602 372 1502 c 0,17,18
 370 1480 370 1480 364 1480 c 0,19,20
 360 1480 360 1480 351 1482 c 128,-1,21
 342 1484 342 1484 338 1484 c 0,22,23
 292 1484 292 1484 292 1444 c 0,24,25
 292 1403 292 1403 345 1403 c 0,26,27
 361 1403 361 1403 376 1408 c 0,28,29
 403 1417 403 1417 403 1377 c 0,0,1
EndSplineSet
EndChar

StartChar: afii57374
Encoding: 65552 -1 113
Width: 902
GlyphClass: 2
Flags: W
LayerCount: 2
Fore
SplineSet
902 0 m 1,0,-1
 844 0 l 2,1,2
 730 0 730 0 700 72 c 1,3,4
 663 0 663 0 551 0 c 2,5,-1
 -80 0 l 1,6,-1
 -80 660 l 1,7,-1
 221 660 l 1,8,9
 177 715 177 715 177 781 c 0,10,11
 177 871 177 871 280.5 969 c 128,-1,12
 384 1067 384 1067 474 1067 c 0,13,14
 556 1067 556 1067 625 992 c 0,15,16
 725 883 725 883 728 660 c 1,17,-1
 902 660 l 1,18,-1
 902 0 l 1,0,-1
559 689 m 0,19,20
 559 728 559 728 515.5 777 c 128,-1,21
 472 826 472 826 433 826 c 0,22,23
 413 826 413 826 395.5 812 c 128,-1,24
 378 798 378 798 378 779 c 0,25,26
 378 739 378 739 422.5 693 c 128,-1,27
 467 647 467 647 507 647 c 0,28,29
 559 647 559 647 559 689 c 0,19,20
EndSplineSet
EndChar

StartChar: afii57375
Encoding: 1619 1619 114
Width: 552
GlyphClass: 2
Flags: W
LayerCount: 2
Fore
SplineSet
554 1577 m 1,0,1
 495 1542 495 1542 404 1542 c 0,2,3
 366 1542 366 1542 294 1565 c 128,-1,4
 222 1588 222 1588 184 1588 c 0,5,6
 110 1588 110 1588 36 1551 c 1,7,-1
 36 1663 l 1,8,9
 95 1698 95 1698 186 1698 c 0,10,11
 224 1698 224 1698 296 1675 c 128,-1,12
 368 1652 368 1652 406 1652 c 0,13,14
 480 1652 480 1652 554 1689 c 1,15,-1
 554 1577 l 1,0,1
EndSplineSet
EndChar

StartChar: afii57391
Encoding: 59450 59450 115
Width: 1024
GlyphClass: 2
Flags: W
LayerCount: 2
Fore
SplineSet
1024 0 m 1,0,-1
 -70 0 l 1,1,-1
 -70 188 l 1,2,-1
 1024 188 l 1,3,-1
 1024 0 l 1,0,-1
EndSplineSet
EndChar

StartChar: afii57471
Encoding: 65553 -1 116
Width: 1938
Flags: W
LayerCount: 2
Fore
SplineSet
1940 0 m 1,0,-1
 1859 0 l 2,1,2
 1745 0 1745 0 1715 72 c 1,3,4
 1678 0 1678 0 1566 0 c 2,5,-1
 680 0 l 2,6,7
 403 0 403 0 255 165 c 0,8,9
 130 304 130 304 130 510 c 0,10,11
 130 597 130 597 169 714 c 0,12,13
 218 860 218 860 302 952 c 0,14,15
 343 997 343 997 360 997 c 0,16,17
 373 997 373 997 373 969 c 0,18,19
 373 952 373 952 369 919.5 c 128,-1,20
 365 887 365 887 365 870 c 0,21,22
 365 660 365 660 622 660 c 2,23,-1
 1490 660 l 2,24,25
 1505 660 1505 660 1505 682 c 0,26,27
 1505 696 1505 696 1478 756 c 0,28,29
 1466 783 1466 783 1440 830 c 0,30,31
 1424 853 1424 853 1450 882 c 2,32,-1
 1582 1026 l 2,33,34
 1598 1044 1598 1044 1611 1044 c 256,35,36
 1624 1044 1624 1044 1640 1024 c 0,37,38
 1706 941 1706 941 1726 733 c 2,39,-1
 1733 660 l 1,40,-1
 1940 660 l 1,41,-1
 1940 0 l 1,0,-1
EndSplineSet
EndChar

StartChar: afii52258
Encoding: 65554 -1 117
Width: 1912
GlyphClass: 2
Flags: W
LayerCount: 2
Fore
SplineSet
1912 0 m 1,0,-1
 1854 0 l 2,1,2
 1740 0 1740 0 1710 72 c 1,3,4
 1673 0 1673 0 1561 0 c 2,5,-1
 675 0 l 2,6,7
 398 0 398 0 253 165 c 0,8,9
 131 303 131 303 131 510 c 0,10,11
 131 593 131 593 174 718 c 0,12,13
 225 867 225 867 303 952 c 0,14,15
 344 997 344 997 361 997 c 0,16,17
 374 997 374 997 374 969 c 0,18,19
 374 952 374 952 370 919.5 c 128,-1,20
 366 887 366 887 366 870 c 0,21,22
 366 660 366 660 623 660 c 2,23,-1
 1231 659 l 1,24,25
 1187 714 1187 714 1187 781 c 0,26,27
 1187 871 1187 871 1290.5 969 c 128,-1,28
 1394 1067 1394 1067 1484 1067 c 0,29,30
 1566 1067 1566 1067 1635 992 c 0,31,32
 1735 883 1735 883 1738 660 c 1,33,-1
 1912 660 l 1,34,-1
 1912 0 l 1,0,-1
1569 689 m 0,35,36
 1569 728 1569 728 1525.5 777 c 128,-1,37
 1482 826 1482 826 1443 826 c 0,38,39
 1423 826 1423 826 1405.5 812 c 128,-1,40
 1388 798 1388 798 1388 779 c 0,41,42
 1388 739 1388 739 1432.5 693 c 128,-1,43
 1477 647 1477 647 1517 647 c 0,44,45
 1569 647 1569 647 1569 689 c 0,35,36
EndSplineSet
EndChar

StartChar: afii62889
Encoding: 65555 -1 123
Width: 1428
Flags: W
LayerCount: 2
Fore
SplineSet
1428 0 m 1,0,-1
 1359 0 l 2,1,2
 1277 0 1277 0 1221 82 c 1,3,-1
 1221 83 l 1,4,5
 1149 -136 1149 -136 994 -261 c 0,6,7
 831 -394 831 -394 607 -394 c 0,8,9
 379 -394 379 -394 254 -260 c 0,10,11
 133 -129 133 -129 133 100 c 0,12,13
 133 346 133 346 227 501 c 0,14,15
 256 549 256 549 275 549 c 0,16,17
 297 549 297 549 297 483 c 0,18,19
 297 285 297 285 386 121 c 0,20,21
 493 -77 493 -77 676 -77 c 0,22,23
 812 -77 812 -77 905 27 c 1,24,25
 832 6 832 6 769 6 c 0,26,27
 654 6 654 6 584 71.5 c 128,-1,28
 514 137 514 137 502 252 c 0,29,30
 494 326 494 326 549 512 c 0,31,32
 611 723 611 723 700 862 c 0,33,34
 812 1037 812 1037 933 1037 c 0,35,36
 1046 1037 1046 1037 1134 899 c 0,37,38
 1201 794 1201 794 1231 660 c 1,39,40
 1284 659 1284 659 1428 660 c 1,41,-1
 1428 0 l 1,0,-1
1041 623 m 1,42,43
 1041 688 1041 688 993 734 c 128,-1,44
 945 780 945 780 879 780 c 0,45,46
 862 780 862 780 847 776 c 0,47,48
 802 764 802 764 810 715 c 256,49,50
 818 666 818 666 871 637 c 0,51,52
 916 612 916 612 970 612 c 0,53,54
 1006 612 1006 612 1041 623 c 1,42,43
EndSplineSet
EndChar

StartChar: afii62887
Encoding: 65556 -1 124
Width: 1735
Flags: W
LayerCount: 2
Fore
SplineSet
1733 54 m 2,0,1
 1733 0 1733 0 1671 0 c 2,2,-1
 674 0 l 2,3,4
 397 0 397 0 252 165 c 0,5,6
 130 303 130 303 130 510 c 0,7,8
 130 597 130 597 169 714 c 0,9,10
 218 860 218 860 302 952 c 0,11,12
 343 997 343 997 360 997 c 0,13,14
 373 997 373 997 373 969 c 0,15,16
 373 952 373 952 369 919.5 c 128,-1,17
 365 887 365 887 365 870 c 0,18,19
 365 660 365 660 622 660 c 2,20,-1
 1490 660 l 2,21,22
 1505 660 1505 660 1505 682 c 0,23,24
 1505 696 1505 696 1478 756 c 0,25,26
 1466 783 1466 783 1440 830 c 0,27,28
 1424 853 1424 853 1450 882 c 2,29,-1
 1582 1026 l 2,30,31
 1598 1044 1598 1044 1611 1044 c 256,32,33
 1624 1044 1624 1044 1640 1024 c 0,34,35
 1707 941 1707 941 1726 733 c 2,36,-1
 1733 658 l 1,37,-1
 1733 54 l 2,0,1
EndSplineSet
EndChar

StartChar: afii62888
Encoding: 1697 1697 125
Width: 1747
GlyphClass: 2
Flags: W
LayerCount: 2
Fore
SplineSet
1747 65 m 2,0,1
 1747 0 1747 0 1672 0 c 2,2,-1
 675 0 l 2,3,4
 398 0 398 0 253 165 c 0,5,6
 131 303 131 303 131 510 c 0,7,8
 131 593 131 593 174 718 c 0,9,10
 225 867 225 867 303 952 c 0,11,12
 344 997 344 997 361 997 c 0,13,14
 374 997 374 997 374 969 c 0,15,16
 374 952 374 952 370 919.5 c 128,-1,17
 366 887 366 887 366 870 c 0,18,19
 366 660 366 660 623 660 c 2,20,-1
 1231 659 l 1,21,22
 1187 714 1187 714 1187 781 c 0,23,24
 1187 871 1187 871 1290.5 969 c 128,-1,25
 1394 1067 1394 1067 1484 1067 c 0,26,27
 1570 1067 1570 1067 1642 992 c 0,28,29
 1747 883 1747 883 1747 656 c 2,30,-1
 1747 65 l 2,0,1
1569 689 m 0,31,32
 1569 728 1569 728 1525.5 777 c 128,-1,33
 1482 826 1482 826 1443 826 c 0,34,35
 1423 826 1423 826 1405.5 812 c 128,-1,36
 1388 798 1388 798 1388 779 c 0,37,38
 1388 739 1388 739 1432.5 693 c 128,-1,39
 1477 647 1477 647 1517 647 c 0,40,41
 1569 647 1569 647 1569 689 c 0,31,32
EndSplineSet
Substitution2: "'medi' Medial Forms in Arabic lookup 3 subtable" afii57374
Substitution2: "'fina' Terminal Forms in Arabic lookup 2 subtable" afii52258
Substitution2: "'init' Initial Forms in Arabic lookup 1 subtable" afii57459
EndChar

StartChar: afii57507
Encoding: 1670 1670 126
Width: 1155
GlyphClass: 2
Flags: W
AnchorPoint: "Anchor-3" 630 -795 basechar 0
AnchorPoint: "Anchor-2" 690 1380 basechar 0
LayerCount: 2
Fore
SplineSet
1158 190 m 0,0,1
 1158 -31 1158 -31 1008 -218 c 0,2,3
 842 -425 842 -425 605 -425 c 0,4,5
 392 -425 392 -425 257 -270 c 0,6,7
 128 -123 128 -123 128 93 c 0,8,9
 128 368 128 368 307 575 c 0,10,11
 429 717 429 717 582 782 c 1,12,13
 550 812 550 812 482 812 c 0,14,15
 420 812 420 812 363 744 c 128,-1,16
 306 676 306 676 286 676 c 0,17,18
 221 676 221 676 221 776 c 0,19,20
 221 904 221 904 304 1002 c 0,21,22
 391 1105 391 1105 517 1105 c 0,23,24
 576 1105 576 1105 696.5 1062.5 c 128,-1,25
 817 1020 817 1020 877 1020 c 0,26,27
 916 1020 916 1020 989.5 1043.5 c 128,-1,28
 1063 1067 1063 1067 1089 1067 c 0,29,30
 1126 1067 1126 1067 1126 998 c 2,31,-1
 1126 526 l 2,32,33
 1126 487 1126 487 975 467 c 1,34,35
 882 460 882 460 790 452 c 0,36,37
 662 438 662 438 596 417 c 0,38,39
 485 376 485 376 462 278 c 1,40,41
 425 65 425 65 661 45 c 1,42,43
 781 45 781 45 865 102 c 0,44,45
 941 151 941 151 1026 324 c 1,46,47
 1074 381 1074 381 1108 381 c 0,48,49
 1158 381 1158 381 1158 190 c 0,0,1
788 164 m 2,50,51
 795 171 795 171 786 180 c 2,52,-1
 721 245 l 2,53,54
 714 253 714 253 707 245 c 2,55,-1
 640 180 l 2,56,57
 631 171 631 171 640 163 c 2,58,-1
 705 98 l 2,59,60
 709 93 709 93 713 93 c 256,61,62
 717 93 717 93 721 98 c 2,63,-1
 788 164 l 2,50,51
858 305 m 2,64,65
 865 312 865 312 856 322 c 2,66,-1
 788 391 l 2,67,68
 780 398 780 398 772 391 c 2,69,-1
 714 333 l 1,70,-1
 657 391 l 2,71,72
 650 398 650 398 642 391 c 2,73,-1
 572 321 l 2,74,75
 562 312 562 312 572 303 c 2,76,-1
 640 234 l 2,77,78
 649 226 649 226 658 234 c 2,79,-1
 714 291 l 1,80,-1
 770 234 l 2,81,82
 774 230 774 230 779 230 c 256,83,84
 784 230 784 230 788 234 c 2,85,-1
 858 305 l 2,64,65
EndSplineSet
Substitution2: "'medi' Medial Forms in Arabic lookup 3 subtable" afii62960
Substitution2: "'fina' Terminal Forms in Arabic lookup 2 subtable" afii62961
Substitution2: "'init' Initial Forms in Arabic lookup 1 subtable" afii62959
EndChar

StartChar: afii62961
Encoding: 64379 64379 127
Width: 1280
GlyphClass: 2
Flags: W
AnchorPoint: "Anchor-3" 645 -810 basechar 0
AnchorPoint: "Anchor-2" 705 1365 basechar 0
LayerCount: 2
Fore
SplineSet
1295 0 m 1,0,-1
 1161 0 l 2,1,2
 1049 0 1049 0 1002 88 c 2,3,-1
 741 573 l 1,4,5
 512 468 512 468 482 292 c 0,6,7
 452 121 452 121 584.5 25.5 c 128,-1,8
 717 -70 717 -70 1022 -34 c 1,9,10
 1091 -34 1091 -34 1091 -48 c 0,11,12
 1091 -58 1091 -58 1062 -113 c 0,13,14
 991 -249 991 -249 875 -333 c 0,15,16
 749 -425 749 -425 605 -425 c 0,17,18
 392 -425 392 -425 257 -270 c 0,19,20
 128 -123 128 -123 128 93 c 0,21,22
 128 368 128 368 307 575 c 0,23,24
 429 717 429 717 582 782 c 1,25,26
 550 812 550 812 482 812 c 0,27,28
 420 812 420 812 363 744 c 128,-1,29
 306 676 306 676 286 676 c 0,30,31
 221 676 221 676 221 776 c 0,32,33
 221 904 221 904 304 1002 c 0,34,35
 391 1105 391 1105 517 1105 c 0,36,37
 576 1105 576 1105 696.5 1062.5 c 128,-1,38
 817 1020 817 1020 877 1020 c 0,39,40
 916 1020 916 1020 989.5 1043.5 c 128,-1,41
 1063 1067 1063 1067 1089 1067 c 0,42,43
 1126 1067 1126 1067 1126 998 c 2,44,-1
 1126 746 l 2,45,46
 1126 725 1126 725 1053 704 c 0,47,48
 949 674 949 674 921 660 c 1,49,-1
 1295 660 l 1,50,-1
 1295 0 l 1,0,-1
768 108 m 2,51,52
 776 115 776 115 766 124 c 2,53,-1
 699 191 l 2,54,55
 691 199 691 199 684 191 c 2,56,-1
 615 124 l 2,57,58
 606 115 606 115 615 106 c 2,59,-1
 682 39 l 2,60,61
 687 34 687 34 691 34 c 256,62,63
 695 34 695 34 699 39 c 2,64,-1
 768 108 l 2,51,52
841 253 m 2,65,66
 848 260 848 260 838 270 c 2,67,-1
 768 341 l 2,68,69
 760 349 760 349 752 341 c 2,70,-1
 692 282 l 1,71,-1
 633 341 l 2,72,73
 626 349 626 349 618 341 c 2,74,-1
 545 270 l 2,75,76
 535 260 535 260 545 251 c 2,77,-1
 615 180 l 2,78,79
 624 171 624 171 633 180 c 2,80,-1
 692 239 l 1,81,-1
 749 180 l 2,82,83
 754 176 754 176 759 176 c 256,84,85
 764 176 764 176 768 180 c 2,86,-1
 841 253 l 2,65,66
EndSplineSet
EndChar

StartChar: afii57567
Encoding: 1705 1705 132
Width: 1699
GlyphClass: 2
Flags: W
AnchorPoint: "Anchor-3" 810 -450 basechar 0
AnchorPoint: "Anchor-2" 675 1410 basechar 0
LayerCount: 2
Fore
SplineSet
1695 620 m 1,0,-1
 1585 45 l 2,1,2
 1576 0 1576 0 1522 0 c 2,3,-1
 675 0 l 2,4,5
 398 0 398 0 253 165 c 0,6,7
 131 303 131 303 131 510 c 0,8,9
 131 593 131 593 174 718 c 0,10,11
 225 867 225 867 303 952 c 0,12,13
 344 997 344 997 361 997 c 0,14,15
 374 997 374 997 374 969 c 0,16,17
 374 952 374 952 370 919.5 c 128,-1,18
 366 887 366 887 366 870 c 0,19,20
 366 660 366 660 623 660 c 2,21,-1
 1118 660 l 1,22,23
 1082 684 1082 684 933 768 c 0,24,25
 901 786 901 786 901 848 c 2,26,-1
 901 1166 l 2,27,28
 901 1212 901 1212 943 1233 c 0,29,30
 1045 1284 1045 1284 1204 1347 c 0,31,32
 1441 1441 1441 1441 1530 1441 c 0,33,34
 1599 1441 1599 1441 1621.5 1416.5 c 128,-1,35
 1644 1392 1644 1392 1644 1322 c 0,36,37
 1644 1251 1644 1251 1624 1171 c 0,38,39
 1600 1075 1600 1075 1568 1075 c 0,40,41
 1562 1075 1562 1075 1526 1094 c 128,-1,42
 1490 1113 1490 1113 1470 1113 c 0,43,44
 1459 1113 1459 1113 1444 1108 c 0,45,46
 1335 1071 1335 1071 1158 999 c 0,47,48
 1141 992 1141 992 1141 978 c 0,49,50
 1141 965 1141 965 1158 957 c 0,51,52
 1325 877 1325 877 1502 770 c 0,53,54
 1695 653 1695 653 1695 620 c 1,0,-1
EndSplineSet
Substitution2: "'medi' Medial Forms in Arabic lookup 3 subtable" afii52306
Substitution2: "'fina' Terminal Forms in Arabic lookup 2 subtable" afii62964
Substitution2: "'init' Initial Forms in Arabic lookup 1 subtable" afii52305
EndChar

StartChar: afii62964
Encoding: 64399 64399 133
Width: 1829
GlyphClass: 2
Flags: W
AnchorPoint: "Anchor-3" 840 -465 basechar 0
AnchorPoint: "Anchor-2" 645 1335 basechar 0
LayerCount: 2
Fore
SplineSet
1829 0 m 1,0,-1
 1771 0 l 2,1,2
 1657 0 1657 0 1627 72 c 1,3,4
 1590 0 1590 0 1478 0 c 2,5,-1
 675 0 l 2,6,7
 398 0 398 0 253 165 c 0,8,9
 131 303 131 303 131 510 c 0,10,11
 131 593 131 593 174 718 c 0,12,13
 225 867 225 867 303 952 c 0,14,15
 344 997 344 997 361 997 c 0,16,17
 374 997 374 997 374 969 c 0,18,19
 374 952 374 952 370 919.5 c 128,-1,20
 366 887 366 887 366 870 c 0,21,22
 366 660 366 660 623 660 c 2,23,-1
 1118 660 l 1,24,25
 1082 684 1082 684 933 768 c 0,26,27
 901 786 901 786 901 848 c 2,28,-1
 901 1166 l 2,29,30
 901 1212 901 1212 943 1233 c 0,31,32
 1045 1284 1045 1284 1204 1347 c 0,33,34
 1441 1441 1441 1441 1530 1441 c 0,35,36
 1599 1441 1599 1441 1621.5 1416.5 c 128,-1,37
 1644 1392 1644 1392 1644 1322 c 0,38,39
 1644 1251 1644 1251 1624 1171 c 0,40,41
 1600 1075 1600 1075 1568 1075 c 0,42,43
 1562 1075 1562 1075 1526 1094 c 128,-1,44
 1490 1113 1490 1113 1470 1113 c 0,45,46
 1459 1113 1459 1113 1444 1108 c 0,47,48
 1335 1071 1335 1071 1158 999 c 0,49,50
 1141 992 1141 992 1141 978 c 0,51,52
 1141 965 1141 965 1158 957 c 0,53,54
 1256 911 1256 911 1419 817 c 0,55,56
 1630 696 1630 696 1645 660 c 1,57,-1
 1829 660 l 1,58,-1
 1829 0 l 1,0,-1
EndSplineSet
EndChar

StartChar: afii52305
Encoding: 64400 64400 134
Width: 1035
GlyphClass: 2
Flags: W
AnchorPoint: "Anchor-3" 285 -495 basechar 0
AnchorPoint: "Anchor-2" 435 1515 basechar 0
LayerCount: 2
Fore
SplineSet
1035 620 m 1,0,-1
 925 45 l 2,1,2
 916 0 916 0 862 0 c 2,3,-1
 -80 0 l 1,4,-1
 -80 660 l 1,5,-1
 458 660 l 1,6,7
 422 684 422 684 273 768 c 0,8,9
 241 786 241 786 241 848 c 2,10,-1
 241 1166 l 2,11,12
 241 1212 241 1212 283 1233 c 0,13,14
 385 1284 385 1284 544 1347 c 0,15,16
 781 1441 781 1441 870 1441 c 0,17,18
 939 1441 939 1441 961.5 1416.5 c 128,-1,19
 984 1392 984 1392 984 1322 c 0,20,21
 984 1251 984 1251 964 1171 c 0,22,23
 940 1075 940 1075 908 1075 c 0,24,25
 902 1075 902 1075 866 1094 c 128,-1,26
 830 1113 830 1113 810 1113 c 0,27,28
 799 1113 799 1113 784 1108 c 0,29,30
 675 1071 675 1071 498 999 c 0,31,32
 481 992 481 992 481 978 c 0,33,34
 481 965 481 965 498 957 c 0,35,36
 665 877 665 877 842 770 c 0,37,38
 1035 653 1035 653 1035 620 c 1,0,-1
EndSplineSet
EndChar

StartChar: afii52306
Encoding: 64401 64401 135
Width: 1179
GlyphClass: 2
Flags: W
AnchorPoint: "Anchor-3" 390 -495 basechar 0
AnchorPoint: "Anchor-2" 315 1485 basechar 0
LayerCount: 2
Fore
SplineSet
1179 0 m 1,0,-1
 1121 0 l 2,1,2
 1007 0 1007 0 977 72 c 1,3,4
 940 0 940 0 828 0 c 2,5,-1
 -80 0 l 1,6,-1
 -80 660 l 1,7,-1
 468 660 l 1,8,9
 432 684 432 684 283 768 c 0,10,11
 251 786 251 786 251 848 c 2,12,-1
 251 1166 l 2,13,14
 251 1212 251 1212 293 1233 c 0,15,16
 395 1284 395 1284 554 1347 c 0,17,18
 791 1441 791 1441 880 1441 c 0,19,20
 949 1441 949 1441 971.5 1416.5 c 128,-1,21
 994 1392 994 1392 994 1322 c 0,22,23
 994 1251 994 1251 974 1171 c 0,24,25
 950 1075 950 1075 918 1075 c 0,26,27
 912 1075 912 1075 876 1094 c 128,-1,28
 840 1113 840 1113 820 1113 c 0,29,30
 809 1113 809 1113 794 1108 c 0,31,32
 685 1071 685 1071 508 999 c 0,33,34
 491 992 491 992 491 978 c 0,35,36
 491 965 491 965 508 957 c 0,37,38
 606 911 606 911 769 817 c 0,39,40
 980 696 980 696 995 660 c 1,41,-1
 1179 660 l 1,42,-1
 1179 0 l 1,0,-1
EndSplineSet
EndChar

StartChar: afii57509
Encoding: 1711 1711 136
Width: 1699
GlyphClass: 2
Flags: W
AnchorPoint: "Anchor-3" 825 -435 basechar 0
AnchorPoint: "Anchor-2" 630 1440 basechar 0
LayerCount: 2
Fore
SplineSet
1516 1528 m 1,0,1
 1211 1470 1211 1470 892 1312 c 1,2,-1
 892 1408 l 1,3,4
 1149 1545 1149 1545 1516 1625 c 1,5,-1
 1516 1528 l 1,0,1
1695 620 m 1,6,-1
 1585 45 l 2,7,8
 1576 0 1576 0 1522 0 c 2,9,-1
 675 0 l 2,10,11
 398 0 398 0 253 165 c 0,12,13
 131 303 131 303 131 510 c 0,14,15
 131 593 131 593 174 718 c 0,16,17
 225 867 225 867 303 952 c 0,18,19
 344 997 344 997 361 997 c 0,20,21
 374 997 374 997 374 969 c 0,22,23
 374 952 374 952 370 919.5 c 128,-1,24
 366 887 366 887 366 870 c 0,25,26
 366 660 366 660 623 660 c 2,27,-1
 1118 660 l 1,28,29
 1082 684 1082 684 933 768 c 0,30,31
 901 786 901 786 901 848 c 2,32,-1
 901 1166 l 2,33,34
 901 1212 901 1212 943 1233 c 0,35,36
 1045 1284 1045 1284 1204 1347 c 0,37,38
 1441 1441 1441 1441 1530 1441 c 0,39,40
 1599 1441 1599 1441 1621.5 1416.5 c 128,-1,41
 1644 1392 1644 1392 1644 1322 c 0,42,43
 1644 1251 1644 1251 1624 1171 c 0,44,45
 1600 1075 1600 1075 1568 1075 c 0,46,47
 1562 1075 1562 1075 1526 1094 c 128,-1,48
 1490 1113 1490 1113 1470 1113 c 0,49,50
 1459 1113 1459 1113 1444 1108 c 0,51,52
 1335 1071 1335 1071 1158 999 c 0,53,54
 1141 992 1141 992 1141 978 c 0,55,56
 1141 965 1141 965 1158 957 c 0,57,58
 1325 877 1325 877 1502 770 c 0,59,60
 1695 653 1695 653 1695 620 c 1,6,-1
EndSplineSet
Substitution2: "'medi' Medial Forms in Arabic lookup 3 subtable" afii62966
Substitution2: "'fina' Terminal Forms in Arabic lookup 2 subtable" afii62967
Substitution2: "'init' Initial Forms in Arabic lookup 1 subtable" afii62965
EndChar

StartChar: afii62967
Encoding: 64403 64403 137
Width: 1829
GlyphClass: 2
Flags: W
AnchorPoint: "Anchor-3" 795 -450 basechar 0
AnchorPoint: "Anchor-2" 600 1455 basechar 0
LayerCount: 2
Fore
SplineSet
1516 1528 m 1,0,1
 1211 1470 1211 1470 892 1312 c 1,2,-1
 892 1408 l 1,3,4
 1149 1545 1149 1545 1516 1625 c 1,5,-1
 1516 1528 l 1,0,1
1829 0 m 1,6,-1
 1771 0 l 2,7,8
 1657 0 1657 0 1627 72 c 1,9,10
 1590 0 1590 0 1478 0 c 2,11,-1
 675 0 l 2,12,13
 398 0 398 0 253 165 c 0,14,15
 131 303 131 303 131 510 c 0,16,17
 131 593 131 593 174 718 c 0,18,19
 225 867 225 867 303 952 c 0,20,21
 344 997 344 997 361 997 c 0,22,23
 374 997 374 997 374 969 c 0,24,25
 374 952 374 952 370 919.5 c 128,-1,26
 366 887 366 887 366 870 c 0,27,28
 366 660 366 660 623 660 c 2,29,-1
 1118 660 l 1,30,31
 1082 684 1082 684 933 768 c 0,32,33
 901 786 901 786 901 848 c 2,34,-1
 901 1166 l 2,35,36
 901 1212 901 1212 943 1233 c 0,37,38
 1045 1284 1045 1284 1204 1347 c 0,39,40
 1441 1441 1441 1441 1530 1441 c 0,41,42
 1599 1441 1599 1441 1621.5 1416.5 c 128,-1,43
 1644 1392 1644 1392 1644 1322 c 0,44,45
 1644 1251 1644 1251 1624 1171 c 0,46,47
 1600 1075 1600 1075 1568 1075 c 0,48,49
 1562 1075 1562 1075 1526 1094 c 128,-1,50
 1490 1113 1490 1113 1470 1113 c 0,51,52
 1459 1113 1459 1113 1444 1108 c 0,53,54
 1335 1071 1335 1071 1158 999 c 0,55,56
 1141 992 1141 992 1141 978 c 0,57,58
 1141 965 1141 965 1158 957 c 0,59,60
 1256 911 1256 911 1419 817 c 0,61,62
 1630 696 1630 696 1645 660 c 1,63,-1
 1829 660 l 1,64,-1
 1829 0 l 1,6,-1
EndSplineSet
EndChar

StartChar: afii62965
Encoding: 64404 64404 138
Width: 1035
GlyphClass: 2
Flags: W
AnchorPoint: "Anchor-3" 375 -420 basechar 0
AnchorPoint: "Anchor-2" 315 1635 basechar 0
LayerCount: 2
Fore
SplineSet
856 1528 m 1,0,1
 551 1470 551 1470 232 1312 c 1,2,-1
 232 1408 l 1,3,4
 489 1545 489 1545 856 1625 c 1,5,-1
 856 1528 l 1,0,1
1035 620 m 1,6,-1
 925 45 l 2,7,8
 916 0 916 0 862 0 c 2,9,-1
 -80 0 l 1,10,-1
 -80 660 l 1,11,-1
 458 660 l 1,12,13
 422 684 422 684 273 768 c 0,14,15
 241 786 241 786 241 848 c 2,16,-1
 241 1166 l 2,17,18
 241 1212 241 1212 283 1233 c 0,19,20
 385 1284 385 1284 544 1347 c 0,21,22
 781 1441 781 1441 870 1441 c 0,23,24
 939 1441 939 1441 961.5 1416.5 c 128,-1,25
 984 1392 984 1392 984 1322 c 0,26,27
 984 1251 984 1251 964 1171 c 0,28,29
 940 1075 940 1075 908 1075 c 0,30,31
 902 1075 902 1075 866 1094 c 128,-1,32
 830 1113 830 1113 810 1113 c 0,33,34
 799 1113 799 1113 784 1108 c 0,35,36
 675 1071 675 1071 498 999 c 0,37,38
 481 992 481 992 481 978 c 0,39,40
 481 965 481 965 498 957 c 0,41,42
 665 877 665 877 842 770 c 0,43,44
 1035 653 1035 653 1035 620 c 1,6,-1
EndSplineSet
EndChar

StartChar: afii62966
Encoding: 64405 64405 139
Width: 1179
GlyphClass: 2
Flags: W
AnchorPoint: "Anchor-3" 420 -495 basechar 0
AnchorPoint: "Anchor-2" 375 1635 basechar 0
LayerCount: 2
Fore
SplineSet
866 1528 m 1,0,1
 561 1470 561 1470 242 1312 c 1,2,-1
 242 1408 l 1,3,4
 499 1545 499 1545 866 1625 c 1,5,-1
 866 1528 l 1,0,1
1179 0 m 1,6,-1
 1121 0 l 2,7,8
 1007 0 1007 0 977 72 c 1,9,10
 940 0 940 0 828 0 c 2,11,-1
 -80 0 l 1,12,-1
 -80 660 l 1,13,-1
 468 660 l 1,14,15
 432 684 432 684 283 768 c 0,16,17
 251 786 251 786 251 848 c 2,18,-1
 251 1166 l 2,19,20
 251 1212 251 1212 293 1233 c 0,21,22
 395 1284 395 1284 554 1347 c 0,23,24
 791 1441 791 1441 880 1441 c 0,25,26
 949 1441 949 1441 971.5 1416.5 c 128,-1,27
 994 1392 994 1392 994 1322 c 0,28,29
 994 1251 994 1251 974 1171 c 0,30,31
 950 1075 950 1075 918 1075 c 0,32,33
 912 1075 912 1075 876 1094 c 128,-1,34
 840 1113 840 1113 820 1113 c 0,35,36
 809 1113 809 1113 794 1108 c 0,37,38
 685 1071 685 1071 508 999 c 0,39,40
 491 992 491 992 491 978 c 0,41,42
 491 965 491 965 508 957 c 0,43,44
 606 911 606 911 769 817 c 0,45,46
 980 696 980 696 995 660 c 1,47,-1
 1179 660 l 1,48,-1
 1179 0 l 1,6,-1
EndSplineSet
EndChar

StartChar: afii57555
Encoding: 1740 1740 140
Width: 1503
GlyphClass: 2
Flags: W
AnchorPoint: "Anchor-3" 690 -810 basechar 0
AnchorPoint: "Anchor-2" 555 960 basechar 0
LayerCount: 2
Fore
SplineSet
1503 303 m 0,0,1
 1503 170 1503 170 1399 6 c 0,2,3
 1284 -175 1284 -175 1096 -290 c 0,4,5
 875 -425 875 -425 612 -425 c 0,6,7
 360 -425 360 -425 233 -288 c 0,8,9
 130 -176 130 -176 130 -7 c 0,10,11
 130 78 130 78 194 246 c 0,12,13
 267 436 267 436 334 436 c 0,14,15
 362 436 362 436 362 367 c 0,16,17
 362 339 362 339 357 313 c 0,18,19
 346 255 346 255 346 204 c 0,20,21
 346 45 346 45 447 -38 c 0,22,23
 540 -115 540 -115 702 -115 c 0,24,25
 799 -115 799 -115 876 -98 c 0,26,27
 997 -71 997 -71 997 -13 c 0,28,29
 997 34 997 34 888 53 c 0,30,31
 731 81 731 81 687 102 c 0,32,33
 578 155 578 155 578 283 c 0,34,35
 578 399 578 399 735 616 c 0,36,37
 862 792 862 792 986 903 c 0,38,39
 1166 1065 1166 1065 1295 1065 c 0,40,41
 1480 1065 1480 1065 1480 835 c 0,42,43
 1480 790 1480 790 1465 743 c 0,44,45
 1445 679 1445 679 1411 679 c 0,46,47
 1399 679 1399 679 1350.5 701 c 128,-1,48
 1302 723 1302 723 1273 723 c 0,49,50
 1231 723 1231 723 1186 707 c 0,51,52
 1128 686 1128 686 1128 653 c 256,53,54
 1128 620 1128 620 1225 572 c 0,55,56
 1366 502 1366 502 1406 472 c 0,57,58
 1503 398 1503 398 1503 303 c 0,0,1
EndSplineSet
Substitution2: "'medi' Medial Forms in Arabic lookup 3 subtable" afii62832
Substitution2: "'fina' Terminal Forms in Arabic lookup 2 subtable" afii52364
Substitution2: "'init' Initial Forms in Arabic lookup 1 subtable" uniFBFE
EndChar

StartChar: afii52364
Encoding: 64509 64509 141
Width: 1611
GlyphClass: 2
Flags: W
AnchorPoint: "Anchor-3" 660 -825 basechar 0
AnchorPoint: "Anchor-2" 660 945 basechar 0
LayerCount: 2
Fore
SplineSet
1611 1 m 1,0,-1
 1490 1 l 2,1,2
 1420 1 1420 1 1378 56 c 0,3,4
 1355 86 1355 86 1326 98 c 1,5,6
 1327 82 1327 82 1327 66 c 0,7,8
 1327 -175 1327 -175 1062 -310 c 0,9,10
 849 -420 849 -420 584 -420 c 0,11,12
 383 -420 383 -420 258 -306 c 0,13,14
 128 -189 128 -189 128 11 c 0,15,16
 128 140 128 140 219 350 c 0,17,18
 325 595 325 595 441 595 c 0,19,20
 459 595 459 595 459 561 c 0,21,22
 459 528 459 528 443 472 c 0,23,24
 417 382 417 382 417 304 c 0,25,26
 417 149 417 149 508 64 c 128,-1,27
 599 -21 599 -21 755 -21 c 0,28,29
 906 -21 906 -21 976 21 c 1,30,31
 888 123 888 123 626 237 c 1,32,33
 599 254 599 254 620 290 c 2,34,-1
 818 638 l 2,35,36
 831 660 831 660 858 660 c 2,37,-1
 1611 660 l 1,38,-1
 1611 1 l 1,0,-1
EndSplineSet
EndChar

StartChar: afii62945
Encoding: 65557 -1 147
Width: 2128
GlyphClass: 3
Flags: W
LayerCount: 2
Fore
SplineSet
2103 1143 m 2,0,1
 2107 1131 2107 1131 2106 1121 c 0,2,3
 2105 1106 2105 1106 2095 1097 c 2,4,-1
 2049 1054 l 2,5,6
 2039 1045 2039 1045 2043 1022 c 2,7,-1
 2102 659 l 1,8,-1
 2101 45 l 2,9,10
 2101 0 2101 0 2041 0 c 2,11,-1
 961 0 l 2,12,13
 846 0 846 0 754 101 c 0,14,15
 671 193 671 193 671 280 c 1,16,17
 653 245 653 245 544 102 c 0,18,19
 521 72 521 72 488 94 c 2,20,-1
 144 317 l 2,21,22
 136 322 136 322 134 340 c 256,23,24
 132 358 132 358 140 373 c 0,25,26
 212 510 212 510 289 641 c 1,27,28
 305 659 305 659 621 910 c 1,29,-1
 621 946 l 2,30,31
 621 970 621 970 633 977 c 2,32,-1
 772 1058 l 2,33,34
 793 1070 793 1070 795 1044 c 0,35,36
 803 928 803 928 822 778 c 0,37,38
 837 660 837 660 953 660 c 2,39,-1
 1239 659 l 1,40,-1
 1135 1027 l 2,41,42
 1125 1063 1125 1063 1157 1086 c 2,43,-1
 1389 1253 l 2,44,45
 1403 1263 1403 1263 1419 1259 c 256,46,47
 1435 1255 1435 1255 1440 1238 c 2,48,-1
 1525 659 l 1,49,-1
 1737 659 l 2,50,51
 1800 659 1800 659 1800 702 c 0,52,53
 1800 709 1800 709 1799 715 c 2,54,-1
 1720 1172 l 2,55,56
 1713 1210 1713 1210 1742 1231 c 2,57,-1
 1974 1398 l 2,58,59
 1989 1409 1989 1409 2000 1409 c 0,60,61
 2017 1409 2017 1409 2025 1383 c 2,62,-1
 2103 1143 l 2,0,1
635 546 m 1,63,-1
 635 734 l 1,64,-1
 470 572 l 1,65,-1
 590 489 l 1,66,-1
 635 546 l 1,63,-1
EndSplineSet
EndChar

StartChar: afii64184
Encoding: 65010 65010 148
Width: 2128
GlyphClass: 3
Flags: W
AnchorPoint: "Anchor-1" 1965 -390 baselig 0
AnchorPoint: "Anchor-0" 1875 1560 baselig 0
AnchorPoint: "Anchor-1" 1365 -330 baselig 1
AnchorPoint: "Anchor-0" 1260 1320 baselig 1
AnchorPoint: "Anchor-1" 555 -360 baselig 2
AnchorPoint: "Anchor-0" 450 1125 baselig 2
LayerCount: 2
Fore
SplineSet
1317 1548 m 1,0,-1
 1234 1548 l 1,1,-1
 1234 1768 l 2,2,3
 1234 1785 1234 1785 1251 1785 c 0,4,5
 1272 1785 1272 1785 1294.5 1767 c 128,-1,6
 1317 1749 1317 1749 1317 1728 c 2,7,-1
 1317 1548 l 1,0,-1
1485 1480 m 1,8,9
 1488 1434 1488 1434 1467 1378 c 0,10,11
 1457 1352 1457 1352 1423 1329.5 c 128,-1,12
 1389 1307 1389 1307 1361 1307 c 0,13,14
 1259 1307 1259 1307 1237 1346 c 1,15,16
 1208 1301 1208 1301 1110 1301 c 0,17,18
 1025 1301 1025 1301 1025 1377 c 0,19,20
 1025 1449 1025 1449 1085 1480 c 1,21,-1
 1148 1480 l 1,22,23
 1124 1456 1124 1456 1124 1430 c 0,24,25
 1124 1395 1124 1395 1163 1395 c 0,26,27
 1191 1395 1191 1395 1215.5 1423 c 128,-1,28
 1240 1451 1240 1451 1243 1480 c 1,29,-1
 1317 1480 l 1,30,31
 1297 1457 1297 1457 1297 1433 c 0,32,33
 1297 1403 1297 1403 1332 1403 c 0,34,35
 1379 1403 1379 1403 1409 1480 c 1,36,-1
 1485 1480 l 1,8,9
2103 1143 m 2,37,38
 2107 1131 2107 1131 2106 1121 c 0,39,40
 2105 1106 2105 1106 2095 1097 c 2,41,-1
 2049 1054 l 2,42,43
 2039 1045 2039 1045 2043 1022 c 2,44,-1
 2102 659 l 1,45,-1
 2101 45 l 2,46,47
 2101 0 2101 0 2041 0 c 2,48,-1
 961 0 l 2,49,50
 846 0 846 0 754 101 c 0,51,52
 671 193 671 193 671 280 c 1,53,54
 653 245 653 245 544 102 c 0,55,56
 521 72 521 72 488 94 c 2,57,-1
 144 317 l 2,58,59
 136 322 136 322 134 340 c 256,60,61
 132 358 132 358 140 373 c 0,62,63
 212 510 212 510 289 641 c 1,64,65
 305 659 305 659 621 910 c 1,66,-1
 621 946 l 2,67,68
 621 970 621 970 633 977 c 2,69,-1
 772 1058 l 2,70,71
 793 1070 793 1070 795 1044 c 0,72,73
 803 928 803 928 822 778 c 0,74,75
 837 660 837 660 953 660 c 2,76,-1
 1239 659 l 1,77,-1
 1135 1027 l 2,78,79
 1125 1063 1125 1063 1157 1086 c 2,80,-1
 1389 1253 l 2,81,82
 1403 1263 1403 1263 1419 1259 c 256,83,84
 1435 1255 1435 1255 1440 1238 c 2,85,-1
 1525 659 l 1,86,-1
 1737 659 l 2,87,88
 1800 659 1800 659 1800 702 c 0,89,90
 1800 709 1800 709 1799 715 c 2,91,-1
 1720 1172 l 2,92,93
 1713 1210 1713 1210 1742 1231 c 2,94,-1
 1974 1398 l 2,95,96
 1989 1409 1989 1409 2000 1409 c 0,97,98
 2017 1409 2017 1409 2025 1383 c 2,99,-1
 2103 1143 l 2,37,38
635 546 m 1,100,-1
 635 734 l 1,101,-1
 470 572 l 1,102,-1
 590 489 l 1,103,-1
 635 546 l 1,100,-1
EndSplineSet
Ligature2: "'rlig' Required Ligatures in Arabic lookup 5 subtable" afii62817 afii62818 uniFC63 afii62828
Ligature2: "'rlig' Required Ligatures in Arabic lookup 5 subtable" afii62817 afii62818 afii57457 uni0670 afii62828
EndChar

StartChar: afii57415.001
Encoding: 1575 1575 162
Width: 552
GlyphClass: 2
Flags: W
AnchorPoint: "Anchor-3" 270 -420 basechar 0
AnchorPoint: "Anchor-2" 315 1575 basechar 0
LayerCount: 2
Fore
SplineSet
548 1111 m 2,0,1
 552 1090 552 1090 538 1077 c 2,2,-1
 477 1039 l 1,3,4
 458 1022 458 1022 458 999 c 0,5,6
 462 571 462 571 453 428 c 0,7,8
 451 383 451 383 445 292 c 0,9,10
 436 187 436 187 409 164 c 2,11,-1
 231 12 l 2,12,13
 209 -7 209 -7 208 15 c 2,14,-1
 135 1252 l 2,15,16
 129 1347 129 1347 203 1376 c 2,17,-1
 413 1460 l 2,18,19
 436 1469 436 1469 448 1469 c 0,20,21
 478 1469 478 1469 487 1424 c 2,22,-1
 548 1111 l 2,0,1
EndSplineSet
Substitution2: "'fina' Terminal Forms in Arabic lookup 2 subtable" afii62760
EndChar

StartChar: afii62760.001
Encoding: 65558 -1 163
Width: 640
GlyphClass: 2
Flags: W
LayerCount: 2
Fore
SplineSet
640 0 m 1,0,-1
 298 0 l 2,1,2
 216 0 216 0 173 59 c 0,3,4
 134 112 134 112 134 196 c 2,5,-1
 134 1307 l 2,6,7
 134 1370 134 1370 183 1390 c 2,8,-1
 368 1466 l 2,9,10
 400 1479 400 1479 413 1479 c 0,11,12
 438 1479 438 1479 438 1419 c 2,13,-1
 438 705 l 2,14,15
 438 660 438 660 475 660 c 2,16,-1
 640 660 l 1,17,-1
 640 0 l 1,0,-1
EndSplineSet
EndChar

StartChar: afii57421
Encoding: 1581 1581 182
Width: 1155
GlyphClass: 2
Flags: W
AnchorPoint: "Anchor-3" 690 -810 basechar 0
AnchorPoint: "Anchor-2" 645 1380 basechar 0
LayerCount: 2
Fore
SplineSet
1158 190 m 0,0,1
 1158 -31 1158 -31 1008 -218 c 0,2,3
 842 -425 842 -425 605 -425 c 0,4,5
 392 -425 392 -425 257 -270 c 0,6,7
 128 -123 128 -123 128 93 c 0,8,9
 128 368 128 368 307 575 c 0,10,11
 429 717 429 717 582 782 c 1,12,13
 550 812 550 812 482 812 c 0,14,15
 420 812 420 812 363 744 c 128,-1,16
 306 676 306 676 286 676 c 0,17,18
 221 676 221 676 221 776 c 0,19,20
 221 904 221 904 304 1002 c 0,21,22
 391 1105 391 1105 517 1105 c 0,23,24
 576 1105 576 1105 696.5 1062.5 c 128,-1,25
 817 1020 817 1020 877 1020 c 0,26,27
 916 1020 916 1020 989.5 1043.5 c 128,-1,28
 1063 1067 1063 1067 1089 1067 c 0,29,30
 1126 1067 1126 1067 1126 998 c 2,31,-1
 1126 526 l 2,32,33
 1126 487 1126 487 975 467 c 1,34,35
 882 460 882 460 790 452 c 0,36,37
 662 438 662 438 605 417 c 0,38,39
 494 376 494 376 494 286 c 0,40,41
 494 224 494 224 571 189 c 0,42,43
 631 162 631 162 700 162 c 0,44,45
 813 162 813 162 904 219 c 0,46,47
 951 249 951 249 1026 325 c 0,48,49
 1082 382 1082 382 1108 382 c 0,50,51
 1158 382 1158 382 1158 190 c 0,0,1
EndSplineSet
Substitution2: "'medi' Medial Forms in Arabic lookup 3 subtable" afii62775
Substitution2: "'fina' Terminal Forms in Arabic lookup 2 subtable" afii62776
Substitution2: "'init' Initial Forms in Arabic lookup 1 subtable" afii62774
EndChar

StartChar: afii62776
Encoding: 65186 65186 183
Width: 1280
GlyphClass: 2
Flags: W
AnchorPoint: "Anchor-3" 630 -825 basechar 0
AnchorPoint: "Anchor-2" 675 1335 basechar 0
LayerCount: 2
Fore
SplineSet
1295 0 m 1,0,-1
 1161 0 l 2,1,2
 1049 0 1049 0 1002 88 c 2,3,-1
 741 573 l 1,4,5
 562 468 562 468 562 292 c 0,6,7
 562 121 562 121 709 23 c 1,8,9
 849 -37 849 -37 1022 -34 c 0,10,11
 1091 -34 1091 -34 1091 -48 c 0,12,13
 1091 -58 1091 -58 1062 -113 c 0,14,15
 991 -249 991 -249 875 -333 c 0,16,17
 749 -425 749 -425 605 -425 c 0,18,19
 392 -425 392 -425 257 -270 c 0,20,21
 128 -123 128 -123 128 93 c 0,22,23
 128 368 128 368 307 575 c 0,24,25
 429 717 429 717 582 782 c 1,26,27
 550 812 550 812 482 812 c 0,28,29
 420 812 420 812 363 744 c 128,-1,30
 306 676 306 676 286 676 c 0,31,32
 221 676 221 676 221 776 c 0,33,34
 221 904 221 904 304 1002 c 0,35,36
 391 1105 391 1105 517 1105 c 0,37,38
 576 1105 576 1105 696.5 1062.5 c 128,-1,39
 817 1020 817 1020 877 1020 c 0,40,41
 916 1020 916 1020 989.5 1043.5 c 128,-1,42
 1063 1067 1063 1067 1089 1067 c 0,43,44
 1126 1067 1126 1067 1126 998 c 2,45,-1
 1126 746 l 2,46,47
 1126 725 1126 725 1053 704 c 0,48,49
 949 674 949 674 921 660 c 1,50,-1
 1295 660 l 1,51,-1
 1295 0 l 1,0,-1
EndSplineSet
EndChar

StartChar: afii62774
Encoding: 65187 65187 184
Width: 1256
GlyphClass: 2
Flags: W
AnchorPoint: "Anchor-3" 390 -525 basechar 0
AnchorPoint: "Anchor-2" 540 1365 basechar 0
LayerCount: 2
Fore
SplineSet
1243 580 m 2,0,-1
 1057 45 l 2,1,2
 1041 0 1041 0 997 0 c 2,3,-1
 -80 0 l 1,4,-1
 -80 660 l 1,5,-1
 651 660 l 2,6,7
 656 660 656 660 559 728 c 128,-1,8
 462 796 462 796 397 796 c 0,9,10
 352 796 352 796 286.5 767.5 c 128,-1,11
 221 739 221 739 217 739 c 0,12,13
 164 739 164 739 164 804 c 0,14,15
 164 920 164 920 251 1000 c 0,16,17
 335 1079 335 1079 452 1079 c 0,18,19
 596 1079 596 1079 727 963 c 0,20,21
 753 940 753 940 870 801 c 0,22,23
 955 700 955 700 1033 675 c 0,24,25
 1080 660 1080 660 1206 660 c 0,26,27
 1252 660 1252 660 1252 624 c 0,28,29
 1252 606 1252 606 1243 580 c 2,0,-1
EndSplineSet
EndChar

StartChar: afii62775
Encoding: 65188 65188 185
Width: 1222
GlyphClass: 2
Flags: W
AnchorPoint: "Anchor-3" 450 -510 basechar 0
AnchorPoint: "Anchor-2" 465 1305 basechar 0
LayerCount: 2
Fore
SplineSet
1222 0 m 1,0,-1
 1179 0 l 2,1,2
 1065 0 1065 0 1035 72 c 1,3,4
 998 0 998 0 886 0 c 2,5,-1
 -80 0 l 1,6,-1
 -80 660 l 1,7,-1
 651 660 l 2,8,9
 656 660 656 660 559 728 c 128,-1,10
 462 796 462 796 397 796 c 0,11,12
 352 796 352 796 286.5 767.5 c 128,-1,13
 221 739 221 739 217 739 c 0,14,15
 164 739 164 739 164 804 c 0,16,17
 164 920 164 920 251 1000 c 0,18,19
 335 1079 335 1079 452 1079 c 0,20,21
 596 1079 596 1079 727 963 c 0,22,23
 753 940 753 940 870 801 c 0,24,25
 954 701 954 701 1041 675 c 0,26,27
 1091 660 1091 660 1222 660 c 1,28,-1
 1222 0 l 1,0,-1
EndSplineSet
EndChar

StartChar: afii57423
Encoding: 1583 1583 190
Width: 934
GlyphClass: 2
Flags: W
AnchorPoint: "Anchor-3" 450 -435 basechar 0
AnchorPoint: "Anchor-2" 435 1335 basechar 0
LayerCount: 2
Fore
SplineSet
930 98 m 2,0,1
 930 0 930 0 569 0 c 0,2,3
 164 0 164 0 164 173 c 2,4,-1
 164 570 l 2,5,6
 164 635 164 635 177 635 c 0,7,8
 222 635 222 635 304 627 c 0,9,10
 391 619 391 619 430 618 c 0,11,12
 628 614 628 614 628 660 c 0,13,14
 628 691 628 691 576 754 c 0,15,16
 530 810 530 810 502 825 c 0,17,18
 479 834 479 834 457 843 c 0,19,20
 432 856 432 856 432 880 c 0,21,22
 432 921 432 921 494.5 992 c 128,-1,23
 557 1063 557 1063 597 1063 c 0,24,25
 681 1063 681 1063 809 877 c 0,26,27
 930 702 930 702 930 624 c 2,28,-1
 930 98 l 2,0,1
EndSplineSet
Substitution2: "'fina' Terminal Forms in Arabic lookup 2 subtable" afii62780
EndChar

StartChar: afii62780
Encoding: 65194 65194 191
Width: 1161
GlyphClass: 2
Flags: W
AnchorPoint: "Anchor-3" 450 -480 basechar 0
AnchorPoint: "Anchor-2" 495 1275 basechar 0
LayerCount: 2
Fore
SplineSet
1161 0 m 1,0,1
 953 0 953 0 906 62 c 1,2,3
 857 0 857 0 574 0 c 0,4,5
 169 0 169 0 169 173 c 2,6,-1
 169 570 l 2,7,8
 169 635 169 635 182 635 c 0,9,10
 227 635 227 635 309 627 c 0,11,12
 396 619 396 619 435 618 c 0,13,14
 633 614 633 614 633 660 c 0,15,16
 633 691 633 691 581 754 c 0,17,18
 535 810 535 810 507 825 c 0,19,20
 484 834 484 834 462 843 c 0,21,22
 437 856 437 856 437 880 c 0,23,24
 437 921 437 921 499.5 992 c 128,-1,25
 562 1063 562 1063 602 1063 c 0,26,27
 676 1063 676 1063 792 907 c 0,28,29
 896 767 896 767 928 660 c 1,30,-1
 1161 660 l 1,31,-1
 1161 0 l 1,0,1
EndSplineSet
EndChar

StartChar: afii57425
Encoding: 1585 1585 194
Width: 936
GlyphClass: 2
Flags: W
AnchorPoint: "Anchor-3" 585 -810 basechar 0
AnchorPoint: "Anchor-2" 690 1095 basechar 0
LayerCount: 2
Fore
SplineSet
932 180 m 0,0,1
 932 -66 932 -66 826 -228 c 0,2,3
 702 -417 702 -417 468 -417 c 0,4,5
 309 -417 309 -417 159 -284 c 0,6,7
 29 -168 29 -168 29 -97 c 0,8,9
 29 -69 29 -69 72 -69 c 0,10,11
 101 -69 101 -69 157.5 -75 c 128,-1,12
 214 -81 214 -81 243 -81 c 0,13,14
 331 -81 331 -81 404 -54 c 0,15,16
 557 3 557 3 647 111 c 0,17,18
 713 191 713 191 713 239 c 0,19,20
 713 244 713 244 712 246 c 2,21,-1
 520 528 l 2,22,23
 498 560 498 560 498 572 c 0,24,25
 498 585 498 585 523 614 c 2,26,-1
 675 792 l 2,27,28
 691 811 691 811 703 811 c 0,29,30
 718 811 718 811 740 785 c 0,31,32
 852 655 852 655 895 503 c 0,33,34
 932 374 932 374 932 180 c 0,0,1
EndSplineSet
Substitution2: "'fina' Terminal Forms in Arabic lookup 2 subtable" afii62782
PairPos2: "'kern' Horizontal Kerning in Arabic lookup 0 subtable" afii57415 dx=0 dy=0 dh=0 dv=0 dx=0 dy=0 dh=-50 dv=0
PairPos2: "'kern' Horizontal Kerning in Arabic lookup 0 subtable" uni0675 dx=0 dy=0 dh=0 dv=0 dx=0 dy=0 dh=-50 dv=0
PairPos2: "'kern' Horizontal Kerning in Arabic lookup 0 subtable" uni0672 dx=0 dy=0 dh=0 dv=0 dx=0 dy=0 dh=-50 dv=0
PairPos2: "'kern' Horizontal Kerning in Arabic lookup 0 subtable" afii62831 dx=0 dy=0 dh=0 dv=0 dx=0 dy=0 dh=50 dv=0
PairPos2: "'kern' Horizontal Kerning in Arabic lookup 0 subtable" afii57448 dx=0 dy=0 dh=0 dv=0 dx=0 dy=0 dh=70 dv=0
PairPos2: "'kern' Horizontal Kerning in Arabic lookup 0 subtable" afii57444 dx=0 dy=0 dh=0 dv=0 dx=0 dy=0 dh=50 dv=0
PairPos2: "'kern' Horizontal Kerning in Arabic lookup 0 subtable" afii57426 dx=0 dy=0 dh=0 dv=0 dx=0 dy=0 dh=70 dv=0
PairPos2: "'kern' Horizontal Kerning in Arabic lookup 0 subtable" afii57425 dx=0 dy=0 dh=0 dv=0 dx=0 dy=0 dh=70 dv=0
PairPos2: "'kern' Horizontal Kerning in Arabic lookup 0 subtable" afii57422 dx=0 dy=0 dh=0 dv=0 dx=0 dy=0 dh=100 dv=0
PairPos2: "'kern' Horizontal Kerning in Arabic lookup 0 subtable" afii57421 dx=0 dy=0 dh=0 dv=0 dx=0 dy=0 dh=100 dv=0
PairPos2: "'kern' Horizontal Kerning in Arabic lookup 0 subtable" afii57420 dx=0 dy=0 dh=0 dv=0 dx=0 dy=0 dh=100 dv=0
PairPos2: "'kern' Horizontal Kerning in Arabic lookup 0 subtable" afii62761 dx=0 dy=0 dh=0 dv=0 dx=0 dy=0 dh=50 dv=0
PairPos2: "'kern' Horizontal Kerning in Arabic lookup 0 subtable" afii57411 dx=0 dy=0 dh=0 dv=0 dx=0 dy=0 dh=-50 dv=0
PairPos2: "'kern' Horizontal Kerning in Arabic lookup 0 subtable" afii57507 dx=0 dy=0 dh=0 dv=0 dx=0 dy=0 dh=100 dv=0
PairPos2: "'kern' Horizontal Kerning in Arabic lookup 0 subtable" afii62956 dx=0 dy=0 dh=0 dv=0 dx=0 dy=0 dh=50 dv=0
EndChar

StartChar: afii62782
Encoding: 65198 65198 195
Width: 1039
GlyphClass: 2
Flags: W
AnchorPoint: "Anchor-3" 540 -795 basechar 0
AnchorPoint: "Anchor-2" 630 1035 basechar 0
LayerCount: 2
Fore
SplineSet
1039 0 m 1,0,-1
 924 0 l 1,1,2
 798 -417 798 -417 459 -417 c 0,3,4
 300 -417 300 -417 150 -284 c 0,5,6
 20 -168 20 -168 20 -97 c 0,7,8
 20 -69 20 -69 63 -69 c 0,9,10
 92 -69 92 -69 148.5 -75 c 128,-1,11
 205 -81 205 -81 234 -81 c 0,12,13
 322 -81 322 -81 395 -54 c 0,14,15
 548 3 548 3 638 111 c 0,16,17
 704 191 704 191 704 239 c 0,18,19
 704 244 704 244 703 246 c 2,20,-1
 511 528 l 2,21,22
 489 560 489 560 489 572 c 0,23,24
 489 585 489 585 514 614 c 2,25,-1
 666 792 l 2,26,27
 682 811 682 811 694 811 c 0,28,29
 709 811 709 811 731 785 c 0,30,31
 791 715 791 715 824 660 c 1,32,-1
 1039 660 l 1,33,-1
 1039 0 l 1,0,-1
EndSplineSet
PairPos2: "'kern' Horizontal Kerning in Arabic lookup 0 subtable" afii57415 dx=0 dy=0 dh=0 dv=0 dx=0 dy=0 dh=-100 dv=0
PairPos2: "'kern' Horizontal Kerning in Arabic lookup 0 subtable" uni0675 dx=0 dy=0 dh=0 dv=0 dx=0 dy=0 dh=-80 dv=0
PairPos2: "'kern' Horizontal Kerning in Arabic lookup 0 subtable" uni0672 dx=0 dy=0 dh=0 dv=0 dx=0 dy=0 dh=-80 dv=0
PairPos2: "'kern' Horizontal Kerning in Arabic lookup 0 subtable" afii62831 dx=0 dy=0 dh=0 dv=0 dx=0 dy=0 dh=50 dv=0
PairPos2: "'kern' Horizontal Kerning in Arabic lookup 0 subtable" afii57448 dx=0 dy=0 dh=0 dv=0 dx=0 dy=0 dh=50 dv=0
PairPos2: "'kern' Horizontal Kerning in Arabic lookup 0 subtable" afii57444 dx=0 dy=0 dh=0 dv=0 dx=0 dy=0 dh=40 dv=0
PairPos2: "'kern' Horizontal Kerning in Arabic lookup 0 subtable" afii57426 dx=0 dy=0 dh=0 dv=0 dx=0 dy=0 dh=50 dv=0
PairPos2: "'kern' Horizontal Kerning in Arabic lookup 0 subtable" afii57425 dx=0 dy=0 dh=0 dv=0 dx=0 dy=0 dh=50 dv=0
PairPos2: "'kern' Horizontal Kerning in Arabic lookup 0 subtable" afii57422 dx=0 dy=0 dh=0 dv=0 dx=0 dy=0 dh=100 dv=0
PairPos2: "'kern' Horizontal Kerning in Arabic lookup 0 subtable" afii57421 dx=0 dy=0 dh=0 dv=0 dx=0 dy=0 dh=100 dv=0
PairPos2: "'kern' Horizontal Kerning in Arabic lookup 0 subtable" afii57420 dx=0 dy=0 dh=0 dv=0 dx=0 dy=0 dh=100 dv=0
PairPos2: "'kern' Horizontal Kerning in Arabic lookup 0 subtable" afii62761 dx=0 dy=0 dh=0 dv=0 dx=0 dy=0 dh=50 dv=0
PairPos2: "'kern' Horizontal Kerning in Arabic lookup 0 subtable" afii57411 dx=0 dy=0 dh=0 dv=0 dx=0 dy=0 dh=-80 dv=0
PairPos2: "'kern' Horizontal Kerning in Arabic lookup 0 subtable" afii57507 dx=0 dy=0 dh=0 dv=0 dx=0 dy=0 dh=100 dv=0
PairPos2: "'kern' Horizontal Kerning in Arabic lookup 0 subtable" afii62956 dx=0 dy=0 dh=0 dv=0 dx=0 dy=0 dh=50 dv=0
EndChar

StartChar: afii57427
Encoding: 1587 1587 198
Width: 1917
GlyphClass: 2
Flags: W
AnchorPoint: "Anchor-3" 900 -765 basechar 0
AnchorPoint: "Anchor-2" 1155 1215 basechar 0
LayerCount: 2
Fore
SplineSet
1893 115 m 2,0,1
 1893 20 1893 20 1847 6 c 0,2,3
 1827 0 1827 0 1780 0 c 2,4,-1
 1567 0 l 2,5,6
 1475 0 1475 0 1429 82 c 1,7,8
 1390 0 1390 0 1325 0 c 0,9,10
 1250 0 1250 0 1201 46 c 1,11,12
 1202 39 1202 39 1202 30 c 0,13,14
 1202 -98 1202 -98 1072 -242 c 0,15,16
 908 -424 908 -424 652 -424 c 0,17,18
 419 -424 419 -424 280 -248 c 0,19,20
 153 -88 153 -88 153 146 c 0,21,22
 153 384 153 384 310 559 c 0,23,24
 360 615 360 615 375 615 c 0,25,26
 419 615 419 615 419 564 c 0,27,28
 419 539 419 539 410 495 c 0,29,30
 406 475 406 475 406 453 c 0,31,32
 406 363 406 363 462 298 c 0,33,34
 530 220 530 220 652 220 c 0,35,36
 754 220 754 220 828 278 c 0,37,38
 909 341 909 341 909 440 c 0,39,40
 909 526 909 526 844 591 c 0,41,42
 831 604 831 604 844 614 c 2,43,-1
 1052 779 l 2,44,45
 1060 786 1060 786 1070 775 c 0,46,47
 1196 638 1196 638 1252 638 c 0,48,49
 1285 638 1285 638 1335.5 702.5 c 128,-1,50
 1386 767 1386 767 1403 767 c 0,51,52
 1408 767 1408 767 1489.5 700.5 c 128,-1,53
 1571 634 1571 634 1597 634 c 0,54,55
 1618 634 1618 634 1618 657 c 0,56,57
 1618 670 1618 670 1600.5 707 c 128,-1,58
 1583 744 1583 744 1583 760 c 0,59,60
 1583 779 1583 779 1597 791 c 2,61,-1
 1760 932 l 2,62,63
 1766 937 1766 937 1772 937 c 0,64,65
 1819 937 1819 937 1859 817 c 0,66,67
 1893 715 1893 715 1893 656 c 2,68,-1
 1893 115 l 2,0,1
EndSplineSet
Substitution2: "'medi' Medial Forms in Arabic lookup 3 subtable" afii62785
Substitution2: "'fina' Terminal Forms in Arabic lookup 2 subtable" afii62786
Substitution2: "'init' Initial Forms in Arabic lookup 1 subtable" afii62784
EndChar

StartChar: afii62786
Encoding: 65202 65202 199
Width: 1991
GlyphClass: 2
Flags: W
AnchorPoint: "Anchor-3" 645 -825 basechar 0
AnchorPoint: "Anchor-2" 1335 1110 basechar 0
LayerCount: 2
Fore
SplineSet
1991 0 m 1,0,-1
 1866 0 l 2,1,2
 1818 0 1818 0 1728 32.5 c 128,-1,3
 1638 65 1638 65 1652 65 c 1,4,5
 1572 0 1572 0 1520 0 c 0,6,7
 1482 0 1482 0 1429.5 32 c 128,-1,8
 1377 64 1377 64 1377 64 c 2,9,10
 1371 64 1371 64 1344 32 c 128,-1,11
 1317 0 1317 0 1295 0 c 0,12,13
 1214 0 1214 0 1171 46 c 1,14,15
 1172 39 1172 39 1172 30 c 0,16,17
 1172 -100 1172 -100 1047 -242 c 0,18,19
 886 -424 886 -424 631 -424 c 0,20,21
 398 -424 398 -424 259 -248 c 0,22,23
 132 -88 132 -88 132 146 c 0,24,25
 132 384 132 384 289 559 c 0,26,27
 339 615 339 615 354 615 c 0,28,29
 398 615 398 615 398 564 c 0,30,31
 398 539 398 539 389 495 c 0,32,33
 385 475 385 475 385 453 c 0,34,35
 385 363 385 363 441 298 c 0,36,37
 509 220 509 220 631 220 c 0,38,39
 733 220 733 220 807 278 c 0,40,41
 888 341 888 341 888 440 c 0,42,43
 888 526 888 526 823 591 c 0,44,45
 810 604 810 604 823 614 c 2,46,-1
 1031 779 l 2,47,48
 1039 786 1039 786 1049 775 c 0,49,50
 1069 753 1069 753 1120 712 c 0,51,52
 1185 660 1185 660 1205 660 c 0,53,54
 1231 660 1231 660 1276 714.5 c 128,-1,55
 1321 769 1321 769 1342 769 c 0,56,57
 1355 769 1355 769 1430.5 714.5 c 128,-1,58
 1506 660 1506 660 1538 660 c 0,59,60
 1565 660 1565 660 1618.5 709 c 128,-1,61
 1672 758 1672 758 1682 758 c 0,62,63
 1689 758 1689 758 1752 709 c 128,-1,64
 1815 660 1815 660 1867 660 c 2,65,-1
 1991 660 l 1,66,-1
 1991 0 l 1,0,-1
EndSplineSet
EndChar

StartChar: afii62784
Encoding: 65203 65203 200
Width: 1073
GlyphClass: 2
Flags: W
AnchorPoint: "Anchor-3" 480 -525 basechar 0
AnchorPoint: "Anchor-2" 510 1170 basechar 0
LayerCount: 2
Fore
SplineSet
1073 136 m 2,0,1
 1073 65 1073 65 1057 38 c 0,2,3
 1034 0 1034 0 965 0 c 2,4,-1
 779 0 l 2,5,6
 651 0 651 0 634 53 c 1,7,8
 622 24 622 24 569 9 c 0,9,10
 527 -4 527 -4 487 -2 c 0,11,12
 382 2 382 2 357 53 c 1,13,14
 321 -2 321 -2 209 -2 c 0,15,16
 161 -2 161 -2 -82 0 c 1,17,-1
 -82 660 l 1,18,-1
 153 660 l 2,19,20
 204 660 204 660 262 704 c 128,-1,21
 320 748 320 748 316 748 c 1,22,23
 320 748 320 748 371.5 715.5 c 128,-1,24
 423 683 423 683 466 683 c 0,25,26
 496 683 496 683 537.5 726 c 128,-1,27
 579 769 579 769 591 769 c 0,28,29
 608 769 608 769 683.5 721 c 128,-1,30
 759 673 759 673 772 673 c 256,31,32
 785 673 785 673 785 694 c 0,33,34
 785 707 785 707 769 741.5 c 128,-1,35
 753 776 753 776 753 791 c 0,36,37
 753 807 753 807 766 818 c 2,38,-1
 934 954 l 2,39,40
 940 959 940 959 947 959 c 0,41,42
 986 959 986 959 1032 853 c 0,43,44
 1073 758 1073 758 1073 709 c 2,45,-1
 1073 136 l 2,0,1
EndSplineSet
EndChar

StartChar: afii62785
Encoding: 65204 65204 201
Width: 1206
GlyphClass: 2
Flags: W
AnchorPoint: "Anchor-3" 555 -510 basechar 0
AnchorPoint: "Anchor-2" 540 1050 basechar 0
LayerCount: 2
Fore
SplineSet
1206 0 m 1,0,-1
 1046 0 l 2,1,2
 1005 0 1005 0 961 13 c 0,3,4
 908 29 908 29 901 52 c 1,5,6
 889 23 889 23 836 8 c 0,7,8
 794 -5 794 -5 754 -3 c 0,9,10
 649 1 649 1 624 52 c 1,11,12
 588 -3 588 -3 476 -3 c 0,13,14
 374 -3 374 -3 336 52 c 1,15,16
 301 0 301 0 150 0 c 2,17,-1
 -79 0 l 1,18,-1
 -79 659 l 1,19,-1
 139 660 l 2,20,21
 192 660 192 660 256.5 704.5 c 128,-1,22
 321 749 321 749 318 749 c 1,23,24
 326 749 326 749 381.5 704.5 c 128,-1,25
 437 660 437 660 461 660 c 0,26,27
 484 660 484 660 527 707 c 128,-1,28
 570 754 570 754 582 754 c 0,29,30
 592 754 592 754 667.5 707 c 128,-1,31
 743 660 743 660 767 660 c 0,32,33
 790 660 790 660 839 704.5 c 128,-1,34
 888 749 888 749 898 749 c 0,35,36
 905 749 905 749 953.5 704 c 128,-1,37
 1002 659 1002 659 1032 659 c 2,38,-1
 1206 660 l 1,39,-1
 1206 0 l 1,0,-1
EndSplineSet
EndChar

StartChar: afii57429
Encoding: 1589 1589 206
Width: 2312
GlyphClass: 2
Flags: W
AnchorPoint: "Anchor-3" 645 -825 basechar 0
AnchorPoint: "Anchor-2" 1170 1275 basechar 0
LayerCount: 2
Fore
SplineSet
2292 629 m 2,0,-1
 2099 45 l 2,1,2
 2084 0 2084 0 2039 0 c 2,3,-1
 1377 0 l 2,4,5
 1239 0 1239 0 1180 46 c 1,6,7
 1181 39 1181 39 1181 30 c 0,8,9
 1181 -98 1181 -98 1051 -242 c 0,10,11
 887 -424 887 -424 631 -424 c 0,12,13
 398 -424 398 -424 259 -248 c 0,14,15
 132 -88 132 -88 132 146 c 0,16,17
 132 384 132 384 289 559 c 0,18,19
 339 615 339 615 354 615 c 0,20,21
 398 615 398 615 398 564 c 0,22,23
 398 539 398 539 389 495 c 0,24,25
 385 475 385 475 385 453 c 0,26,27
 385 363 385 363 441 298 c 0,28,29
 509 220 509 220 631 220 c 0,30,31
 733 220 733 220 807 278 c 0,32,33
 888 341 888 341 888 440 c 0,34,35
 888 526 888 526 823 591 c 0,36,37
 810 604 810 604 823 614 c 2,38,-1
 1031 779 l 2,39,40
 1039 786 1039 786 1049 775 c 0,41,42
 1158 656 1158 656 1191 656 c 0,43,44
 1206 656 1206 656 1342 766 c 0,45,46
 1513 904 1513 904 1628 971 c 0,47,48
 1818 1081 1818 1081 1969 1081 c 0,49,50
 2116 1081 2116 1081 2214 989.5 c 128,-1,51
 2312 898 2312 898 2312 752 c 0,52,53
 2312 690 2312 690 2292 629 c 2,0,-1
1917 660 m 1,54,55
 1917 698 1917 698 1882 734 c 0,56,57
 1839 779 1839 779 1769 779 c 0,58,59
 1701 779 1701 779 1619 733 c 0,60,61
 1548 694 1548 694 1527 660 c 1,62,-1
 1917 660 l 1,54,55
EndSplineSet
Substitution2: "'medi' Medial Forms in Arabic lookup 3 subtable" afii62791
Substitution2: "'fina' Terminal Forms in Arabic lookup 2 subtable" afii62792
Substitution2: "'init' Initial Forms in Arabic lookup 1 subtable" afii62790
EndChar

StartChar: afii62792
Encoding: 65210 65210 207
Width: 2473
GlyphClass: 2
Flags: W
AnchorPoint: "Anchor-3" 810 -810 basechar 0
AnchorPoint: "Anchor-2" 1170 1275 basechar 0
LayerCount: 2
Fore
SplineSet
2473 0 m 1,0,-1
 1377 0 l 2,1,2
 1239 0 1239 0 1180 46 c 1,3,4
 1181 39 1181 39 1181 30 c 0,5,6
 1181 -98 1181 -98 1051 -242 c 0,7,8
 887 -424 887 -424 631 -424 c 0,9,10
 398 -424 398 -424 259 -248 c 0,11,12
 132 -88 132 -88 132 146 c 0,13,14
 132 384 132 384 289 559 c 0,15,16
 339 615 339 615 354 615 c 0,17,18
 398 615 398 615 398 564 c 0,19,20
 398 539 398 539 389 495 c 0,21,22
 385 475 385 475 385 453 c 0,23,24
 385 363 385 363 441 298 c 0,25,26
 509 220 509 220 631 220 c 0,27,28
 733 220 733 220 807 278 c 0,29,30
 888 341 888 341 888 440 c 0,31,32
 888 526 888 526 823 591 c 0,33,34
 810 604 810 604 823 614 c 2,35,-1
 1031 779 l 2,36,37
 1039 786 1039 786 1049 775 c 0,38,39
 1158 656 1158 656 1191 656 c 0,40,41
 1206 656 1206 656 1342 766 c 0,42,43
 1513 904 1513 904 1628 971 c 0,44,45
 1818 1081 1818 1081 1969 1081 c 0,46,47
 2122 1081 2122 1081 2209 978 c 0,48,49
 2292 881 2292 881 2292 726 c 2,50,-1
 2292 660 l 1,51,-1
 2473 660 l 1,52,-1
 2473 0 l 1,0,-1
1917 660 m 1,53,54
 1917 698 1917 698 1882 734 c 0,55,56
 1839 779 1839 779 1769 779 c 0,57,58
 1701 779 1701 779 1619 733 c 0,59,60
 1548 694 1548 694 1527 660 c 1,61,-1
 1917 660 l 1,53,54
EndSplineSet
EndChar

StartChar: afii62790
Encoding: 65211 65211 208
Width: 1644
GlyphClass: 2
Flags: W
AnchorPoint: "Anchor-3" 540 -630 basechar 0
AnchorPoint: "Anchor-2" 585 1320 basechar 0
LayerCount: 2
Fore
SplineSet
1612 646 m 1,0,-1
 1340 45 l 2,1,2
 1320 0 1320 0 1280 0 c 2,3,-1
 419 0 l 2,4,5
 305 0 305 0 275 72 c 1,6,7
 238 0 238 0 126 0 c 2,8,-1
 -81 0 l 1,9,-1
 -81 660 l 1,10,-1
 113 660 l 2,11,12
 190 660 190 660 242 702 c 2,13,-1
 294 745 l 1,14,15
 346 738 346 738 386.5 698.5 c 128,-1,16
 427 659 427 659 463 659 c 0,17,18
 516 659 516 659 664 773 c 0,19,20
 873 934 873 934 955 984 c 0,21,22
 1141 1098 1141 1098 1289 1098 c 0,23,24
 1436 1098 1436 1098 1534 1006.5 c 128,-1,25
 1632 915 1632 915 1632 769 c 0,26,27
 1632 708 1632 708 1612 646 c 1,0,-1
1247 660 m 1,28,29
 1247 698 1247 698 1212 734 c 0,30,31
 1169 779 1169 779 1099 779 c 0,32,33
 1032 779 1032 779 949 733 c 0,34,35
 879 694 879 694 853 660 c 1,36,-1
 1247 660 l 1,28,29
EndSplineSet
EndChar

StartChar: afii62791
Encoding: 65212 65212 209
Width: 1803
GlyphClass: 2
Flags: W
AnchorPoint: "Anchor-3" 660 -570 basechar 0
AnchorPoint: "Anchor-2" 480 1125 basechar 0
LayerCount: 2
Fore
SplineSet
1803 0 m 1,0,-1
 419 0 l 2,1,2
 305 0 305 0 275 72 c 1,3,4
 238 0 238 0 126 0 c 2,5,-1
 -81 0 l 1,6,-1
 -81 660 l 1,7,-1
 113 659 l 2,8,9
 190 659 190 659 242 702 c 2,10,-1
 294 745 l 1,11,12
 328 721 328 721 377.5 690 c 128,-1,13
 427 659 427 659 463 659 c 0,14,15
 517 659 517 659 667 768 c 0,16,17
 892 932 892 932 962 972 c 0,18,19
 1150 1081 1150 1081 1299 1081 c 0,20,21
 1452 1081 1452 1081 1539 978 c 0,22,23
 1622 881 1622 881 1622 726 c 2,24,-1
 1622 659 l 1,25,-1
 1803 660 l 1,26,-1
 1803 0 l 1,0,-1
1277 660 m 1,27,28
 1277 698 1277 698 1242 734 c 0,29,30
 1199 779 1199 779 1129 779 c 0,31,32
 1062 779 1062 779 979 733 c 0,33,34
 909 694 909 694 883 660 c 1,35,-1
 1277 660 l 1,27,28
EndSplineSet
EndChar

StartChar: afii57431
Encoding: 1591 1591 214
Width: 1452
GlyphClass: 2
Flags: W
AnchorPoint: "Anchor-3" 780 -435 basechar 0
AnchorPoint: "Anchor-2" 1020 1410 basechar 0
LayerCount: 2
Fore
SplineSet
1449 648 m 1,0,-1
 1338 45 l 2,1,2
 1330 0 1330 0 1275 0 c 2,3,-1
 283 0 l 2,4,5
 227 0 227 0 220 45 c 2,6,-1
 130 626 l 2,7,8
 125 660 125 660 152 660 c 2,9,-1
 356 660 l 1,10,11
 409 742 409 742 475 796 c 1,12,-1
 364 1315 l 2,13,14
 356 1351 356 1351 385 1362 c 2,15,-1
 630 1459 l 2,16,17
 662 1472 662 1472 671 1445 c 2,18,-1
 741 1233 l 2,19,20
 747 1214 747 1214 736 1205 c 2,21,-1
 698 1184 l 2,22,23
 682 1175 682 1175 683 1155 c 2,24,-1
 691 965 l 2,25,26
 692 948 692 948 706 948 c 1,27,28
 705 948 705 948 861.5 1011 c 128,-1,29
 1018 1074 1018 1074 1104 1074 c 0,30,31
 1297 1074 1297 1074 1380 952 c 0,32,33
 1449 850 1449 850 1449 648 c 1,0,-1
1067 660 m 1,34,35
 1067 698 1067 698 1032 734 c 0,36,37
 989 779 989 779 919 779 c 0,38,39
 852 779 852 779 769 733 c 0,40,41
 699 694 699 694 673 660 c 1,42,-1
 1067 660 l 1,34,35
EndSplineSet
Substitution2: "'medi' Medial Forms in Arabic lookup 3 subtable" afii62797
Substitution2: "'fina' Terminal Forms in Arabic lookup 2 subtable" afii62798
Substitution2: "'init' Initial Forms in Arabic lookup 1 subtable" afii62796
EndChar

StartChar: afii62798
Encoding: 65218 65218 215
Width: 1593
GlyphClass: 2
Flags: W
AnchorPoint: "Anchor-3" 720 -465 basechar 0
AnchorPoint: "Anchor-2" 1125 1410 basechar 0
LayerCount: 2
Fore
SplineSet
1593 0 m 1,0,-1
 1550 0 l 1,1,2
 1440 -11 1440 -11 1406 69 c 1,3,4
 1369 -2 1369 -2 1257 -2 c 2,5,-1
 266 0 l 1,6,7
 245 8 245 8 220 42 c 1,8,-1
 130 626 l 2,9,10
 125 660 125 660 152 660 c 2,11,-1
 356 660 l 2,12,13
 380 660 380 660 398 687 c 0,14,15
 440 739 440 739 458 754 c 0,16,17
 479 775 479 775 475 796 c 2,18,-1
 364 1315 l 2,19,20
 356 1351 356 1351 385 1362 c 2,21,-1
 630 1459 l 2,22,23
 662 1472 662 1472 671 1445 c 2,24,-1
 741 1233 l 2,25,26
 747 1214 747 1214 736 1205 c 2,27,-1
 698 1184 l 2,28,29
 682 1175 682 1175 683 1155 c 2,30,-1
 691 965 l 2,31,32
 692 948 692 948 706 948 c 1,33,34
 705 948 705 948 861.5 1011 c 128,-1,35
 1018 1074 1018 1074 1104 1074 c 0,36,37
 1298 1074 1298 1074 1380 956 c 0,38,39
 1449 856 1449 856 1449 660 c 1,40,-1
 1593 660 l 1,41,-1
 1593 0 l 1,0,-1
1067 660 m 1,42,43
 1067 698 1067 698 1032 734 c 0,44,45
 989 779 989 779 919 779 c 0,46,47
 852 779 852 779 769 733 c 0,48,49
 699 694 699 694 673 660 c 1,50,-1
 1067 660 l 1,42,43
EndSplineSet
EndChar

StartChar: afii62796
Encoding: 65219 65219 216
Width: 1239
GlyphClass: 2
Flags: W
AnchorPoint: "Anchor-3" 465 -465 basechar 0
AnchorPoint: "Anchor-2" 810 1395 basechar 0
LayerCount: 2
Fore
SplineSet
1239 648 m 1,0,-1
 1128 45 l 2,1,2
 1120 0 1120 0 1065 0 c 2,3,-1
 -80 0 l 1,4,-1
 -80 660 l 1,5,-1
 146 660 l 2,6,7
 170 660 170 660 188 687 c 0,8,9
 230 739 230 739 248 754 c 0,10,11
 269 775 269 775 265 796 c 2,12,-1
 154 1315 l 2,13,14
 146 1351 146 1351 175 1362 c 2,15,-1
 420 1459 l 2,16,17
 452 1472 452 1472 461 1445 c 2,18,-1
 531 1233 l 2,19,20
 537 1214 537 1214 526 1205 c 2,21,-1
 488 1184 l 2,22,23
 472 1175 472 1175 473 1155 c 2,24,-1
 481 965 l 2,25,26
 482 948 482 948 496 948 c 1,27,28
 495 948 495 948 651.5 1011 c 128,-1,29
 808 1074 808 1074 894 1074 c 0,30,31
 1087 1074 1087 1074 1170 952 c 0,32,33
 1239 850 1239 850 1239 648 c 1,0,-1
857 660 m 1,34,35
 857 698 857 698 822 734 c 0,36,37
 779 779 779 779 709 779 c 0,38,39
 642 779 642 779 559 733 c 0,40,41
 489 694 489 694 463 660 c 1,42,-1
 857 660 l 1,34,35
EndSplineSet
EndChar

StartChar: afii62797
Encoding: 65220 65220 217
Width: 1423
GlyphClass: 2
Flags: W
AnchorPoint: "Anchor-3" 540 -480 basechar 0
AnchorPoint: "Anchor-2" 840 1485 basechar 0
LayerCount: 2
Fore
SplineSet
1427 0 m 1,0,-1
 1384 0 l 1,1,2
 1274 -10 1274 -10 1240 70 c 1,3,4
 1204 0 1204 0 1091 0 c 2,5,-1
 -65 0 l 1,6,-1
 -65 660 l 1,7,-1
 190 660 l 2,8,9
 214 660 214 660 232 687 c 0,10,11
 274 739 274 739 292 754 c 0,12,13
 313 775 313 775 309 796 c 2,14,-1
 198 1315 l 2,15,16
 190 1351 190 1351 219 1362 c 2,17,-1
 464 1459 l 2,18,19
 496 1472 496 1472 505 1445 c 2,20,-1
 575 1233 l 2,21,22
 581 1214 581 1214 570 1205 c 2,23,-1
 532 1184 l 2,24,25
 516 1175 516 1175 517 1155 c 2,26,-1
 525 965 l 2,27,28
 526 948 526 948 540 948 c 1,29,30
 539 948 539 948 695.5 1011 c 128,-1,31
 852 1074 852 1074 938 1074 c 0,32,33
 1132 1074 1132 1074 1214 956 c 0,34,35
 1283 856 1283 856 1283 660 c 1,36,-1
 1427 660 l 1,37,-1
 1427 0 l 1,0,-1
897 660 m 1,38,39
 897 698 897 698 862 734 c 0,40,41
 819 779 819 779 749 779 c 0,42,43
 682 779 682 779 599 733 c 0,44,45
 529 694 529 694 503 660 c 1,46,-1
 897 660 l 1,38,39
EndSplineSet
EndChar

StartChar: afii57433
Encoding: 1593 1593 222
Width: 1061
GlyphClass: 2
Flags: W
AnchorPoint: "Anchor-3" 510 -840 basechar 0
AnchorPoint: "Anchor-2" 495 1305 basechar 0
LayerCount: 2
Fore
SplineSet
1061 219 m 0,0,1
 1061 -21 1061 -21 915 -219 c 0,2,3
 755 -436 755 -436 524 -436 c 0,4,5
 329 -436 329 -436 227 -309 c 0,6,7
 133 -193 133 -193 133 7 c 0,8,9
 133 208 133 208 244 358 c 0,10,11
 297 430 297 430 424 531 c 1,12,13
 397 558 397 558 328 631 c 0,14,15
 273 692 273 692 273 762 c 0,16,17
 273 856 273 856 366 940 c 0,18,19
 472 1035 472 1035 627 1035 c 0,20,21
 697 1035 697 1035 759 1004 c 0,22,23
 828 970 828 970 856 912 c 0,24,25
 869 885 869 885 869 825 c 0,26,27
 869 737 869 737 836 737 c 0,28,29
 820 737 820 737 774 753 c 128,-1,30
 728 769 728 769 703 769 c 0,31,32
 559 769 559 769 559 715 c 0,33,34
 559 685 559 685 590 657 c 128,-1,35
 621 629 621 629 651 629 c 0,36,37
 689 629 689 629 765.5 654 c 128,-1,38
 842 679 842 679 876 679 c 0,39,40
 912 679 912 679 912 658 c 0,41,42
 912 653 912 653 909 643 c 2,43,-1
 852 458 l 2,44,45
 846 437 846 437 818 437 c 0,46,47
 768 437 768 437 666 399 c 0,48,49
 530 348 530 348 530 280 c 0,50,51
 530 166 530 166 734 166 c 0,52,53
 793 166 793 166 877.5 196 c 128,-1,54
 962 226 962 226 1011 263 c 0,55,56
 1016 267 1016 267 1024 267 c 0,57,58
 1061 267 1061 267 1061 219 c 0,0,1
EndSplineSet
Substitution2: "'medi' Medial Forms in Arabic lookup 3 subtable" afii62803
Substitution2: "'fina' Terminal Forms in Arabic lookup 2 subtable" afii62804
Substitution2: "'init' Initial Forms in Arabic lookup 1 subtable" afii62802
EndChar

StartChar: afii62804
Encoding: 65226 65226 223
Width: 1116
GlyphClass: 2
Flags: W
AnchorPoint: "Anchor-3" 510 -840 basechar 0
AnchorPoint: "Anchor-2" 555 1230 basechar 0
LayerCount: 2
Fore
SplineSet
1117 0 m 1,0,-1
 934 0 l 2,1,2
 855 0 855 0 819 39 c 2,3,-1
 560 318 l 1,4,5
 503 281 503 281 503 160 c 0,6,7
 503 -7 503 -7 675 -81 c 0,8,9
 729 -104 729 -104 807 -104 c 0,10,11
 832 -104 832 -104 881.5 -94 c 128,-1,12
 931 -84 931 -84 956 -84 c 0,13,14
 978 -84 978 -84 978 -100 c 0,15,16
 978 -118 978 -118 950 -171 c 0,17,18
 878 -308 878 -308 751 -374 c 0,19,20
 653 -425 653 -425 548 -425 c 0,21,22
 356 -425 356 -425 240 -315 c 0,23,24
 121 -203 121 -203 121 -12 c 0,25,26
 121 203 121 203 329 429 c 0,27,28
 402 508 402 508 402 514 c 0,29,30
 402 528 402 528 364.5 562 c 128,-1,31
 327 596 327 596 310.5 602 c 128,-1,32
 294 608 294 608 231 628 c 0,33,34
 206 640 206 640 206 673 c 0,35,36
 206 754 206 754 297 861 c 0,37,38
 426 1013 426 1013 651 1013 c 0,39,40
 767 1013 767 1013 867 915 c 0,41,42
 957 826 957 826 957 754 c 0,43,44
 957 730 957 730 925 703 c 0,45,46
 911 691 911 691 875 660 c 1,47,-1
 1116 660 l 1,48,-1
 1117 0 l 1,0,-1
659 733 m 1,49,50
 636 775 636 775 558 775 c 0,51,52
 542 775 542 775 508 760 c 128,-1,53
 474 745 474 745 469 733 c 1,54,55
 516 686 516 686 560 655 c 1,56,57
 620 697 620 697 659 733 c 1,49,50
EndSplineSet
EndChar

StartChar: afii62802
Encoding: 65227 65227 224
Width: 858
GlyphClass: 2
Flags: W
AnchorPoint: "Anchor-3" 270 -495 basechar 0
AnchorPoint: "Anchor-2" 420 1290 basechar 0
LayerCount: 2
Fore
SplineSet
856 580 m 2,0,-1
 670 45 l 2,1,2
 654 0 654 0 610 0 c 2,3,-1
 -80 0 l 1,4,-1
 -80 660 l 1,5,-1
 205 660 l 1,6,7
 181 696 181 696 181 766 c 0,8,9
 181 896 181 896 302 974 c 0,10,11
 407 1042 407 1042 547 1042 c 0,12,13
 783 1042 783 1042 783 847 c 0,14,15
 783 735 783 735 740 735 c 1,16,17
 743 735 743 735 679 764.5 c 128,-1,18
 615 794 615 794 573 794 c 0,19,20
 537 794 537 794 508 779 c 0,21,22
 471 760 471 760 471 728 c 0,23,24
 471 660 471 660 573 660 c 2,25,-1
 814 660 l 2,26,27
 864 660 864 660 864 621 c 0,28,29
 864 603 864 603 856 580 c 2,0,-1
EndSplineSet
EndChar

StartChar: afii62803
Encoding: 65228 65228 225
Width: 1064
GlyphClass: 2
Flags: W
AnchorPoint: "Anchor-3" 495 -480 basechar 0
AnchorPoint: "Anchor-2" 465 1275 basechar 0
LayerCount: 2
Fore
SplineSet
1064 660 m 1,0,-1
 1063 0 l 1,1,-1
 649 0 l 2,2,3
 540 0 540 0 505 82 c 1,4,5
 463 0 463 0 356 0 c 2,6,-1
 -79 0 l 1,7,-1
 -79 660 l 1,8,9
 303 661 303 661 308 659 c 1,10,11
 302 666 302 666 216 709 c 0,12,13
 206 714 206 714 179 716 c 0,14,15
 158 717 158 717 158 727 c 0,16,17
 158 821 158 821 243 916 c 0,18,19
 354 1039 354 1039 539 1039 c 0,20,21
 694 1039 694 1039 801 934 c 0,22,23
 890 847 890 847 890 767 c 0,24,25
 890 744 890 744 847 709 c 0,26,27
 798 670 798 670 794 660 c 1,28,-1
 1064 660 l 1,0,-1
639 760 m 1,29,30
 616 802 616 802 538 802 c 0,31,32
 522 802 522 802 488 787 c 128,-1,33
 454 772 454 772 449 760 c 1,34,35
 496 713 496 713 540 682 c 1,36,37
 600 724 600 724 639 760 c 1,29,30
EndSplineSet
EndChar

StartChar: afii57443
Encoding: 1603 1603 238
Width: 1699
GlyphClass: 2
Flags: W
AnchorPoint: "Anchor-3" 825 -435 basechar 0
AnchorPoint: "Anchor-2" 690 1380 basechar 0
LayerCount: 2
Fore
SplineSet
366 870 m 0,0,1
 366 660 366 660 623 660 c 2,2,-1
 973 660 l 1,3,-1
 973 659 l 1,4,-1
 1287 659 l 2,5,6
 1350 659 1350 659 1350 702 c 0,7,8
 1350 709 1350 709 1349 715 c 2,9,-1
 1270 1172 l 2,10,11
 1263 1210 1263 1210 1292 1231 c 2,12,-1
 1524 1398 l 2,13,14
 1539 1409 1539 1409 1550 1409 c 0,15,16
 1567 1409 1567 1409 1575 1383 c 2,17,-1
 1653 1143 l 2,18,19
 1657 1131 1657 1131 1656 1121 c 0,20,21
 1655 1106 1655 1106 1645 1097 c 2,22,-1
 1599 1054 l 2,23,24
 1589 1045 1589 1045 1593 1022 c 2,25,-1
 1652 659 l 1,26,-1
 1651 46 l 2,27,28
 1651 1 1651 1 1591 1 c 2,29,-1
 675 0 l 2,30,31
 398 0 398 0 253 165 c 0,32,33
 131 303 131 303 131 510 c 0,34,35
 131 593 131 593 174 718 c 0,36,37
 225 867 225 867 303 952 c 0,38,39
 344 997 344 997 361 997 c 0,40,41
 374 997 374 997 374 969 c 0,42,43
 374 952 374 952 370 919.5 c 128,-1,44
 366 887 366 887 366 870 c 0,0,1
977 1009 m 0,45,46
 977 977 977 977 969 964 c 0,47,48
 938 927 938 927 843 927 c 256,49,50
 748 927 748 927 712 964 c 1,51,-1
 741 1039 l 1,52,53
 771 1024 771 1024 790 1024 c 0,54,55
 800 1024 800 1024 808 1028 c 1,56,57
 750 1068 750 1068 750 1145 c 0,58,59
 750 1234 750 1234 854 1234 c 0,60,61
 953 1234 953 1234 946 1134 c 0,62,63
 944 1112 944 1112 938 1112 c 0,64,65
 934 1112 934 1112 925 1114 c 128,-1,66
 916 1116 916 1116 912 1116 c 0,67,68
 866 1116 866 1116 866 1076 c 0,69,70
 866 1035 866 1035 919 1035 c 0,71,72
 935 1035 935 1035 950 1040 c 0,73,74
 977 1049 977 1049 977 1009 c 0,45,46
EndSplineSet
Substitution2: "'medi' Medial Forms in Arabic lookup 3 subtable" afii52306
Substitution2: "'fina' Terminal Forms in Arabic lookup 2 subtable" afii62816
Substitution2: "'init' Initial Forms in Arabic lookup 1 subtable" afii52305
EndChar

StartChar: afii62816
Encoding: 65242 65242 239
Width: 1787
GlyphClass: 2
Flags: W
AnchorPoint: "Anchor-3" 825 -450 basechar 0
AnchorPoint: "Anchor-2" 660 1380 basechar 0
LayerCount: 2
Fore
SplineSet
404 870 m 0,0,1
 404 660 404 660 661 660 c 2,2,-1
 1235 660 l 2,3,4
 1298 660 1298 660 1298 703 c 0,5,6
 1298 710 1298 710 1297 716 c 2,7,-1
 1218 1173 l 2,8,9
 1211 1211 1211 1211 1240 1232 c 2,10,-1
 1472 1399 l 2,11,12
 1487 1410 1487 1410 1498 1410 c 0,13,14
 1515 1410 1515 1410 1523 1384 c 2,15,-1
 1601 1144 l 2,16,17
 1605 1132 1605 1132 1604 1122 c 0,18,19
 1603 1107 1603 1107 1593 1098 c 2,20,-1
 1547 1055 l 2,21,22
 1537 1045 1537 1045 1541 1023 c 0,23,24
 1560 926 1560 926 1600 660 c 1,25,-1
 1799 660 l 1,26,-1
 1799 0 l 1,27,-1
 1741 0 l 2,28,29
 1627 0 1627 0 1597 72 c 1,30,31
 1560 0 1560 0 1448 0 c 2,32,-1
 713 0 l 2,33,34
 436 0 436 0 291 165 c 0,35,36
 169 303 169 303 169 510 c 0,37,38
 169 593 169 593 212 718 c 0,39,40
 263 867 263 867 341 952 c 0,41,42
 382 997 382 997 399 997 c 0,43,44
 412 997 412 997 412 969 c 0,45,46
 412 952 412 952 408 919.5 c 128,-1,47
 404 887 404 887 404 870 c 0,0,1
984 992 m 0,48,49
 984 960 984 960 976 947 c 0,50,51
 945 910 945 910 850 910 c 256,52,53
 755 910 755 910 719 947 c 1,54,-1
 748 1022 l 1,55,56
 778 1007 778 1007 797 1007 c 0,57,58
 807 1007 807 1007 815 1011 c 1,59,60
 757 1051 757 1051 757 1128 c 0,61,62
 757 1217 757 1217 861 1217 c 0,63,64
 960 1217 960 1217 953 1117 c 0,65,66
 951 1095 951 1095 945 1095 c 0,67,68
 941 1095 941 1095 932 1097 c 128,-1,69
 923 1099 923 1099 919 1099 c 0,70,71
 873 1099 873 1099 873 1059 c 0,72,73
 873 1018 873 1018 926 1018 c 0,74,75
 942 1018 942 1018 957 1023 c 0,76,77
 984 1032 984 1032 984 992 c 0,48,49
EndSplineSet
EndChar

StartChar: afii57444
Encoding: 1604 1604 242
Width: 1185
GlyphClass: 2
Flags: W
AnchorPoint: "Anchor-3" 645 -810 basechar 0
AnchorPoint: "Anchor-2" 690 1410 basechar 0
LayerCount: 2
Fore
SplineSet
1195 135 m 0,0,1
 1195 -87 1195 -87 1057 -245 c 0,2,3
 900 -425 900 -425 631 -425 c 0,4,5
 399 -425 399 -425 259 -248 c 0,6,7
 132 -87 132 -87 132 146 c 0,8,9
 132 384 132 384 289 559 c 0,10,11
 339 615 339 615 354 615 c 0,12,13
 398 615 398 615 398 562 c 0,14,15
 398 536 398 536 389 492 c 0,16,17
 385 472 385 472 385 450 c 0,18,19
 385 344 385 344 456 281 c 0,20,21
 524 220 524 220 631 220 c 0,22,23
 734 220 734 220 808 278 c 0,24,25
 888 341 888 341 888 441 c 0,26,27
 888 550 888 550 760 1173 c 0,28,29
 752 1211 752 1211 782 1232 c 2,30,-1
 1024 1399 l 2,31,32
 1038 1409 1038 1409 1050 1409 c 0,33,34
 1067 1409 1067 1409 1075 1384 c 2,35,-1
 1153 1144 l 2,36,37
 1157 1132 1157 1132 1156 1122 c 0,38,39
 1155 1107 1155 1107 1145 1098 c 2,40,-1
 1099 1055 l 2,41,42
 1089 1046 1089 1046 1093 1023 c 0,43,44
 1195 467 1195 467 1195 135 c 0,0,1
EndSplineSet
Substitution2: "'medi' Medial Forms in Arabic lookup 3 subtable" afii62818
Substitution2: "'fina' Terminal Forms in Arabic lookup 2 subtable" afii62819
Substitution2: "'init' Initial Forms in Arabic lookup 1 subtable" afii62817
EndChar

StartChar: afii62817
Encoding: 65247 65247 243
Width: 522
GlyphClass: 2
Flags: W
AnchorPoint: "Anchor-3" 210 -435 basechar 0
AnchorPoint: "Anchor-2" 165 1515 basechar 0
LayerCount: 2
Fore
SplineSet
523 1143 m 2,0,1
 527 1131 527 1131 526 1121 c 0,2,3
 525 1106 525 1106 515 1097 c 2,4,-1
 469 1054 l 2,5,6
 459 1045 459 1045 463 1022 c 2,7,-1
 522 659 l 1,8,-1
 521 46 l 2,9,10
 521 1 521 1 461 1 c 2,11,-1
 -80 1 l 1,12,-1
 -80 659 l 1,13,-1
 157 659 l 2,14,15
 220 659 220 659 220 702 c 0,16,17
 220 709 220 709 219 715 c 2,18,-1
 140 1172 l 2,19,20
 133 1210 133 1210 162 1231 c 2,21,-1
 394 1398 l 2,22,23
 409 1409 409 1409 420 1409 c 0,24,25
 437 1409 437 1409 445 1383 c 2,26,-1
 523 1143 l 2,0,1
EndSplineSet
EndChar

StartChar: afii62818
Encoding: 65248 65248 244
Width: 721
GlyphClass: 2
Flags: W
AnchorPoint: "Anchor-3" 270 -480 basechar 0
AnchorPoint: "Anchor-2" 150 1530 basechar 0
LayerCount: 2
Fore
SplineSet
721 0 m 1,0,-1
 663 0 l 2,1,2
 549 0 549 0 519 72 c 1,3,4
 482 0 482 0 370 0 c 2,5,-1
 -80 0 l 1,6,-1
 -80 660 l 1,7,-1
 157 660 l 2,8,9
 220 660 220 660 220 703 c 0,10,11
 220 710 220 710 219 716 c 2,12,-1
 140 1173 l 2,13,14
 133 1211 133 1211 162 1232 c 2,15,-1
 394 1399 l 2,16,17
 409 1410 409 1410 420 1410 c 0,18,19
 437 1410 437 1410 445 1384 c 2,20,-1
 523 1144 l 2,21,22
 527 1132 527 1132 526 1122 c 0,23,24
 525 1107 525 1107 515 1098 c 2,25,-1
 469 1055 l 2,26,27
 459 1045 459 1045 463 1023 c 0,28,29
 482 926 482 926 522 660 c 1,30,-1
 721 660 l 1,31,-1
 721 0 l 1,0,-1
EndSplineSet
EndChar

StartChar: afii57445
Encoding: 1605 1605 245
Width: 1105
GlyphClass: 2
Flags: W
AnchorPoint: "Anchor-3" 765 -570 basechar 0
AnchorPoint: "Anchor-2" 630 1230 basechar 0
LayerCount: 2
Fore
SplineSet
1111 495 m 0,0,1
 1111 298 1111 298 1033 101 c 0,2,3
 946 -118 946 -118 836 -118 c 0,4,5
 767 -118 767 -118 654.5 -40 c 128,-1,6
 542 38 542 38 499 38 c 0,7,8
 416 38 416 38 416 -92 c 0,9,10
 416 -141 416 -141 428.5 -238 c 128,-1,11
 441 -335 441 -335 441 -384 c 0,12,13
 441 -425 441 -425 425 -435 c 2,14,-1
 295 -518 l 2,15,16
 279 -528 279 -528 270 -528 c 0,17,18
 253 -528 253 -528 248 -499 c 0,19,20
 143 85 143 85 143 352 c 0,21,22
 143 509 143 509 206 623 c 0,23,24
 278 753 278 753 401 753 c 0,25,26
 432 753 432 753 494 744 c 128,-1,27
 556 735 556 735 546 735 c 1,28,29
 634 886 634 886 646 899 c 0,30,31
 720 984 720 984 845 984 c 0,32,33
 986 984 986 984 1058 798 c 0,34,35
 1111 662 1111 662 1111 495 c 0,0,1
952 552 m 1,36,37
 953 563 953 563 953 574 c 0,38,39
 953 631 953 631 923 677 c 0,40,41
 890 730 890 730 836 730 c 0,42,43
 759 730 759 730 724 663 c 1,44,-1
 952 552 l 1,36,37
EndSplineSet
Substitution2: "'medi' Medial Forms in Arabic lookup 3 subtable" afii62821
Substitution2: "'fina' Terminal Forms in Arabic lookup 2 subtable" afii62822
Substitution2: "'init' Initial Forms in Arabic lookup 1 subtable" afii62820
EndChar

StartChar: afii62822
Encoding: 65250 65250 246
Width: 1331
GlyphClass: 2
Flags: W
AnchorPoint: "Anchor-3" 855 -585 basechar 0
AnchorPoint: "Anchor-2" 615 1200 basechar 0
LayerCount: 2
Fore
SplineSet
1331 0 m 1,0,-1
 1181 0 l 2,1,2
 1137 0 1137 0 1058 42 c 1,3,4
 967 -67 967 -67 948 -86 c 0,5,6
 870 -164 870 -164 811 -164 c 0,7,8
 775 -164 775 -164 658.5 -86.5 c 128,-1,9
 542 -9 542 -9 488 -9 c 0,10,11
 405 -9 405 -9 405 -138 c 0,12,13
 405 -187 405 -187 417.5 -283.5 c 128,-1,14
 430 -380 430 -380 430 -429 c 0,15,16
 430 -470 430 -470 414 -480 c 2,17,-1
 284 -563 l 2,18,19
 268 -573 268 -573 259 -573 c 0,20,21
 242 -573 242 -573 237 -544 c 0,22,23
 132 127 132 127 132 307 c 0,24,25
 132 467 132 467 195 584 c 0,26,27
 267 718 267 718 390 718 c 0,28,29
 413 718 413 718 454.5 707.5 c 128,-1,30
 496 697 496 697 514 697 c 1,31,32
 587 767 587 767 665 836 c 0,33,34
 786 943 786 943 868 943 c 0,35,36
 918 943 918 943 1049.5 801.5 c 128,-1,37
 1181 660 1181 660 1221 660 c 2,38,-1
 1331 660 l 1,39,-1
 1331 0 l 1,0,-1
962 509 m 1,40,41
 968 526 968 526 968 548 c 0,42,43
 968 599 968 599 940 645 c 0,44,45
 908 697 908 697 860 697 c 0,46,47
 784 697 784 697 734 630 c 1,48,49
 872 597 872 597 962 509 c 1,40,41
EndSplineSet
EndChar

StartChar: afii62820
Encoding: 65251 65251 247
Width: 889
GlyphClass: 2
Flags: W
AnchorPoint: "Anchor-3" 225 -510 basechar 0
AnchorPoint: "Anchor-2" 390 1170 basechar 0
LayerCount: 2
Fore
SplineSet
889 630 m 0,0,1
 889 473 889 473 774 179 c 0,2,3
 644 -154 644 -154 521 -154 c 0,4,5
 486 -154 486 -154 352 -77 c 128,-1,6
 218 0 218 0 158 0 c 2,7,-1
 -81 0 l 1,8,-1
 -81 660 l 1,9,-1
 122 660 l 2,10,11
 185 660 185 660 249 736 c 0,12,13
 281 776 281 776 368 877 c 0,14,15
 435 953 435 953 518 953 c 0,16,17
 606 953 606 953 710 823 c 0,18,19
 826 677 826 677 871 660 c 0,20,21
 889 653 889 653 889 630 c 0,0,1
632 509 m 1,22,23
 638 526 638 526 638 548 c 0,24,25
 638 599 638 599 610 645 c 0,26,27
 578 697 578 697 530 697 c 0,28,29
 454 697 454 697 404 630 c 1,30,31
 542 597 542 597 632 509 c 1,22,23
EndSplineSet
EndChar

StartChar: afii57446
Encoding: 1606 1606 248
Width: 1217
GlyphClass: 2
Flags: W
AnchorPoint: "Anchor-3" 675 -855 basechar 0
AnchorPoint: "Anchor-2" 675 1290 basechar 0
LayerCount: 2
Fore
SplineSet
1217 385 m 0,0,1
 1217 66 1217 66 1067 -176 c 0,2,3
 900 -446 900 -446 631 -446 c 0,4,5
 413 -446 413 -446 268 -283 c 0,6,7
 130 -126 130 -126 130 95 c 0,8,9
 130 340 130 340 319 553 c 0,10,11
 383 625 383 625 404 625 c 0,12,13
 448 625 448 625 448 574 c 0,14,15
 448 555 448 555 441.5 518 c 128,-1,16
 435 481 435 481 435 462 c 0,17,18
 435 373 435 373 489 314 c 0,19,20
 544 252 544 252 632 252 c 0,21,22
 755 252 755 252 835.5 324.5 c 128,-1,23
 916 397 916 397 916 519 c 0,24,25
 916 595 916 595 880 646 c 0,26,27
 859 676 859 676 880 695 c 2,28,-1
 1051 852 l 2,29,30
 1071 870 1071 870 1087 852 c 0,31,32
 1121 814 1121 814 1157 722 c 0,33,34
 1217 570 1217 570 1217 385 c 0,0,1
861 944 m 2,35,36
 877 928 877 928 857 908 c 2,37,-1
 710 760 l 2,38,39
 694 744 694 744 677 760 c 2,40,-1
 526 909 l 2,41,42
 507 928 507 928 526 947 c 2,43,-1
 673 1094 l 2,44,45
 682 1103 682 1103 692 1103 c 256,46,47
 702 1103 702 1103 711 1094 c 2,48,-1
 861 944 l 2,35,36
EndSplineSet
Substitution2: "'medi' Medial Forms in Arabic lookup 3 subtable" afii62824
Substitution2: "'fina' Terminal Forms in Arabic lookup 2 subtable" afii62825
Substitution2: "'init' Initial Forms in Arabic lookup 1 subtable" afii62823
EndChar

StartChar: afii62825
Encoding: 65254 65254 249
Width: 1355
GlyphClass: 2
Flags: W
AnchorPoint: "Anchor-3" 660 -855 basechar 0
AnchorPoint: "Anchor-2" 675 1305 basechar 0
LayerCount: 2
Fore
SplineSet
1355 0 m 1,0,-1
 1150 0 l 1,1,2
 1080 -193 1080 -193 959 -309 c 0,3,4
 817 -446 817 -446 631 -446 c 0,5,6
 413 -446 413 -446 268 -283 c 0,7,8
 130 -126 130 -126 130 95 c 0,9,10
 130 340 130 340 319 553 c 0,11,12
 383 625 383 625 404 625 c 0,13,14
 448 625 448 625 448 574 c 0,15,16
 448 555 448 555 441.5 518 c 128,-1,17
 435 481 435 481 435 462 c 0,18,19
 435 373 435 373 489 314 c 0,20,21
 544 252 544 252 632 252 c 0,22,23
 755 252 755 252 835.5 324.5 c 128,-1,24
 916 397 916 397 916 519 c 0,25,26
 916 595 916 595 880 646 c 0,27,28
 859 676 859 676 880 695 c 2,29,-1
 1051 852 l 2,30,31
 1071 870 1071 870 1087 852 c 0,32,33
 1138 795 1138 795 1178 660 c 1,34,-1
 1355 660 l 1,35,-1
 1355 0 l 1,0,-1
855 944 m 2,36,37
 871 928 871 928 851 908 c 2,38,-1
 704 760 l 2,39,40
 688 744 688 744 671 760 c 2,41,-1
 520 909 l 2,42,43
 501 928 501 928 520 947 c 2,44,-1
 667 1094 l 2,45,46
 676 1103 676 1103 686 1103 c 256,47,48
 696 1103 696 1103 705 1094 c 2,49,-1
 855 944 l 2,36,37
EndSplineSet
EndChar

StartChar: afii62828
Encoding: 65258 65258 253
Width: 1060
GlyphClass: 2
Flags: W
AnchorPoint: "Anchor-3" 585 -405 basechar 0
AnchorPoint: "Anchor-2" 495 1230 basechar 0
LayerCount: 2
Fore
SplineSet
1060 0 m 1,0,-1
 961 0 l 2,1,2
 846 0 846 0 754 101 c 0,3,4
 671 193 671 193 671 280 c 1,5,6
 653 245 653 245 544 102 c 0,7,8
 521 72 521 72 488 94 c 2,9,-1
 144 317 l 2,10,11
 136 322 136 322 134 340 c 256,12,13
 132 358 132 358 140 373 c 0,14,15
 212 510 212 510 289 641 c 1,16,17
 305 659 305 659 621 910 c 1,18,-1
 621 946 l 2,19,20
 621 970 621 970 633 977 c 2,21,-1
 772 1058 l 2,22,23
 793 1070 793 1070 795 1044 c 0,24,25
 803 928 803 928 822 778 c 0,26,27
 837 660 837 660 953 660 c 2,28,-1
 1060 660 l 1,29,-1
 1060 0 l 1,0,-1
635 546 m 1,30,-1
 635 734 l 1,31,-1
 470 572 l 1,32,-1
 590 489 l 1,33,-1
 635 546 l 1,30,-1
EndSplineSet
EndChar

StartChar: afii57448
Encoding: 1608 1608 254
Width: 982
GlyphClass: 2
Flags: W
AnchorPoint: "Anchor-3" 525 -855 basechar 0
AnchorPoint: "Anchor-2" 615 1335 basechar 0
LayerCount: 2
Fore
SplineSet
982 285 m 0,0,1
 982 11 982 11 858 -189 c 0,2,3
 712 -424 712 -424 454 -424 c 0,4,5
 336 -424 336 -424 234 -361 c 0,6,7
 127 -296 127 -296 82 -191 c 0,8,9
 57 -132 57 -132 96 -132 c 0,10,11
 319 -132 319 -132 438 -104 c 0,12,13
 592 -68 592 -68 668 30 c 1,14,15
 604 9 604 9 533 9 c 0,16,17
 381 9 381 9 295 92.5 c 128,-1,18
 209 176 209 176 209 328 c 0,19,20
 209 494 209 494 301 745 c 0,21,22
 423 1077 423 1077 601 1077 c 0,23,24
 746 1077 746 1077 861 849 c 0,25,26
 982 610 982 610 982 285 c 0,0,1
745 636 m 1,27,28
 745 703 745 703 693.5 752 c 128,-1,29
 642 801 642 801 575 801 c 0,30,31
 491 801 491 801 503 732 c 0,32,33
 512 681 512 681 567 651 c 0,34,35
 615 624 615 624 671 624 c 0,36,37
 708 624 708 624 745 636 c 1,27,28
EndSplineSet
Substitution2: "'fina' Terminal Forms in Arabic lookup 2 subtable" afii62829
PairPos2: "'kern' Horizontal Kerning in Arabic lookup 0 subtable" afii57415 dx=0 dy=0 dh=0 dv=0 dx=0 dy=0 dh=-50 dv=0
EndChar

StartChar: afii62829
Encoding: 65262 65262 255
Width: 1133
GlyphClass: 2
Flags: W
AnchorPoint: "Anchor-3" 495 -840 basechar 0
AnchorPoint: "Anchor-2" 585 1290 basechar 0
LayerCount: 2
Fore
SplineSet
1134 0 m 1,0,-1
 950 0 l 1,1,2
 894 -186 894 -186 776 -298 c 0,3,4
 644 -424 644 -424 462 -424 c 0,5,6
 344 -424 344 -424 242 -361 c 0,7,8
 135 -296 135 -296 90 -191 c 0,9,10
 65 -132 65 -132 104 -132 c 0,11,12
 327 -132 327 -132 446 -104 c 0,13,14
 600 -68 600 -68 676 30 c 1,15,16
 612 9 612 9 541 9 c 0,17,18
 389 9 389 9 303 92.5 c 128,-1,19
 217 176 217 176 217 328 c 0,20,21
 217 494 217 494 309 745 c 0,22,23
 431 1077 431 1077 609 1077 c 0,24,25
 727 1077 727 1077 827 921 c 0,26,27
 900 807 900 807 941 660 c 1,28,-1
 1134 660 l 1,29,-1
 1134 0 l 1,0,-1
753 636 m 1,30,31
 753 703 753 703 701.5 752 c 128,-1,32
 650 801 650 801 583 801 c 0,33,34
 499 801 499 801 511 732 c 0,35,36
 520 681 520 681 575 651 c 0,37,38
 623 624 623 624 679 624 c 0,39,40
 716 624 716 624 753 636 c 1,30,31
EndSplineSet
PairPos2: "'kern' Horizontal Kerning in Arabic lookup 0 subtable" afii57415 dx=0 dy=0 dh=0 dv=0 dx=0 dy=0 dh=-80 dv=0
EndChar

StartChar: afii62840
Encoding: 65275 65275 268
Width: 999
GlyphClass: 3
Flags: W
AnchorPoint: "Anchor-1" 885 -345 baselig 0
AnchorPoint: "Anchor-0" 870 1545 baselig 0
AnchorPoint: "Anchor-1" 360 -345 baselig 1
AnchorPoint: "Anchor-0" 285 1530 baselig 1
LayerCount: 2
Fore
SplineSet
1018 1212 m 2,0,1
 1023 1190 1023 1190 1007 1174 c 0,2,3
 985 1152 985 1152 980 1128 c 0,4,5
 955 1014 955 1014 861 853 c 1,6,-1
 938 748 l 2,7,8
 999 665 999 665 999 622 c 2,9,-1
 999 54 l 2,10,11
 999 0 999 0 957 0 c 2,12,-1
 292 0 l 2,13,14
 238 0 238 0 238 52 c 2,15,-1
 240 517 l 2,16,17
 241 636 241 636 414 702 c 0,18,19
 534 748 534 748 596 846 c 1,20,21
 453 1015 453 1015 392 1015 c 0,22,23
 385 1015 385 1015 381 1014 c 0,24,25
 322 997 322 997 278 1042 c 2,26,-1
 148 1174 l 2,27,28
 128 1195 128 1195 144 1228 c 2,29,-1
 244 1430 l 2,30,31
 254 1451 254 1451 298 1426 c 0,32,33
 383 1378 383 1378 519 1246 c 0,34,35
 621 1147 621 1147 686 1070 c 1,36,37
 690 1106 690 1106 690 1145 c 0,38,39
 690 1179 690 1179 683 1246.5 c 128,-1,40
 676 1314 676 1314 676 1304 c 1,41,42
 676 1344 676 1344 688 1350 c 2,43,-1
 894 1446 l 2,44,45
 913 1455 913 1455 928 1455 c 0,46,47
 959 1455 959 1455 971 1420 c 2,48,-1
 1018 1212 l 2,0,1
827 528 m 1,49,50
 827 558 827 558 791.5 618.5 c 128,-1,51
 756 679 756 679 730 695 c 1,52,-1
 658 612 l 2,53,54
 614 562 614 562 563 527 c 1,55,-1
 827 528 l 1,49,50
EndSplineSet
Ligature2: "'rlig' Required Ligatures in Arabic lookup 6 subtable" afii62817 afii62760
Substitution2: "'fina' Terminal Forms in Arabic lookup 2 subtable" afii62841
EndChar

StartChar: afii62841
Encoding: 65276 65276 269
Width: 1355
GlyphClass: 3
Flags: W
AnchorPoint: "Anchor-1" 1050 -405 baselig 0
AnchorPoint: "Anchor-0" 945 1575 baselig 0
AnchorPoint: "Anchor-1" 420 -390 baselig 1
AnchorPoint: "Anchor-0" 255 1575 baselig 1
LayerCount: 2
Fore
SplineSet
1357 0 m 1,0,-1
 1105 0 l 2,1,2
 1029 0 1029 0 968 95 c 0,3,4
 943 134 943 134 902 235 c 1,5,6
 770 0 770 0 527 0 c 0,7,8
 260 0 260 0 260 202 c 2,9,-1
 260 656 l 2,10,11
 260 693 260 693 290 693 c 0,12,13
 303 693 303 693 360 641 c 1,14,15
 404 611 404 611 473 611 c 0,16,17
 612 611 612 611 644 663 c 1,18,-1
 532 818 l 2,19,20
 506 854 506 854 431 930 c 1,21,-1
 395 898 l 2,22,23
 371 877 371 877 358 877 c 0,24,25
 350 877 350 877 344 884 c 2,26,-1
 148 1106 l 2,27,28
 132 1124 132 1124 150 1156 c 2,29,-1
 290 1414 l 2,30,31
 301 1434 301 1434 316 1434 c 0,32,33
 334 1434 334 1434 354 1406 c 1,34,35
 462 1296 462 1296 546 1194 c 0,36,37
 752 944 752 944 826 749 c 1,38,39
 895 804 895 804 912 980 c 0,40,41
 919 1050 919 1050 918 1250 c 0,42,43
 918 1290 918 1290 934 1302 c 2,44,-1
 1094 1423 l 2,45,46
 1115 1439 1115 1439 1130 1439 c 0,47,48
 1152 1439 1152 1439 1152 1402 c 2,49,-1
 1151 758 l 2,50,51
 1151 657 1151 657 1304 657 c 0,52,53
 1332 657 1332 657 1357 660 c 1,54,-1
 1357 0 l 1,0,-1
EndSplineSet
Ligature2: "'rlig' Required Ligatures in Arabic lookup 6 subtable" afii62818 afii62760
EndChar

StartChar: afii59759
Encoding: 3663 3663 276
Width: 1233
GlyphClass: 2
Flags: W
LayerCount: 2
Fore
SplineSet
616 983 m 0,0,1
 823 983 823 983 969.5 836.5 c 128,-1,2
 1116 690 1116 690 1116 483 c 0,3,4
 1116 277 1116 277 969.5 130.5 c 128,-1,5
 823 -16 823 -16 616 -16 c 0,6,7
 410 -16 410 -16 263.5 130.5 c 128,-1,8
 117 277 117 277 117 483 c 0,9,10
 117 690 117 690 263.5 836.5 c 128,-1,11
 410 983 410 983 616 983 c 0,0,1
616 147 m 0,12,13
 758 147 758 147 849 242 c 128,-1,14
 940 337 940 337 940 483 c 256,15,16
 940 629 940 629 849 724 c 128,-1,17
 758 819 758 819 616 819 c 0,18,19
 475 819 475 819 384 724 c 128,-1,20
 293 629 293 629 293 483 c 256,21,22
 293 337 293 337 384 242 c 128,-1,23
 475 147 475 147 616 147 c 0,12,13
616 598 m 0,24,25
 664 598 664 598 697.5 565 c 128,-1,26
 731 532 731 532 731 485 c 256,27,28
 731 438 731 438 697.5 404.5 c 128,-1,29
 664 371 664 371 616 371 c 0,30,31
 569 371 569 371 535.5 404.5 c 128,-1,32
 502 438 502 438 502 485 c 256,33,34
 502 532 502 532 535.5 565 c 128,-1,35
 569 598 569 598 616 598 c 0,24,25
EndSplineSet
EndChar

StartChar: afii59760
Encoding: 3664 3664 277
Width: 1233
GlyphClass: 2
Flags: W
LayerCount: 2
Fore
SplineSet
616 924 m 0,0,1
 834 924 834 924 975 794.5 c 128,-1,2
 1116 665 1116 665 1116 453 c 0,3,4
 1116 242 1116 242 975 113 c 128,-1,5
 834 -16 834 -16 616 -16 c 0,6,7
 399 -16 399 -16 258 113 c 128,-1,8
 117 242 117 242 117 453 c 0,9,10
 117 665 117 665 258 794.5 c 128,-1,11
 399 924 399 924 616 924 c 0,0,1
616 150 m 0,12,13
 765 150 765 150 852.5 231 c 128,-1,14
 940 312 940 312 940 453 c 256,15,16
 940 594 940 594 852 677 c 128,-1,17
 764 760 764 760 616 760 c 0,18,19
 469 760 469 760 381 677 c 128,-1,20
 293 594 293 594 293 453 c 0,21,22
 293 310 293 310 381.5 230 c 128,-1,23
 470 150 470 150 616 150 c 0,12,13
EndSplineSet
EndChar

StartChar: glyph279
Encoding: 65559 -1 279
Width: 0
GlyphClass: 2
Flags: W
LayerCount: 2
Fore
SplineSet
36 1831 m 1,0,-1
 36 863 l 1,1,-1
 -36 863 l 1,2,-1
 -36 1831 l 1,3,-1
 36 1831 l 1,0,-1
36 543 m 1,4,-1
 36 -423 l 1,5,-1
 -36 -423 l 1,6,-1
 -36 543 l 1,7,-1
 36 543 l 1,4,-1
EndSplineSet
EndChar

StartChar: glyph280
Encoding: 65560 -1 280
Width: 0
GlyphClass: 2
Flags: W
LayerCount: 2
Fore
SplineSet
-234 -423 m 1,0,-1
 -234 -352 l 1,1,-1
 -36 -352 l 1,2,-1
 -36 1760 l 1,3,-1
 -234 1760 l 1,4,-1
 -234 1831 l 1,5,-1
 234 1831 l 1,6,-1
 234 1760 l 1,7,-1
 36 1760 l 1,8,-1
 36 -352 l 1,9,-1
 234 -352 l 1,10,-1
 234 -423 l 1,11,-1
 -234 -423 l 1,0,-1
EndSplineSet
EndChar

StartChar: glyph281
Encoding: 65561 -1 281
Width: 0
GlyphClass: 2
Flags: W
LayerCount: 2
Fore
SplineSet
224 1646 m 1,0,-1
 36 1504 l 1,1,-1
 36 -423 l 1,2,-1
 -36 -423 l 1,3,-1
 -36 1831 l 1,4,-1
 224 1646 l 1,0,-1
EndSplineSet
EndChar

StartChar: glyph282
Encoding: 65562 -1 282
Width: 0
GlyphClass: 2
Flags: W
LayerCount: 2
Fore
SplineSet
36 1831 m 1,0,-1
 36 -423 l 1,1,-1
 -36 -423 l 1,2,-1
 -36 1504 l 1,3,-1
 -224 1646 l 1,4,-1
 36 1831 l 1,0,-1
EndSplineSet
EndChar

StartChar: glyph283
Encoding: 65563 -1 283
Width: 0
GlyphClass: 2
Flags: W
LayerCount: 2
Fore
SplineSet
36 1831 m 1,0,-1
 36 -352 l 1,1,-1
 234 -352 l 1,2,-1
 234 -423 l 1,3,-1
 -36 -423 l 1,4,-1
 -36 1831 l 1,5,-1
 36 1831 l 1,0,-1
EndSplineSet
EndChar

StartChar: glyph284
Encoding: 65564 -1 284
Width: 0
GlyphClass: 2
Flags: W
LayerCount: 2
Fore
SplineSet
224 1646 m 1,0,-1
 36 1504 l 1,1,-1
 36 -423 l 1,2,-1
 -36 -423 l 1,3,-1
 -36 1504 l 1,4,-1
 -224 1641 l 1,5,-1
 0 1831 l 1,6,-1
 224 1646 l 1,0,-1
EndSplineSet
EndChar

StartChar: uni0670
Encoding: 1648 1648 297
Width: 0
GlyphClass: 4
Flags: W
AnchorPoint: "Anchor-2" 0 0 mark 0
AnchorPoint: "Anchor-0" 0 0 mark 0
LayerCount: 2
Fore
SplineSet
50 28 m 1,0,-1
 -25 -5 l 1,1,2
 -26 30 -26 30 -30 66 c 0,3,4
 -41 154 -41 154 -69 317 c 1,5,-1
 12 368 l 1,6,7
 57 155 57 155 57 75 c 0,8,9
 57 42 57 42 50 28 c 1,0,-1
EndSplineSet
EndChar

StartChar: glyph298
Encoding: 65565 -1 298
Width: 458
GlyphClass: 2
Flags: W
LayerCount: 2
Fore
SplineSet
235 1433 m 2,0,1
 266 1457 266 1457 294 1461.5 c 128,-1,2
 322 1466 322 1466 343 1455 c 128,-1,3
 364 1444 364 1444 377 1419 c 128,-1,4
 390 1394 390 1394 390 1357 c 2,5,-1
 389 1277 l 1,6,-1
 69 1277 l 1,7,-1
 69 1335 l 1,8,-1
 123 1335 l 1,9,-1
 235 1433 l 2,0,1
203 1335 m 1,10,-1
 331 1335 l 1,11,-1
 331 1365 l 2,12,13
 329 1394 329 1394 311 1402 c 128,-1,14
 293 1410 293 1410 263 1388 c 2,15,-1
 203 1335 l 1,10,-1
EndSplineSet
EndChar

StartChar: glyph299
Encoding: 65566 -1 299
Width: 1258
GlyphClass: 2
Flags: W
LayerCount: 2
Fore
SplineSet
1268 389 m 0,0,1
 1268 72 1268 72 1099 -150 c 0,2,3
 914 -394 914 -394 607 -394 c 0,4,5
 379 -394 379 -394 254 -260 c 0,6,7
 133 -129 133 -129 133 100 c 0,8,9
 133 346 133 346 227 501 c 0,10,11
 256 549 256 549 275 549 c 0,12,13
 297 549 297 549 297 483 c 0,14,15
 297 285 297 285 386 121 c 0,16,17
 493 -77 493 -77 676 -77 c 0,18,19
 812 -77 812 -77 905 27 c 1,20,21
 832 6 832 6 769 6 c 0,22,23
 654 6 654 6 584 71.5 c 128,-1,24
 514 137 514 137 502 252 c 0,25,26
 494 327 494 327 551 512 c 0,27,28
 616 724 616 724 707 862 c 0,29,30
 822 1037 822 1037 943 1037 c 0,31,32
 1068 1037 1068 1037 1163 869 c 0,33,34
 1268 683 1268 683 1268 389 c 0,0,1
1041 623 m 1,35,36
 1041 688 1041 688 993 734 c 128,-1,37
 945 780 945 780 879 780 c 0,38,39
 862 780 862 780 847 776 c 0,40,41
 802 764 802 764 810 715 c 256,42,43
 818 666 818 666 871 637 c 0,44,45
 916 612 916 612 970 612 c 0,46,47
 1006 612 1006 612 1041 623 c 1,35,36
EndSplineSet
EndChar

StartChar: uni06DD
Encoding: 1757 1757 388
Width: 2300
GlyphClass: 2
Flags: W
LayerCount: 2
Fore
SplineSet
2250 715 m 256,0,1
 2250 469 2250 469 2146 249 c 0,2,3
 2046 35 2046 35 1867 -119 c 1,4,5
 1870 -133 1870 -133 1870 -148 c 0,6,7
 1870 -203 1870 -203 1831 -241.5 c 128,-1,8
 1792 -280 1792 -280 1737 -280 c 0,9,10
 1697 -280 1697 -280 1664 -258 c 1,11,12
 1424 -385 1424 -385 1149 -385 c 0,13,14
 876 -385 876 -385 636 -258 c 1,15,16
 603 -280 603 -280 563 -280 c 0,17,18
 508 -280 508 -280 469 -241.5 c 128,-1,19
 430 -203 430 -203 430 -148 c 0,20,21
 430 -133 430 -133 433 -119 c 1,22,23
 254 35 254 35 154 249 c 0,24,25
 50 469 50 469 50 715 c 256,26,27
 50 961 50 961 154 1181 c 0,28,29
 254 1394 254 1394 433 1548 c 1,30,31
 430 1562 430 1562 430 1577 c 0,32,33
 430 1632 430 1632 469 1670.5 c 128,-1,34
 508 1709 508 1709 563 1709 c 0,35,36
 603 1709 603 1709 636 1687 c 1,37,38
 876 1814 876 1814 1151 1814 c 0,39,40
 1424 1814 1424 1814 1664 1687 c 1,41,42
 1697 1709 1697 1709 1737 1709 c 0,43,44
 1792 1709 1792 1709 1831 1670.5 c 128,-1,45
 1870 1632 1870 1632 1870 1577 c 0,46,47
 1870 1562 1870 1562 1867 1548 c 1,48,49
 2046 1394 2046 1394 2146 1181 c 0,50,51
 2250 961 2250 961 2250 715 c 256,0,1
1816 1576 m 0,52,53
 1816 1609 1816 1609 1793 1632 c 128,-1,54
 1770 1655 1770 1655 1738 1655 c 256,55,56
 1706 1655 1706 1655 1682.5 1631.5 c 128,-1,57
 1659 1608 1659 1608 1659 1576 c 256,58,59
 1659 1544 1659 1544 1682 1521 c 128,-1,60
 1705 1498 1705 1498 1738 1498 c 0,61,62
 1770 1498 1770 1498 1793 1521 c 128,-1,63
 1816 1544 1816 1544 1816 1576 c 0,52,53
1602 1595 m 1,64,65
 1390 1704 1390 1704 1151 1704 c 0,66,67
 910 1704 910 1704 698 1595 c 1,68,-1
 1602 1595 l 1,64,65
641 1576 m 256,69,70
 641 1608 641 1608 617.5 1631.5 c 128,-1,71
 594 1655 594 1655 562 1655 c 256,72,73
 530 1655 530 1655 507 1632 c 128,-1,74
 484 1609 484 1609 484 1576 c 0,75,76
 484 1544 484 1544 507 1521 c 128,-1,77
 530 1498 530 1498 562 1498 c 0,78,79
 595 1498 595 1498 618 1521 c 128,-1,80
 641 1544 641 1544 641 1576 c 256,69,70
2140 714 m 0,81,82
 2140 933 2140 933 2048 1131 c 0,83,84
 1960 1321 1960 1321 1801 1460 c 1,85,86
 1772 1444 1772 1444 1737 1444 c 0,87,88
 1681 1444 1681 1444 1642 1485 c 1,89,-1
 658 1485 l 1,90,91
 619 1444 619 1444 563 1444 c 0,92,93
 528 1444 528 1444 499 1460 c 1,94,95
 340 1321 340 1321 252 1131 c 0,96,97
 160 933 160 933 160 714 c 0,98,99
 160 265 160 265 499 -31 c 1,100,101
 528 -15 528 -15 563 -15 c 0,102,103
 619 -15 619 -15 658 -56 c 1,104,-1
 1642 -56 l 1,105,106
 1681 -15 1681 -15 1737 -15 c 0,107,108
 1772 -15 1772 -15 1801 -31 c 1,109,110
 2140 265 2140 265 2140 714 c 0,81,82
1816 -147 m 0,111,112
 1816 -115 1816 -115 1793 -92 c 128,-1,113
 1770 -69 1770 -69 1738 -69 c 0,114,115
 1705 -69 1705 -69 1682 -92 c 128,-1,116
 1659 -115 1659 -115 1659 -147 c 256,117,118
 1659 -179 1659 -179 1682.5 -202.5 c 128,-1,119
 1706 -226 1706 -226 1738 -226 c 256,120,121
 1770 -226 1770 -226 1793 -203 c 128,-1,122
 1816 -180 1816 -180 1816 -147 c 0,111,112
1602 -166 m 1,123,-1
 698 -166 l 1,124,125
 910 -275 910 -275 1151 -275 c 0,126,127
 1390 -275 1390 -275 1602 -166 c 1,123,-1
641 -147 m 256,128,129
 641 -115 641 -115 618 -92 c 128,-1,130
 595 -69 595 -69 562 -69 c 0,131,132
 530 -69 530 -69 507 -92 c 128,-1,133
 484 -115 484 -115 484 -147 c 0,134,135
 484 -180 484 -180 507 -203 c 128,-1,136
 530 -226 530 -226 562 -226 c 256,137,138
 594 -226 594 -226 617.5 -202.5 c 128,-1,139
 641 -179 641 -179 641 -147 c 256,128,129
EndSplineSet
EndChar

StartChar: uni06DE
Encoding: 1758 1758 389
Width: 2221
GlyphClass: 2
Flags: W
LayerCount: 2
Fore
SplineSet
2171 750 m 1,0,-1
 1861 439 l 1,1,-1
 1861 0 l 1,2,-1
 1421 0 l 1,3,-1
 1111 -311 l 1,4,-1
 800 0 l 1,5,-1
 361 0 l 1,6,-1
 361 439 l 1,7,-1
 50 750 l 1,8,-1
 361 1061 l 1,9,-1
 361 1500 l 1,10,-1
 800 1500 l 1,11,-1
 1111 1811 l 1,12,-1
 1421 1500 l 1,13,-1
 1861 1500 l 1,14,-1
 1861 1061 l 1,15,-1
 2171 750 l 1,0,-1
436 364 m 1,16,-1
 436 75 l 1,17,-1
 725 75 l 1,18,-1
 436 364 l 1,16,-1
725 1425 m 1,19,-1
 436 1425 l 1,20,-1
 436 1136 l 1,21,-1
 725 1425 l 1,19,-1
1786 1136 m 1,22,-1
 1786 1425 l 1,23,-1
 1496 1425 l 1,24,-1
 1786 1136 l 1,22,-1
1786 75 m 1,25,-1
 1786 364 l 1,26,-1
 1496 75 l 1,27,-1
 1786 75 l 1,25,-1
906 0 m 1,28,-1
 1111 -205 l 1,29,-1
 1315 0 l 1,30,-1
 906 0 l 1,28,-1
361 955 m 1,31,-1
 156 750 l 1,32,-1
 361 545 l 1,33,-1
 361 955 l 1,31,-1
1315 1500 m 1,34,-1
 1111 1705 l 1,35,-1
 906 1500 l 1,36,-1
 1315 1500 l 1,34,-1
1786 1030 m 1,37,-1
 1390 1425 l 1,38,-1
 831 1425 l 1,39,-1
 436 1030 l 1,40,-1
 436 470 l 1,41,-1
 831 75 l 1,42,-1
 1390 75 l 1,43,-1
 1786 470 l 1,44,-1
 1786 1030 l 1,37,-1
2065 750 m 1,45,-1
 1861 955 l 1,46,-1
 1861 545 l 1,47,-1
 2065 750 l 1,45,-1
1328 750 m 256,48,49
 1328 660 1328 660 1264.5 596 c 128,-1,50
 1201 532 1201 532 1111 532 c 256,51,52
 1021 532 1021 532 957 596 c 128,-1,53
 893 660 893 660 893 750 c 256,54,55
 893 840 893 840 957 903.5 c 128,-1,56
 1021 967 1021 967 1111 967 c 256,57,58
 1201 967 1201 967 1264.5 903.5 c 128,-1,59
 1328 840 1328 840 1328 750 c 256,48,49
1253 750 m 256,60,61
 1253 809 1253 809 1211 850.5 c 128,-1,62
 1169 892 1169 892 1110 892 c 256,63,64
 1051 892 1051 892 1009 850.5 c 128,-1,65
 967 809 967 809 967 750 c 256,66,67
 967 691 967 691 1009 649 c 128,-1,68
 1051 607 1051 607 1110 607 c 256,69,70
 1169 607 1169 607 1211 649 c 128,-1,71
 1253 691 1253 691 1253 750 c 256,60,61
EndSplineSet
EndChar

StartChar: uni06DF
Encoding: 1759 1759 390
Width: 0
GlyphClass: 2
Flags: W
LayerCount: 2
Fore
SplineSet
75 1429 m 256,0,1
 75 1398 75 1398 53 1376 c 128,-1,2
 31 1354 31 1354 0 1354 c 256,3,4
 -31 1354 -31 1354 -53 1376 c 128,-1,5
 -75 1398 -75 1398 -75 1429 c 256,6,7
 -75 1460 -75 1460 -53 1482 c 128,-1,8
 -31 1504 -31 1504 0 1504 c 256,9,10
 31 1504 31 1504 53 1482 c 128,-1,11
 75 1460 75 1460 75 1429 c 256,0,1
EndSplineSet
EndChar

StartChar: uni06E9
Encoding: 1769 1769 391
Width: 1229
GlyphClass: 2
Flags: W
LayerCount: 2
Fore
SplineSet
1179 0 m 1,0,-1
 50 0 l 1,1,-1
 278 261 l 1,2,-1
 278 849 l 1,3,-1
 50 1108 l 1,4,-1
 614 1676 l 1,5,-1
 1179 1108 l 1,6,-1
 951 849 l 1,7,-1
 951 261 l 1,8,-1
 1179 0 l 1,0,-1
1101 1108 m 1,9,-1
 614 1598 l 1,10,-1
 128 1108 l 1,11,-1
 338 871 l 1,12,-1
 338 239 l 1,13,-1
 178 56 l 1,14,-1
 1051 56 l 1,15,-1
 891 239 l 1,16,-1
 891 871 l 1,17,-1
 1101 1108 l 1,9,-1
995 1108 m 1,18,-1
 845 937 l 1,19,-1
 845 131 l 1,20,-1
 384 131 l 1,21,-1
 384 937 l 1,22,-1
 234 1108 l 1,23,-1
 614 1489 l 1,24,-1
 995 1108 l 1,18,-1
922 1108 m 1,25,-1
 614 1416 l 1,26,-1
 307 1108 l 1,27,-1
 433 968 l 1,28,-1
 433 186 l 1,29,-1
 796 186 l 1,30,-1
 796 968 l 1,31,-1
 922 1108 l 1,25,-1
833 1108 m 1,32,-1
 745 1011 l 1,33,-1
 745 267 l 1,34,-1
 484 267 l 1,35,-1
 484 1011 l 1,36,-1
 396 1108 l 1,37,-1
 614 1331 l 1,38,-1
 833 1108 l 1,32,-1
780 1108 m 1,39,-1
 614 1278 l 1,40,-1
 449 1108 l 1,41,-1
 523 1027 l 1,42,-1
 523 309 l 1,43,-1
 705 309 l 1,44,-1
 705 1027 l 1,45,-1
 780 1108 l 1,39,-1
EndSplineSet
EndChar

StartChar: uni06EB
Encoding: 1771 1771 393
Width: 0
GlyphClass: 2
Flags: W
LayerCount: 2
Fore
SplineSet
168 1522 m 1,0,-1
 -1 1354 l 1,1,-1
 -168 1521 l 1,2,-1
 1 1689 l 1,3,-1
 168 1522 l 1,0,-1
104 1522 m 1,4,-1
 0 1626 l 1,5,-1
 -104 1521 l 1,6,-1
 0 1417 l 1,7,-1
 104 1522 l 1,4,-1
EndSplineSet
EndChar

StartChar: comma
Encoding: 44 44 402
Width: 535
Flags: W
LayerCount: 2
Fore
SplineSet
153 -271 m 1,0,1
 250 -203 250 -203 294.5 -148 c 128,-1,2
 339 -93 339 -93 339 -43 c 0,3,4
 339 -29 339 -29 330 -18 c 128,-1,5
 321 -7 321 -7 309 -7 c 2,6,-1
 296 -7 l 1,7,-1
 276 -10 l 1,8,-1
 262 -10 l 2,9,10
 254 -10 254 -10 243.5 -7.5 c 128,-1,11
 233 -5 233 -5 222.5 -1 c 128,-1,12
 212 3 212 3 202 8.5 c 128,-1,13
 192 14 192 14 185 20 c 0,14,15
 162 36 162 36 151.5 62.5 c 128,-1,16
 141 89 141 89 141 123 c 0,17,18
 141 188 141 188 179.5 226.5 c 128,-1,19
 218 265 218 265 282 265 c 0,20,21
 321 265 321 265 353 250.5 c 128,-1,22
 385 236 385 236 408 210 c 128,-1,23
 431 184 431 184 443.5 148 c 128,-1,24
 456 112 456 112 456 67 c 0,25,26
 456 11 456 11 439 -38.5 c 128,-1,27
 422 -88 422 -88 387.5 -133.5 c 128,-1,28
 353 -179 353 -179 299.5 -222.5 c 128,-1,29
 246 -266 246 -266 171 -309 c 1,30,-1
 153 -271 l 1,0,1
EndSplineSet
EndChar

StartChar: afii57407
Encoding: 1567 1567 403
Width: 924
GlyphClass: 2
Flags: W
LayerCount: 2
Fore
SplineSet
924 1041 m 0,0,1
 924 963 924 963 856 905 c 0,2,3
 798 855 798 855 747 855 c 0,4,5
 721 855 721 855 721 875 c 0,6,7
 721 884 721 884 742.5 921.5 c 128,-1,8
 764 959 764 959 764 977 c 0,9,10
 764 1030 764 1030 728.5 1065.5 c 128,-1,11
 693 1101 693 1101 640 1101 c 0,12,13
 601 1101 601 1101 570.5 1072.5 c 128,-1,14
 540 1044 540 1044 540 1005 c 0,15,16
 540 948 540 948 619 877 c 2,17,-1
 765 746 l 1,18,19
 844 659 844 659 844 565 c 0,20,21
 844 442 844 442 742 360 c 0,22,23
 658 293 658 293 576 293 c 0,24,25
 464 293 464 293 391 401 c 1,26,27
 424 396 424 396 449 396 c 0,28,29
 537 396 537 396 537 483 c 0,30,31
 537 538 537 538 435 594 c 0,32,33
 290 674 290 674 246 715 c 0,34,35
 144 811 144 811 144 961 c 0,36,37
 144 1106 144 1106 270 1206 c 0,38,39
 387 1299 387 1299 536 1299 c 0,40,41
 670 1299 670 1299 785 1238 c 0,42,43
 924 1164 924 1164 924 1041 c 0,0,1
726 78 m 0,44,45
 726 9 726 9 677 -40 c 128,-1,46
 628 -89 628 -89 558 -89 c 0,47,48
 489 -89 489 -89 440 -40 c 128,-1,49
 391 9 391 9 391 78 c 0,50,51
 391 149 391 149 439.5 198 c 128,-1,52
 488 247 488 247 558 247 c 0,53,54
 629 247 629 247 677.5 198 c 128,-1,55
 726 149 726 149 726 78 c 0,44,45
EndSplineSet
EndChar

StartChar: afii57392
Encoding: 1776 1776 404
Width: 668
Flags: W
LayerCount: 2
Fore
SplineSet
561 473 m 2,0,-1
 369 282 l 2,1,2
 345 258 345 258 321 282 c 2,3,-1
 134 468 l 2,4,5
 110 492 110 492 134 516 c 2,6,-1
 327 706 l 2,7,8
 348 726 348 726 372 702 c 2,9,-1
 561 514 l 2,10,11
 582 494 582 494 561 473 c 2,0,-1
EndSplineSet
EndChar

StartChar: afii57393
Encoding: 1777 1777 405
Width: 854
Flags: W
LayerCount: 2
Fore
SplineSet
741 503 m 0,0,1
 741 324 741 324 691 157 c 0,2,3
 635 -30 635 -30 545 -100 c 1,4,5
 542 -94 542 -94 516 12 c 0,6,7
 479 162 479 162 391 404 c 0,8,9
 313 617 313 617 206 778 c 0,10,11
 122 905 122 905 118 914 c 1,12,-1
 443 1297 l 1,13,14
 471 1297 471 1297 558 1141 c 0,15,16
 641 991 641 991 669 901 c 0,17,18
 741 666 741 666 741 503 c 0,0,1
EndSplineSet
EndChar

StartChar: afii57394
Encoding: 1778 1778 406
Width: 1091
Flags: W
LayerCount: 2
Fore
SplineSet
989 1321 m 1,0,-1
 906 782 l 2,1,2
 897 725 897 725 702 725 c 1,3,4
 757 530 757 530 757 421 c 0,5,6
 757 239 757 239 653 63 c 0,7,8
 557 -100 557 -100 483 -100 c 1,9,10
 472 -74 472 -74 443 102 c 0,11,12
 413 285 413 285 385 362 c 0,13,14
 299 597 299 597 167 747 c 0,15,16
 123 797 123 797 119 813 c 1,17,-1
 254 1303 l 1,18,19
 481 1202 481 1202 596 1202 c 0,20,21
 708 1202 708 1202 832 1252 c 0,22,23
 858 1263 858 1263 989 1321 c 1,0,-1
EndSplineSet
EndChar

StartChar: afii57395
Encoding: 1779 1779 407
Width: 1173
Flags: W
LayerCount: 2
Fore
SplineSet
1085 1340 m 1,0,-1
 997 808 l 2,1,2
 992 777 992 777 932 759 c 0,3,4
 886 745 886 745 845 745 c 0,5,6
 768 745 768 745 741 775 c 1,7,8
 712 731 712 731 658 738 c 1,9,10
 682 688 682 688 706 637 c 1,11,12
 744 530 744 530 744 375 c 0,13,14
 744 199 744 199 674 42 c 0,15,16
 611 -100 611 -100 561 -100 c 1,17,18
 552 -88 552 -88 517 40 c 0,19,20
 476 192 476 192 398 354 c 0,21,22
 310 538 310 538 209 642 c 0,23,24
 175 677 175 677 121 731 c 1,25,-1
 284 1283 l 1,26,-1
 344 1215 l 1,27,28
 391 1172 391 1172 454 1172 c 0,29,30
 547 1172 547 1172 609 1229 c 0,31,32
 629 1248 629 1248 671 1312 c 1,33,34
 688 1276 688 1276 706 1240 c 1,35,36
 735 1196 735 1196 792 1196 c 0,37,38
 890 1196 890 1196 982 1261 c 0,39,40
 983 1262 983 1262 1085 1340 c 1,0,-1
EndSplineSet
EndChar

StartChar: afii62843
Encoding: 1780 1780 408
Width: 1173
Flags: W
LayerCount: 2
Fore
SplineSet
1069 1026 m 1,0,-1
 915 452 l 2,1,2
 911 438 911 438 839 418 c 0,3,4
 777 401 777 401 755 401 c 1,5,6
 755 253 755 253 690 107 c 0,7,8
 612 -67 612 -67 488 -100 c 1,9,10
 462 439 462 439 121 804 c 1,11,-1
 257 1293 l 1,12,13
 374 1241 374 1241 482 1161 c 1,14,15
 642 1323 642 1323 838 1323 c 0,16,17
 902 1323 902 1323 974 1295 c 0,18,19
 1056 1263 1056 1263 1056 1227 c 0,20,21
 1056 1211 1056 1211 1002 1197 c 0,22,23
 922 1176 922 1176 873 1147 c 0,24,25
 786 1095 786 1095 725 993 c 1,26,27
 760 964 760 964 831 964 c 0,28,29
 904 964 904 964 986 994 c 0,30,31
 987 994 987 994 1069 1026 c 1,0,-1
EndSplineSet
EndChar

StartChar: afii62844
Encoding: 1781 1781 409
Width: 1145
Flags: W
LayerCount: 2
Fore
SplineSet
1058 57 m 2,0,1
 1058 9 1058 9 747 9 c 0,2,3
 617 9 617 9 583 93 c 1,4,5
 545 7 545 7 425 7 c 0,6,7
 114 7 114 7 114 53 c 2,8,-1
 114 339 l 2,9,10
 114 670 114 670 229 923 c 0,11,12
 362 1216 362 1216 587 1216 c 0,13,14
 800 1216 800 1216 937 923 c 0,15,16
 1058 664 1058 664 1058 339 c 2,17,-1
 1058 57 l 2,0,1
823 483 m 1,18,19
 823 562 823 562 751 705 c 0,20,21
 671 863 671 863 601 863 c 0,22,23
 523 863 523 863 445 704 c 0,24,25
 377 565 377 565 377 483 c 1,26,-1
 507 483 l 2,27,28
 538 483 538 483 568 504.5 c 128,-1,29
 598 526 598 526 606 555 c 1,30,31
 611 529 611 529 643.5 506 c 128,-1,32
 676 483 676 483 704 483 c 2,33,-1
 823 483 l 1,18,19
EndSplineSet
EndChar

StartChar: afii62845
Encoding: 1782 1782 410
Width: 1053
Flags: W
LayerCount: 2
Fore
SplineSet
955 860 m 2,0,-1
 802 336 l 2,1,2
 791 297 791 297 747 280 c 0,3,4
 637 237 637 237 525 165 c 0,5,6
 492 144 492 144 320 23 c 0,7,8
 276 -8 276 -8 217 -61 c 0,9,10
 174 -100 174 -100 153 -100 c 0,11,12
 130 -100 130 -100 130 -76 c 0,13,14
 130 -35 130 -35 231 118 c 0,15,16
 326 262 326 262 351 280 c 1,17,18
 245 280 245 280 178 374 c 0,19,20
 117 458 117 458 117 568 c 0,21,22
 117 614 117 614 130 657 c 2,23,-1
 271 1128 l 2,24,25
 300 1226 300 1226 416 1279 c 0,26,27
 512 1323 512 1323 628 1323 c 0,28,29
 724 1323 724 1323 796 1275 c 0,30,31
 877 1220 877 1220 877 1128 c 0,32,33
 877 1078 877 1078 856 1078 c 0,34,35
 839 1078 839 1078 802.5 1088 c 128,-1,36
 766 1098 766 1098 747 1098 c 0,37,38
 670 1098 670 1098 598 1041 c 0,39,40
 521 980 521 980 521 905 c 1,41,-1
 912 904 l 2,42,43
 956 904 956 904 956 868 c 0,44,45
 956 863 956 863 955 860 c 2,0,-1
EndSplineSet
EndChar

StartChar: afii57399
Encoding: 1783 1783 411
Width: 1239
Flags: W
LayerCount: 2
Fore
SplineSet
1137 717 m 1,0,1
 1098 654 1098 654 968 524 c 0,2,3
 843 400 843 400 792 309 c 0,4,5
 727 194 727 194 701 89 c 0,6,7
 692 50 692 50 669 -51 c 0,8,9
 658 -100 658 -100 629 -100 c 0,10,11
 603 -100 603 -100 582 -17 c 0,12,13
 572 36 572 36 561 89 c 0,14,15
 537 187 537 187 464 309 c 0,16,17
 416 389 416 389 291 520.5 c 128,-1,18
 166 652 166 652 121 725 c 1,19,-1
 262 1332 l 1,20,21
 341 1288 341 1288 482 1063 c 0,22,23
 605 867 605 867 629 791 c 1,24,25
 667 882 667 882 781 1063 c 0,26,27
 923 1289 923 1289 1003 1332 c 1,28,-1
 1137 717 l 1,0,1
EndSplineSet
EndChar

StartChar: afii57400
Encoding: 1784 1784 412
Width: 1250
Flags: W
LayerCount: 2
Fore
SplineSet
1137 508 m 1,0,-1
 997 -100 l 1,1,2
 919 -55 919 -55 777 171 c 0,3,4
 651 372 651 372 629 441 c 1,5,6
 595 355 595 355 478 171 c 0,7,8
 335 -54 335 -54 255 -100 c 1,9,-1
 121 515 l 1,10,11
 164 589 164 589 292.5 716 c 128,-1,12
 421 843 421 843 466 923 c 0,13,14
 531 1037 531 1037 557 1143 c 0,15,16
 566 1182 566 1182 589 1283 c 0,17,18
 600 1332 600 1332 629 1332 c 0,19,20
 655 1332 655 1332 676 1249 c 0,21,22
 686 1197 686 1197 697 1144 c 0,23,24
 721 1044 721 1044 794 923 c 0,25,26
 841 844 841 844 966 713 c 128,-1,27
 1091 582 1091 582 1137 508 c 1,0,-1
EndSplineSet
EndChar

StartChar: afii57401
Encoding: 1785 1785 413
Width: 1189
Flags: W
LayerCount: 2
Fore
SplineSet
1076 395 m 1,0,1
 862 -100 862 -100 834 -100 c 0,2,3
 787 -100 787 -100 680 131 c 0,4,5
 576 356 576 356 559 483 c 1,6,7
 114 517 114 517 114 650 c 0,8,9
 114 821 114 821 206 1040 c 0,10,11
 330 1336 330 1336 530 1336 c 0,12,13
 651 1336 651 1336 724 1243 c 0,14,15
 782 1169 782 1169 805 1055 c 0,16,17
 812 1014 812 1014 832 908 c 0,18,19
 868 733 868 733 937 606 c 0,20,21
 971 543 971 543 1034 473 c 0,22,23
 1076 426 1076 426 1076 395 c 1,0,1
624 817 m 1,24,25
 624 903 624 903 588 959 c 0,26,27
 545 1026 545 1026 464 1026 c 0,28,29
 422 1026 422 1026 387 983 c 128,-1,30
 352 940 352 940 352 897 c 0,31,32
 352 808 352 808 624 817 c 1,24,25
EndSplineSet
EndChar

StartChar: afii57392.001
Encoding: 1632 1632 414
Width: 661
Flags: W
LayerCount: 2
Fore
SplineSet
561 473 m 2,0,-1
 369 282 l 2,1,2
 345 258 345 258 321 282 c 2,3,-1
 134 468 l 2,4,5
 110 492 110 492 134 516 c 2,6,-1
 327 706 l 2,7,8
 348 726 348 726 372 702 c 2,9,-1
 561 514 l 2,10,11
 582 494 582 494 561 473 c 2,0,-1
EndSplineSet
EndChar

StartChar: afii57393.001
Encoding: 1633 1633 415
Width: 851
Flags: W
LayerCount: 2
Fore
SplineSet
741 503 m 0,0,1
 741 324 741 324 691 157 c 0,2,3
 635 -30 635 -30 545 -100 c 1,4,5
 542 -94 542 -94 516 12 c 0,6,7
 479 162 479 162 391 404 c 0,8,9
 313 617 313 617 206 778 c 0,10,11
 122 905 122 905 118 914 c 1,12,-1
 443 1297 l 1,13,14
 471 1297 471 1297 558 1141 c 0,15,16
 641 991 641 991 669 901 c 0,17,18
 741 666 741 666 741 503 c 0,0,1
EndSplineSet
EndChar

StartChar: afii57394.001
Encoding: 1634 1634 416
Width: 1088
Flags: W
LayerCount: 2
Fore
SplineSet
989 1321 m 1,0,-1
 906 782 l 2,1,2
 897 725 897 725 702 725 c 1,3,4
 757 530 757 530 757 421 c 0,5,6
 757 239 757 239 653 63 c 0,7,8
 557 -100 557 -100 483 -100 c 1,9,10
 472 -74 472 -74 443 102 c 0,11,12
 413 285 413 285 385 362 c 0,13,14
 299 597 299 597 167 747 c 0,15,16
 123 797 123 797 119 813 c 1,17,-1
 254 1303 l 1,18,19
 481 1202 481 1202 596 1202 c 0,20,21
 708 1202 708 1202 832 1252 c 0,22,23
 858 1263 858 1263 989 1321 c 1,0,-1
EndSplineSet
EndChar

StartChar: afii57395.001
Encoding: 1635 1635 417
Width: 1173
Flags: W
LayerCount: 2
Fore
SplineSet
1085 1340 m 1,0,-1
 997 808 l 2,1,2
 992 777 992 777 932 759 c 0,3,4
 886 745 886 745 845 745 c 0,5,6
 768 745 768 745 741 775 c 1,7,8
 712 731 712 731 658 738 c 1,9,10
 682 688 682 688 706 637 c 1,11,12
 744 530 744 530 744 375 c 0,13,14
 744 199 744 199 674 42 c 0,15,16
 611 -100 611 -100 561 -100 c 1,17,18
 552 -88 552 -88 517 40 c 0,19,20
 476 192 476 192 398 354 c 0,21,22
 310 538 310 538 209 642 c 0,23,24
 175 677 175 677 121 731 c 1,25,-1
 284 1283 l 1,26,-1
 344 1215 l 1,27,28
 391 1172 391 1172 454 1172 c 0,29,30
 547 1172 547 1172 609 1229 c 0,31,32
 629 1248 629 1248 671 1312 c 1,33,34
 688 1276 688 1276 706 1240 c 1,35,36
 735 1196 735 1196 792 1196 c 0,37,38
 890 1196 890 1196 982 1261 c 0,39,40
 983 1262 983 1262 1085 1340 c 1,0,-1
EndSplineSet
EndChar

StartChar: afii57396
Encoding: 1636 1636 418
Width: 1167
Flags: W
LayerCount: 2
Fore
SplineSet
1069 1026 m 1,0,-1
 915 452 l 2,1,2
 911 438 911 438 839 418 c 0,3,4
 777 401 777 401 755 401 c 1,5,6
 755 253 755 253 690 107 c 0,7,8
 612 -67 612 -67 488 -100 c 1,9,10
 462 439 462 439 121 804 c 1,11,-1
 257 1293 l 1,12,13
 374 1241 374 1241 482 1161 c 1,14,15
 642 1323 642 1323 838 1323 c 0,16,17
 902 1323 902 1323 974 1295 c 0,18,19
 1056 1263 1056 1263 1056 1227 c 0,20,21
 1056 1211 1056 1211 1002 1197 c 0,22,23
 922 1176 922 1176 873 1147 c 0,24,25
 786 1095 786 1095 725 993 c 1,26,27
 760 964 760 964 831 964 c 0,28,29
 904 964 904 964 986 994 c 0,30,31
 987 994 987 994 1069 1026 c 1,0,-1
EndSplineSet
EndChar

StartChar: afii57397
Encoding: 1637 1637 419
Width: 1135
Flags: W
LayerCount: 2
Fore
SplineSet
1058 57 m 2,0,1
 1058 9 1058 9 747 9 c 0,2,3
 617 9 617 9 583 93 c 1,4,5
 545 7 545 7 425 7 c 0,6,7
 114 7 114 7 114 53 c 2,8,-1
 114 339 l 2,9,10
 114 670 114 670 229 923 c 0,11,12
 362 1216 362 1216 587 1216 c 0,13,14
 800 1216 800 1216 937 923 c 0,15,16
 1058 664 1058 664 1058 339 c 2,17,-1
 1058 57 l 2,0,1
823 483 m 1,18,19
 823 562 823 562 751 705 c 0,20,21
 671 863 671 863 601 863 c 0,22,23
 523 863 523 863 445 704 c 0,24,25
 377 565 377 565 377 483 c 1,26,-1
 507 483 l 2,27,28
 538 483 538 483 568 504.5 c 128,-1,29
 598 526 598 526 606 555 c 1,30,31
 611 529 611 529 643.5 506 c 128,-1,32
 676 483 676 483 704 483 c 2,33,-1
 823 483 l 1,18,19
EndSplineSet
EndChar

StartChar: afii57398
Encoding: 1638 1638 420
Width: 1048
Flags: W
LayerCount: 2
Fore
SplineSet
955 860 m 2,0,-1
 802 336 l 2,1,2
 791 297 791 297 747 280 c 0,3,4
 637 237 637 237 525 165 c 0,5,6
 492 144 492 144 320 23 c 0,7,8
 276 -8 276 -8 217 -61 c 0,9,10
 174 -100 174 -100 153 -100 c 0,11,12
 130 -100 130 -100 130 -76 c 0,13,14
 130 -35 130 -35 231 118 c 0,15,16
 326 262 326 262 351 280 c 1,17,18
 245 280 245 280 178 374 c 0,19,20
 117 458 117 458 117 568 c 0,21,22
 117 614 117 614 130 657 c 2,23,-1
 271 1128 l 2,24,25
 300 1226 300 1226 416 1279 c 0,26,27
 512 1323 512 1323 628 1323 c 0,28,29
 724 1323 724 1323 796 1275 c 0,30,31
 877 1220 877 1220 877 1128 c 0,32,33
 877 1078 877 1078 856 1078 c 0,34,35
 839 1078 839 1078 802.5 1088 c 128,-1,36
 766 1098 766 1098 747 1098 c 0,37,38
 670 1098 670 1098 598 1041 c 0,39,40
 521 980 521 980 521 905 c 1,41,-1
 912 904 l 2,42,43
 956 904 956 904 956 868 c 0,44,45
 956 863 956 863 955 860 c 2,0,-1
EndSplineSet
EndChar

StartChar: afii57399.001
Encoding: 1639 1639 421
Width: 1247
Flags: W
LayerCount: 2
Fore
SplineSet
1137 717 m 1,0,1
 1098 654 1098 654 968 524 c 0,2,3
 843 400 843 400 792 309 c 0,4,5
 727 194 727 194 701 89 c 0,6,7
 692 50 692 50 669 -51 c 0,8,9
 658 -100 658 -100 629 -100 c 0,10,11
 603 -100 603 -100 582 -17 c 0,12,13
 572 36 572 36 561 89 c 0,14,15
 537 187 537 187 464 309 c 0,16,17
 416 389 416 389 291 520.5 c 128,-1,18
 166 652 166 652 121 725 c 1,19,-1
 262 1332 l 1,20,21
 341 1288 341 1288 482 1063 c 0,22,23
 605 867 605 867 629 791 c 1,24,25
 667 882 667 882 781 1063 c 0,26,27
 923 1289 923 1289 1003 1332 c 1,28,-1
 1137 717 l 1,0,1
EndSplineSet
EndChar

StartChar: afii57400.001
Encoding: 1640 1640 422
Width: 1259
Flags: W
LayerCount: 2
Fore
SplineSet
1137 508 m 1,0,-1
 997 -100 l 1,1,2
 919 -55 919 -55 777 171 c 0,3,4
 651 372 651 372 629 441 c 1,5,6
 595 355 595 355 478 171 c 0,7,8
 335 -54 335 -54 255 -100 c 1,9,-1
 121 515 l 1,10,11
 164 589 164 589 292.5 716 c 128,-1,12
 421 843 421 843 466 923 c 0,13,14
 531 1037 531 1037 557 1143 c 0,15,16
 566 1182 566 1182 589 1283 c 0,17,18
 600 1332 600 1332 629 1332 c 0,19,20
 655 1332 655 1332 676 1249 c 0,21,22
 686 1197 686 1197 697 1144 c 0,23,24
 721 1044 721 1044 794 923 c 0,25,26
 841 844 841 844 966 713 c 128,-1,27
 1091 582 1091 582 1137 508 c 1,0,-1
EndSplineSet
EndChar

StartChar: afii57401.001
Encoding: 1641 1641 423
Width: 1164
Flags: W
LayerCount: 2
Fore
SplineSet
1076 395 m 1,0,1
 862 -100 862 -100 834 -100 c 0,2,3
 787 -100 787 -100 680 131 c 0,4,5
 576 356 576 356 559 483 c 1,6,7
 114 517 114 517 114 650 c 0,8,9
 114 821 114 821 206 1040 c 0,10,11
 330 1336 330 1336 530 1336 c 0,12,13
 651 1336 651 1336 724 1243 c 0,14,15
 782 1169 782 1169 805 1055 c 0,16,17
 812 1014 812 1014 832 908 c 0,18,19
 868 733 868 733 937 606 c 0,20,21
 971 543 971 543 1034 473 c 0,22,23
 1076 426 1076 426 1076 395 c 1,0,1
624 817 m 1,24,25
 624 903 624 903 588 959 c 0,26,27
 545 1026 545 1026 464 1026 c 0,28,29
 422 1026 422 1026 387 983 c 128,-1,30
 352 940 352 940 352 897 c 0,31,32
 352 808 352 808 624 817 c 1,24,25
EndSplineSet
EndChar

StartChar: guillemotleft
Encoding: 171 171 424
Width: 836
Flags: W
LayerCount: 2
Fore
SplineSet
442 616 m 1,0,1
 387 507 387 507 387 393 c 0,2,3
 387 255 387 255 518 82 c 1,4,-1
 518 83 l 1,5,6
 538 60 538 60 547.5 44 c 128,-1,7
 557 28 557 28 560 20 c 0,8,9
 560 -5 560 -5 534 -5 c 0,10,11
 528 -5 528 -5 513 1 c 0,12,13
 377 71 377 71 294 168 c 1,14,-1
 294 167 l 1,15,16
 202 276 202 276 202 396 c 0,17,18
 203 448 203 448 222.5 500 c 128,-1,19
 242 552 242 552 280 603 c 0,20,21
 307 640 307 640 344.5 676.5 c 128,-1,22
 382 713 382 713 426 745 c 0,23,24
 499 799 499 799 528 799 c 0,25,26
 563 799 563 799 563 775 c 0,27,28
 563 765 563 765 555 757 c 0,29,30
 528 730 528 730 509 708 c 128,-1,31
 490 686 490 686 477 668.5 c 128,-1,32
 464 651 464 651 455.5 638 c 128,-1,33
 447 625 447 625 441 615 c 2,34,-1
 442 616 l 1,0,1
721 616 m 1,35,36
 666 507 666 507 666 393 c 0,37,38
 666 255 666 255 797 82 c 1,39,-1
 797 83 l 1,40,41
 817 60 817 60 826.5 44 c 128,-1,42
 836 28 836 28 839 20 c 0,43,44
 839 -5 839 -5 813 -5 c 0,45,46
 806 -5 806 -5 793 1 c 0,47,48
 725 36 725 36 670 77 c 128,-1,49
 615 118 615 118 573 168 c 1,50,-1
 573 167 l 1,51,52
 481 276 481 276 481 396 c 0,53,54
 482 448 482 448 501.5 500 c 128,-1,55
 521 552 521 552 559 603 c 0,56,57
 586 640 586 640 623.5 676.5 c 128,-1,58
 661 713 661 713 705 745 c 0,59,60
 778 799 778 799 807 799 c 0,61,62
 842 799 842 799 842 775 c 0,63,64
 842 765 842 765 834 757 c 0,65,66
 807 730 807 730 788 708 c 128,-1,67
 769 686 769 686 756 668.5 c 128,-1,68
 743 651 743 651 734.5 638 c 128,-1,69
 726 625 726 625 720 615 c 2,70,-1
 721 616 l 1,35,36
EndSplineSet
EndChar

StartChar: guillemotright
Encoding: 187 187 425
Width: 836
Flags: W
LayerCount: 2
Fore
SplineSet
573 622 m 1,0,1
 561 641 561 641 537.5 674.5 c 128,-1,2
 514 708 514 708 460 762 c 0,3,4
 452 770 452 770 452 780 c 0,5,6
 452 804 452 804 487 804 c 0,7,8
 514 804 514 804 588 751 c 0,9,10
 631 719 631 719 668 683 c 128,-1,11
 705 647 705 647 732 610 c 0,12,13
 769 559 769 559 788.5 508 c 128,-1,14
 808 457 808 457 809 406 c 0,15,16
 809 287 809 287 718 179 c 1,17,-1
 718 180 l 1,18,19
 636 83 636 83 501 15 c 0,20,21
 487 9 487 9 481 9 c 0,22,23
 455 9 455 9 455 34 c 0,24,25
 458 42 458 42 467.5 57.5 c 128,-1,26
 477 73 477 73 497 96 c 1,27,-1
 497 95 l 1,28,29
 626 266 626 266 626 403 c 0,30,31
 626 515 626 515 572 623 c 1,32,-1
 573 622 l 1,0,1
297 622 m 1,33,34
 285 641 285 641 261.5 674.5 c 128,-1,35
 238 708 238 708 184 762 c 0,36,37
 176 770 176 770 176 780 c 0,38,39
 176 804 176 804 211 804 c 0,40,41
 238 804 238 804 312 751 c 0,42,43
 355 719 355 719 392 683 c 128,-1,44
 429 647 429 647 456 610 c 0,45,46
 493 559 493 559 512.5 508 c 128,-1,47
 532 457 532 457 533 406 c 0,48,49
 533 287 533 287 442 179 c 1,50,-1
 442 180 l 1,51,52
 360 83 360 83 225 15 c 0,53,54
 211 9 211 9 205 9 c 0,55,56
 179 9 179 9 179 34 c 0,57,58
 182 42 182 42 191.5 57.5 c 128,-1,59
 201 73 201 73 221 96 c 1,60,-1
 221 95 l 1,61,62
 350 266 350 266 350 403 c 0,63,64
 350 515 350 515 296 623 c 1,65,-1
 297 622 l 1,33,34
EndSplineSet
EndChar

StartChar: quoteleft
Encoding: 8216 8216 426
Width: 425
Flags: W
LayerCount: 2
Fore
SplineSet
121 993 m 0,0,1
 122 1058 122 1058 166 1121.5 c 128,-1,2
 210 1185 210 1185 265 1211 c 1,3,-1
 296 1153 l 1,4,5
 280 1144 280 1144 258 1120 c 128,-1,6
 236 1096 236 1096 226 1058 c 1,7,8
 292 1030 292 1030 289 975 c 0,9,10
 289 959 289 959 282.5 944.5 c 128,-1,11
 276 930 276 930 265 919 c 128,-1,12
 254 908 254 908 239 901.5 c 128,-1,13
 224 895 224 895 208 895 c 0,14,15
 188 895 188 895 171.5 903.5 c 128,-1,16
 155 912 155 912 144 925.5 c 128,-1,17
 133 939 133 939 127 957 c 128,-1,18
 121 975 121 975 121 993 c 0,0,1
EndSplineSet
EndChar

StartChar: quoteright
Encoding: 8217 8217 427
Width: 372
Flags: W
LayerCount: 2
Fore
SplineSet
311 1113 m 0,0,1
 310 1048 310 1048 266 984.5 c 128,-1,2
 222 921 222 921 167 895 c 1,3,-1
 136 953 l 1,4,5
 152 962 152 962 174 986 c 128,-1,6
 196 1010 196 1010 206 1048 c 1,7,8
 140 1076 140 1076 143 1131 c 0,9,10
 143 1147 143 1147 149.5 1161.5 c 128,-1,11
 156 1176 156 1176 167 1187 c 128,-1,12
 178 1198 178 1198 192.5 1204.5 c 128,-1,13
 207 1211 207 1211 224 1211 c 0,14,15
 244 1211 244 1211 260 1202.5 c 128,-1,16
 276 1194 276 1194 287.5 1180.5 c 128,-1,17
 299 1167 299 1167 305 1149 c 128,-1,18
 311 1131 311 1131 311 1113 c 0,0,1
EndSplineSet
EndChar

StartChar: afii57451
Encoding: 1611 1611 428
Width: 0
GlyphClass: 4
Flags: W
AnchorPoint: "Anchor-2" 0 0 mark 0
AnchorPoint: "Anchor-0" 0 0 mark 0
LayerCount: 2
Fore
SplineSet
-199 75 m 1,0,-1
 193 157 l 1,1,-1
 193 81 l 1,2,-1
 -199 -1 l 1,3,-1
 -199 75 l 1,0,-1
-199 213 m 1,4,-1
 193 294 l 1,5,-1
 193 219 l 1,6,-1
 -199 137 l 1,7,-1
 -199 213 l 1,4,-1
EndSplineSet
EndChar

StartChar: afii57454
Encoding: 1614 1614 429
Width: 0
GlyphClass: 4
Flags: W
AnchorPoint: "Anchor-2" 0 0 mark 0
AnchorPoint: "Anchor-0" 0 0 mark 0
LayerCount: 2
Fore
SplineSet
-199 78 m 1,0,-1
 193 159 l 1,1,-1
 193 84 l 1,2,-1
 -199 2 l 1,3,-1
 -199 78 l 1,0,-1
EndSplineSet
EndChar

StartChar: afii57455
Encoding: 1615 1615 430
Width: 0
GlyphClass: 4
Flags: W
AnchorPoint: "Anchor-2" 0 0 mark 0
AnchorPoint: "Anchor-0" 0 0 mark 0
LayerCount: 2
Fore
SplineSet
184 94 m 1,0,-1
 -208 -3 l 1,1,-1
 -228 79 l 1,2,-1
 -35 126 l 1,3,4
 -59 144 -59 144 -65 171 c 0,5,6
 -74 206 -74 206 -43 254 c 128,-1,7
 -12 302 -12 302 24 311 c 0,8,9
 65 321 65 321 112 268 c 0,10,11
 153 222 153 222 163 177 c 2,12,-1
 184 94 l 1,0,-1
86 166 m 0,13,14
 83 185 83 185 59 201 c 128,-1,15
 35 217 35 217 19 213 c 0,16,17
 -7 206 -7 206 -1 186 c 0,18,19
 2 169 2 169 25 159 c 128,-1,20
 48 149 48 149 66 154 c 0,21,22
 89 159 89 159 86 166 c 0,13,14
EndSplineSet
EndChar

StartChar: afii57452
Encoding: 1612 1612 431
Width: 0
GlyphClass: 4
Flags: W
AnchorPoint: "Anchor-2" 0 0 mark 0
AnchorPoint: "Anchor-0" 0 0 mark 0
LayerCount: 2
Fore
SplineSet
229 121 m 1,0,-1
 -198 1 l 1,1,-1
 -221 82 l 1,2,-1
 -142 104 l 1,3,-1
 -165 187 l 1,4,-1
 -229 170 l 1,5,-1
 -240 208 l 1,6,-1
 -133 238 l 1,7,-1
 -99 116 l 1,8,-1
 9 146 l 1,9,10
 -14 163 -14 163 -21 188 c 0,11,12
 -31 224 -31 224 -2 273.5 c 128,-1,13
 27 323 27 323 63 332 c 0,14,15
 103 344 103 344 152 292 c 0,16,17
 194 247 194 247 206 202 c 2,18,-1
 229 121 l 1,0,-1
141 194 m 0,19,20
 136 211 136 211 112 226.5 c 128,-1,21
 88 242 88 242 72 237 c 0,22,23
 47 230 47 230 52 210 c 0,24,25
 57 193 57 193 80 183.5 c 128,-1,26
 103 174 103 174 121 180 c 0,27,28
 143 186 143 186 141 194 c 0,19,20
EndSplineSet
EndChar

StartChar: afii57456
Encoding: 1616 1616 432
Width: 0
GlyphClass: 4
Flags: W
AnchorPoint: "Anchor-3" 0 0 mark 0
AnchorPoint: "Anchor-1" 0 0 mark 0
LayerCount: 2
Fore
SplineSet
-199 78 m 1,0,-1
 193 159 l 1,1,-1
 193 84 l 1,2,-1
 -199 2 l 1,3,-1
 -199 78 l 1,0,-1
EndSplineSet
EndChar

StartChar: afii57457
Encoding: 1617 1617 433
Width: 0
GlyphClass: 4
Flags: W
AnchorPoint: "Anchor-2" 0 0 mark 0
AnchorPoint: "Anchor-0" 0 0 mark 0
LayerCount: 2
Fore
SplineSet
223 184 m 1,0,1
 226 138 226 138 205 81 c 0,2,3
 195 54 195 54 161 31.5 c 128,-1,4
 127 9 127 9 98 9 c 0,5,6
 -5 9 -5 9 -27 48 c 1,7,8
 -57 3 -57 3 -156 3 c 0,9,10
 -241 3 -241 3 -241 80 c 0,11,12
 -241 152 -241 152 -181 184 c 1,13,-1
 -117 184 l 1,14,15
 -141 160 -141 160 -141 133 c 0,16,17
 -141 98 -141 98 -102 98 c 0,18,19
 -73 98 -73 98 -48.5 126 c 128,-1,20
 -24 154 -24 154 -21 184 c 1,21,-1
 53 184 l 1,22,23
 33 161 33 161 33 136 c 0,24,25
 33 106 33 106 69 106 c 0,26,27
 116 106 116 106 146 184 c 1,28,-1
 223 184 l 1,0,1
EndSplineSet
EndChar

StartChar: afii57458
Encoding: 1618 1618 434
Width: 0
GlyphClass: 4
Flags: W
AnchorPoint: "Anchor-2" 0 0 mark 0
AnchorPoint: "Anchor-0" 0 0 mark 0
LayerCount: 2
Fore
SplineSet
-57 252 m 0,0,1
 -29 279 -29 279 13 271 c 0,2,3
 49 264 49 264 77 236 c 0,4,5
 109 204 109 204 112 132 c 128,-1,6
 115 60 115 60 82 28 c 0,7,8
 51 -1 51 -1 -14.5 1.5 c 128,-1,9
 -80 4 -80 4 -110 35 c 256,10,11
 -140 66 -140 66 -115 145 c 0,12,13
 -91 219 -91 219 -57 252 c 0,0,1
-22 187 m 0,14,15
 -39 173 -39 173 -39.5 137.5 c 128,-1,16
 -40 102 -40 102 -25 86 c 0,17,18
 -2 64 -2 64 16 82 c 0,19,20
 33 98 33 98 29.5 129 c 128,-1,21
 26 160 26 160 9 177 c 0,22,23
 -12 199 -12 199 -22 187 c 0,14,15
EndSplineSet
EndChar

StartChar: exclam
Encoding: 33 33 437
Width: 624
GlyphClass: 2
Flags: W
LayerCount: 2
Fore
SplineSet
585 1069 m 2,0,-1
 404 368 l 2,1,2
 388 305 388 305 354 305 c 256,3,4
 320 305 320 305 305 368 c 2,5,-1
 138 1069 l 2,6,7
 132 1094 132 1094 132 1116 c 0,8,9
 132 1208 132 1208 203 1271 c 0,10,11
 271 1332 271 1332 364 1332 c 0,12,13
 453 1332 453 1332 522 1267 c 128,-1,14
 591 1202 591 1202 591 1114 c 0,15,16
 591 1092 591 1092 585 1069 c 2,0,-1
526 101 m 0,17,18
 526 32 526 32 477 -17 c 128,-1,19
 428 -66 428 -66 358 -66 c 0,20,21
 289 -66 289 -66 240 -17 c 128,-1,22
 191 32 191 32 191 101 c 0,23,24
 191 172 191 172 239.5 221 c 128,-1,25
 288 270 288 270 358 270 c 0,26,27
 429 270 429 270 477.5 221 c 128,-1,28
 526 172 526 172 526 101 c 0,17,18
EndSplineSet
EndChar

StartChar: afii64060
Encoding: 64830 64830 438
Width: 550
GlyphClass: 2
Flags: W
LayerCount: 2
Fore
SplineSet
535 -193 m 0,0,1
 535 -232 535 -232 516 -232 c 0,2,3
 506 -232 506 -232 490 -223 c 0,4,5
 399 -171 399 -171 276 84 c 0,6,7
 142 361 142 361 142 560 c 256,8,9
 142 759 142 759 276 1026 c 0,10,11
 398 1270 398 1270 490 1323 c 0,12,13
 506 1332 506 1332 516 1332 c 0,14,15
 535 1332 535 1332 535 1293 c 0,16,17
 535 1277 535 1277 484 1150 c 0,18,19
 422 996 422 996 390 882 c 0,20,21
 339 701 339 701 339 559 c 0,22,23
 339 414 339 414 390 230 c 0,24,25
 423 113 423 113 484 -46 c 0,26,27
 535 -178 535 -178 535 -193 c 0,0,1
EndSplineSet
EndChar

StartChar: afii64061
Encoding: 64831 64831 439
Width: 550
GlyphClass: 2
Flags: W
LayerCount: 2
Fore
SplineSet
540 560 m 256,0,1
 540 361 540 361 406 84 c 0,2,3
 283 -171 283 -171 192 -223 c 0,4,5
 176 -232 176 -232 166 -232 c 0,6,7
 147 -232 147 -232 147 -193 c 0,8,9
 147 -178 147 -178 198 -46 c 0,10,11
 259 113 259 113 292 230 c 0,12,13
 343 414 343 414 343 559 c 0,14,15
 343 701 343 701 292 882 c 0,16,17
 260 996 260 996 198 1150 c 0,18,19
 147 1277 147 1277 147 1293 c 0,20,21
 147 1332 147 1332 166 1332 c 0,22,23
 176 1332 176 1332 192 1323 c 0,24,25
 284 1270 284 1270 406 1026 c 0,26,27
 540 759 540 759 540 560 c 256,0,1
EndSplineSet
EndChar

StartChar: afii62821
Encoding: 65252 65252 440
Width: 1051
GlyphClass: 2
Flags: W
AnchorPoint: "Anchor-3" 465 -570 basechar 0
AnchorPoint: "Anchor-2" 465 1215 basechar 0
LayerCount: 2
Fore
SplineSet
1051 0 m 1,0,-1
 901 0 l 2,1,2
 795 0 795 0 758 70 c 1,3,4
 620 -149 620 -149 501 -149 c 0,5,6
 466 -149 466 -149 341.5 -74.5 c 128,-1,7
 217 0 217 0 158 0 c 2,8,-1
 -81 0 l 1,9,-1
 -81 659 l 1,10,-1
 132 660 l 2,11,12
 195 660 195 660 262 736 c 0,13,14
 296 776 296 776 386 877 c 0,15,16
 456 953 456 953 538 953 c 0,17,18
 607 953 607 953 673 877 c 0,19,20
 706 837 706 837 794 736 c 0,21,22
 862 660 862 660 941 660 c 2,23,-1
 1051 660 l 1,24,-1
 1051 0 l 1,0,-1
632 509 m 1,25,26
 638 526 638 526 638 548 c 0,27,28
 638 599 638 599 610 645 c 0,29,30
 578 697 578 697 530 697 c 0,31,32
 454 697 454 697 404 630 c 1,33,34
 542 597 542 597 632 509 c 1,25,26
EndSplineSet
EndChar

StartChar: uni25CC
Encoding: 9676 9676 441
Width: 911
Flags: W
AnchorPoint: "Anchor-3" 480 -360 basechar 0
AnchorPoint: "Anchor-2" 480 945 basechar 0
LayerCount: 2
Fore
SplineSet
771 629 m 256,0,1
 771 592 771 592 734 592 c 0,2,3
 695 592 695 592 695 629 c 256,4,5
 695 666 695 666 734 666 c 0,6,7
 771 666 771 666 771 629 c 256,0,1
658 703 m 0,8,9
 658 666 658 666 621 666 c 0,10,11
 582 666 582 666 582 703 c 0,12,13
 582 742 582 742 621 742 c 0,14,15
 658 742 658 742 658 703 c 0,8,9
847 516 m 0,16,17
 847 477 847 477 808 477 c 0,18,19
 771 477 771 477 771 516 c 0,20,21
 771 553 771 553 810 553 c 0,22,23
 847 553 847 553 847 516 c 0,16,17
873 384 m 256,24,25
 873 347 873 347 836 347 c 0,26,27
 797 347 797 347 797 384 c 256,28,29
 797 421 797 421 836 421 c 0,30,31
 873 421 873 421 873 384 c 256,24,25
525 731 m 0,32,33
 525 692 525 692 488 692 c 256,34,35
 451 692 451 692 451 731 c 0,36,37
 451 768 451 768 488 768 c 256,38,39
 525 768 525 768 525 731 c 0,32,33
847 251 m 0,40,41
 847 214 847 214 808 214 c 0,42,43
 771 214 771 214 771 251 c 0,44,45
 771 290 771 290 808 290 c 0,46,47
 847 290 847 290 847 251 c 0,40,41
394 703 m 0,48,49
 394 666 394 666 356 666 c 0,50,51
 319 666 319 666 319 703 c 0,52,53
 319 742 319 742 356 742 c 0,54,55
 394 742 394 742 394 703 c 0,48,49
282 629 m 256,56,57
 282 592 282 592 243 592 c 0,58,59
 206 592 206 592 206 627 c 0,60,61
 206 666 206 666 243 666 c 0,62,63
 282 666 282 666 282 629 c 256,56,57
771 138 m 0,64,65
 771 101 771 101 734 101 c 256,66,67
 697 101 697 101 697 138 c 0,68,69
 697 177 697 177 734 177 c 256,70,71
 771 177 771 177 771 138 c 0,64,65
658 64 m 0,72,73
 658 27 658 27 621 27 c 256,74,75
 584 27 584 27 584 64 c 0,76,77
 584 103 584 103 621 103 c 256,78,79
 658 103 658 103 658 64 c 0,72,73
206 516 m 0,80,81
 206 477 206 477 171 477 c 0,82,83
 132 477 132 477 132 516 c 0,84,85
 132 553 132 553 169 553 c 256,86,87
 206 553 206 553 206 516 c 0,80,81
180 384 m 256,88,89
 180 347 180 347 143 347 c 0,90,91
 104 347 104 347 104 384 c 256,92,93
 104 421 104 421 143 421 c 0,94,95
 180 421 180 421 180 384 c 256,88,89
525 38 m 0,96,97
 525 -1 525 -1 488 -1 c 256,98,99
 451 -1 451 -1 451 38 c 0,100,101
 451 75 451 75 488 75 c 256,102,103
 525 75 525 75 525 38 c 0,96,97
394 66 m 0,104,105
 394 27 394 27 356 27 c 0,106,107
 319 27 319 27 319 64 c 0,108,109
 319 103 319 103 356 103 c 0,110,111
 394 103 394 103 394 66 c 0,104,105
206 251 m 0,112,113
 206 214 206 214 169 214 c 256,114,115
 132 214 132 214 132 251 c 0,116,117
 132 290 132 290 169 290 c 256,118,119
 206 290 206 290 206 251 c 0,112,113
282 138 m 0,120,121
 282 101 282 101 245 101 c 0,122,123
 206 101 206 101 206 138 c 0,124,125
 206 177 206 177 243 177 c 0,126,127
 282 177 282 177 282 138 c 0,120,121
EndSplineSet
EndChar

StartChar: afii62819
Encoding: 65246 65246 442
Width: 1309
GlyphClass: 2
Flags: W
AnchorPoint: "Anchor-3" 660 -780 basechar 0
AnchorPoint: "Anchor-2" 675 1440 basechar 0
LayerCount: 2
Fore
SplineSet
1309 0 m 1,0,-1
 1170 0 l 1,1,2
 1126 -201 1126 -201 982.5 -313 c 128,-1,3
 839 -425 839 -425 631 -425 c 0,4,5
 399 -425 399 -425 259 -248 c 0,6,7
 132 -87 132 -87 132 146 c 0,8,9
 132 384 132 384 289 559 c 0,10,11
 339 615 339 615 354 615 c 0,12,13
 398 615 398 615 398 562 c 0,14,15
 398 536 398 536 389 492 c 0,16,17
 385 472 385 472 385 450 c 0,18,19
 385 344 385 344 456 281 c 0,20,21
 524 220 524 220 631 220 c 0,22,23
 734 220 734 220 808 278 c 0,24,25
 888 341 888 341 888 441 c 0,26,27
 888 550 888 550 760 1173 c 0,28,29
 752 1211 752 1211 782 1232 c 2,30,-1
 1023 1399 l 2,31,32
 1037 1409 1037 1409 1049 1409 c 0,33,34
 1066 1409 1066 1409 1074 1384 c 2,35,-1
 1152 1144 l 2,36,37
 1156 1132 1156 1132 1155 1122 c 0,38,39
 1154 1107 1154 1107 1144 1098 c 2,40,-1
 1098 1055 l 2,41,42
 1088 1045 1088 1045 1092 1023 c 0,43,44
 1111 926 1111 926 1151 660 c 1,45,-1
 1309 660 l 1,46,-1
 1309 0 l 1,0,-1
EndSplineSet
EndChar

StartChar: braceright
Encoding: 125 125 445
Width: 675
GlyphClass: 2
Flags: W
LayerCount: 2
Fore
SplineSet
275 226 m 2,0,1
 275 279 275 279 283.5 316 c 128,-1,2
 292 353 292 353 315.5 378 c 128,-1,3
 339 403 339 403 378 419.5 c 128,-1,4
 417 436 417 436 476 449 c 1,5,6
 415 462 415 462 376.5 478 c 128,-1,7
 338 494 338 494 315 519 c 128,-1,8
 292 544 292 544 283.5 581 c 128,-1,9
 275 618 275 618 275 672 c 2,10,-1
 275 964 l 2,11,12
 275 1013 275 1013 265.5 1047.5 c 128,-1,13
 256 1082 256 1082 234 1107 c 128,-1,14
 212 1132 212 1132 177.5 1148 c 128,-1,15
 143 1164 143 1164 93 1175 c 1,16,-1
 93 1196 l 1,17,18
 151 1195 151 1195 193.5 1192.5 c 128,-1,19
 236 1190 236 1190 268 1184 c 128,-1,20
 300 1178 300 1178 324 1168.5 c 128,-1,21
 348 1159 348 1159 368 1146 c 0,22,23
 454 1092 454 1092 454 954 c 2,24,-1
 454 648 l 2,25,26
 454 602 454 602 462.5 571 c 128,-1,27
 471 540 471 540 491.5 517 c 128,-1,28
 512 494 512 494 547 478 c 128,-1,29
 582 462 582 462 638 449 c 1,30,31
 582 435 582 435 547 419.5 c 128,-1,32
 512 404 512 404 491.5 381.5 c 128,-1,33
 471 359 471 359 462.5 327 c 128,-1,34
 454 295 454 295 454 250 c 2,35,-1
 454 -57 l 2,36,37
 454 -197 454 -197 368 -250 c 0,38,39
 348 -264 348 -264 323.5 -273 c 128,-1,40
 299 -282 299 -282 267 -288 c 128,-1,41
 235 -294 235 -294 192 -296.5 c 128,-1,42
 149 -299 149 -299 93 -299 c 1,43,-1
 93 -280 l 1,44,45
 143 -269 143 -269 178 -252.5 c 128,-1,46
 213 -236 213 -236 234.5 -211 c 128,-1,47
 256 -186 256 -186 265.5 -151 c 128,-1,48
 275 -116 275 -116 275 -67 c 2,49,-1
 275 226 l 2,0,1
EndSplineSet
EndChar

StartChar: uni0656
Encoding: 1622 1622 452
Width: 0
GlyphClass: 4
Flags: W
AnchorPoint: "Anchor-3" 0 0 mark 0
AnchorPoint: "Anchor-1" 0 0 mark 0
LayerCount: 2
Fore
SplineSet
50 28 m 1,0,-1
 -25 -5 l 1,1,2
 -26 30 -26 30 -30 66 c 0,3,4
 -41 154 -41 154 -69 317 c 1,5,-1
 12 368 l 1,6,7
 57 155 57 155 57 75 c 0,8,9
 57 42 57 42 50 28 c 1,0,-1
EndSplineSet
EndChar

StartChar: E005
Encoding: 65578 -1 470
Width: 476
GlyphClass: 3
Flags: W
LayerCount: 2
Fore
SplineSet
-43 0 m 1,0,-1
 -43 207 l 1,1,-1
 581 207 l 1,2,-1
 581 0 l 1,3,-1
 -43 0 l 1,0,-1
EndSplineSet
EndChar

StartChar: afii57470
Encoding: 1726 1726 480
Width: 1078
Flags: W
AnchorPoint: "Anchor-3" 465 -465 basechar 0
AnchorPoint: "Anchor-2" 420 1500 basechar 0
LayerCount: 2
Fore
SplineSet
1078 65 m 2,0,1
 1078 0 1078 0 1010 0 c 2,2,-1
 585 0 l 2,3,4
 531 0 531 0 471.5 37 c 128,-1,5
 412 74 412 74 390 122 c 1,6,7
 367 81 367 81 311 44 c 0,8,9
 246 0 246 0 185 0 c 2,10,-1
 -110 0 l 1,11,-1
 -110 660 l 1,12,-1
 187 660 l 1,13,14
 184 685 184 685 184 710 c 0,15,16
 184 900 184 900 298 993 c 1,17,18
 275 1026 275 1026 275 1067 c 0,19,20
 275 1144 275 1144 339.5 1204 c 128,-1,21
 404 1264 404 1264 482 1264 c 0,22,23
 555 1264 555 1264 678 1195 c 0,24,25
 875 1085 875 1085 1025 854 c 0,26,27
 1080 770 1080 770 1080 691 c 0,28,29
 1080 675 1080 675 1078 659 c 2,30,-1
 1078 65 l 2,0,1
814 615 m 0,31,32
 824 633 824 633 824 652 c 0,33,34
 824 699 824 699 770 748 c 0,35,36
 724 790 724 790 677 804 c 1,37,38
 662 692 662 692 585 623 c 1,39,40
 699 576 699 576 742 576 c 0,41,42
 792 576 792 576 814 615 c 0,31,32
488 889 m 0,43,44
 441 889 441 889 407 833 c 0,45,46
 376 784 376 784 376 734 c 0,47,48
 376 668 376 668 434 668 c 0,49,50
 454 668 454 668 469 680 c 0,51,52
 544 740 544 740 544 826 c 0,53,54
 544 889 544 889 488 889 c 0,43,44
EndSplineSet
Substitution2: "'medi' Medial Forms in Arabic lookup 3 subtable" afii62827
Substitution2: "'fina' Terminal Forms in Arabic lookup 2 subtable" afii62827
Substitution2: "'init' Initial Forms in Arabic lookup 1 subtable" afii57470
EndChar

StartChar: at
Encoding: 64 64 489
Width: 1593
Flags: W
LayerCount: 2
Fore
SplineSet
1038 867 m 1,0,-1
 1159 867 l 1,1,-1
 1046 421 l 2,2,3
 1045 415 1045 415 1044 407 c 128,-1,4
 1043 399 1043 399 1043 390 c 0,5,6
 1043 309 1043 309 1108 309 c 0,7,8
 1150 309 1150 309 1190 338 c 128,-1,9
 1230 367 1230 367 1260.5 415.5 c 128,-1,10
 1291 464 1291 464 1309.5 527.5 c 128,-1,11
 1328 591 1328 591 1328 659 c 0,12,13
 1328 752 1328 752 1288 835 c 128,-1,14
 1248 918 1248 918 1180.5 980.5 c 128,-1,15
 1113 1043 1113 1043 1023 1080 c 128,-1,16
 933 1117 933 1117 832 1117 c 0,17,18
 727 1117 727 1117 636.5 1075 c 128,-1,19
 546 1033 546 1033 480.5 959 c 128,-1,20
 415 885 415 885 379 782 c 128,-1,21
 343 679 343 679 343 557 c 0,22,23
 343 444 343 444 380.5 350.5 c 128,-1,24
 418 257 418 257 486 189.5 c 128,-1,25
 554 122 554 122 648.5 84 c 128,-1,26
 743 46 743 46 855 46 c 0,27,28
 897 46 897 46 936.5 50.5 c 128,-1,29
 976 55 976 55 1016 65 c 128,-1,30
 1056 75 1056 75 1099.5 91 c 128,-1,31
 1143 107 1143 107 1196 131 c 1,32,-1
 1219 70 l 1,33,34
 1155 40 1155 40 1105.5 20.5 c 128,-1,35
 1056 1 1056 1 1011 -11 c 128,-1,36
 966 -23 966 -23 924 -28 c 128,-1,37
 882 -33 882 -33 833 -33 c 0,38,39
 697 -33 697 -33 579 13.5 c 128,-1,40
 461 60 461 60 373 140.5 c 128,-1,41
 285 221 285 221 235 330.5 c 128,-1,42
 185 440 185 440 185 566 c 0,43,44
 185 695 185 695 235 807.5 c 128,-1,45
 285 920 285 920 373 1003.5 c 128,-1,46
 461 1087 461 1087 578 1135.5 c 128,-1,47
 695 1184 695 1184 831 1184 c 0,48,49
 953 1184 953 1184 1058.5 1144 c 128,-1,50
 1164 1104 1164 1104 1241.5 1034.5 c 128,-1,51
 1319 965 1319 965 1363.5 871 c 128,-1,52
 1408 777 1408 777 1408 668 c 0,53,54
 1408 582 1408 582 1382 505.5 c 128,-1,55
 1356 429 1356 429 1312 371 c 128,-1,56
 1268 313 1268 313 1209 279 c 128,-1,57
 1150 245 1150 245 1084 245 c 0,58,59
 1019 245 1019 245 975.5 280 c 128,-1,60
 932 315 932 315 923 373 c 1,61,62
 877 314 877 314 820 280.5 c 128,-1,63
 763 247 763 247 708 247 c 0,64,65
 673 247 673 247 643.5 261.5 c 128,-1,66
 614 276 614 276 592.5 303 c 128,-1,67
 571 330 571 330 558.5 366 c 128,-1,68
 546 402 546 402 546 443 c 0,69,70
 546 491 546 491 556 539 c 128,-1,71
 566 587 566 587 585 633.5 c 128,-1,72
 604 680 604 680 630 722 c 128,-1,73
 656 764 656 764 690 800 c 0,74,75
 731 842 731 842 784 866 c 128,-1,76
 837 890 837 890 895 890 c 0,77,78
 918 890 918 890 935.5 886 c 128,-1,79
 953 882 953 882 966.5 871.5 c 128,-1,80
 980 861 980 861 992.5 843.5 c 128,-1,81
 1005 826 1005 826 1019 798 c 1,82,-1
 1038 867 l 1,0,-1
917 807 m 0,83,84
 884 810 884 810 844 786.5 c 128,-1,85
 804 763 804 763 768 719 c 0,86,87
 723 670 723 670 700.5 607 c 128,-1,88
 678 544 678 544 678 474 c 0,89,90
 678 407 678 407 705 366.5 c 128,-1,91
 732 326 732 326 779 326 c 0,92,93
 818 326 818 326 854.5 357 c 128,-1,94
 891 388 891 388 920 443 c 0,95,96
 934 469 934 469 946 501 c 128,-1,97
 958 533 958 533 967 566.5 c 128,-1,98
 976 600 976 600 981.5 633 c 128,-1,99
 987 666 987 666 989 695 c 0,100,101
 991 745 991 745 972.5 775 c 128,-1,102
 954 805 954 805 917 807 c 0,83,84
EndSplineSet
EndChar

StartChar: A
Encoding: 65 65 490
Width: 1237
Flags: W
LayerCount: 2
Fore
SplineSet
1180 0 m 1,0,-1
 626 0 l 1,1,-1
 626 43 l 1,2,3
 644 45 644 45 659 46.5 c 128,-1,4
 674 48 674 48 680 48 c 0,5,6
 725 50 725 50 743.5 64 c 128,-1,7
 762 78 762 78 762 104 c 0,8,9
 762 118 762 118 758 137.5 c 128,-1,10
 754 157 754 157 744.5 184.5 c 128,-1,11
 735 212 735 212 719.5 249.5 c 128,-1,12
 704 287 704 287 683 338 c 1,13,-1
 298 338 l 1,14,-1
 272 271 l 2,15,16
 259 236 259 236 249.5 210 c 128,-1,17
 240 184 240 184 234 165.5 c 128,-1,18
 228 147 228 147 225 134.5 c 128,-1,19
 222 122 222 122 222 113 c 0,20,21
 222 80 222 80 254 64 c 128,-1,22
 286 48 286 48 363 43 c 1,23,-1
 363 0 l 1,24,-1
 15 0 l 1,25,-1
 15 43 l 1,26,27
 45 48 45 48 66.5 58 c 128,-1,28
 88 68 88 68 105.5 89 c 128,-1,29
 123 110 123 110 140.5 146.5 c 128,-1,30
 158 183 158 183 183 243 c 2,31,-1
 564 1182 l 1,32,-1
 611 1182 l 1,33,-1
 994 281 l 2,34,35
 1025 206 1025 206 1048 159 c 128,-1,36
 1071 112 1071 112 1090.5 86 c 128,-1,37
 1110 60 1110 60 1129 51.5 c 128,-1,38
 1148 43 1148 43 1174 43 c 2,39,-1
 1180 43 l 1,40,-1
 1180 0 l 1,0,-1
658 404 m 1,41,-1
 485 821 l 1,42,-1
 324 404 l 1,43,-1
 658 404 l 1,41,-1
EndSplineSet
EndChar

StartChar: B
Encoding: 66 66 491
Width: 1142
Flags: W
LayerCount: 2
Fore
SplineSet
557 1157 m 2,0,1
 772 1157 772 1157 887 1087 c 128,-1,2
 1002 1017 1002 1017 1002 884 c 0,3,4
 1002 835 1002 835 987.5 797 c 128,-1,5
 973 759 973 759 940 728 c 128,-1,6
 907 697 907 697 855.5 672.5 c 128,-1,7
 804 648 804 648 729 626 c 1,8,9
 774 616 774 616 808.5 605.5 c 128,-1,10
 843 595 843 595 871 583.5 c 128,-1,11
 899 572 899 572 922 556.5 c 128,-1,12
 945 541 945 541 968 522 c 0,13,14
 1014 482 1014 482 1037.5 431 c 128,-1,15
 1061 380 1061 380 1061 321 c 0,16,17
 1061 249 1061 249 1026.5 190 c 128,-1,18
 992 131 992 131 928.5 88.5 c 128,-1,19
 865 46 865 46 776 23 c 128,-1,20
 687 0 687 0 579 0 c 2,21,-1
 28 0 l 1,22,-1
 28 43 l 1,23,24
 75 48 75 48 104 55.5 c 128,-1,25
 133 63 133 63 149.5 76 c 128,-1,26
 166 89 166 89 172 110.5 c 128,-1,27
 178 132 178 132 178 164 c 2,28,-1
 178 994 l 2,29,30
 178 1027 178 1027 171 1049 c 128,-1,31
 164 1071 164 1071 147 1084.5 c 128,-1,32
 130 1098 130 1098 101 1105 c 128,-1,33
 72 1112 72 1112 28 1115 c 1,34,-1
 28 1157 l 1,35,-1
 557 1157 l 2,0,1
453 158 m 2,36,37
 453 103 453 103 476.5 79 c 128,-1,38
 500 55 500 55 557 55 c 0,39,40
 766 55 766 55 766 307 c 0,41,42
 766 587 766 587 503 587 c 2,43,-1
 453 587 l 1,44,-1
 453 158 l 2,36,37
453 639 m 1,45,46
 531 640 531 640 583 651.5 c 128,-1,47
 635 663 635 663 665 690 c 128,-1,48
 695 717 695 717 707 760.5 c 128,-1,49
 719 804 719 804 719 872 c 0,50,51
 719 994 719 994 677 1050.5 c 128,-1,52
 635 1107 635 1107 544 1107 c 0,53,54
 494 1107 494 1107 473.5 1088 c 128,-1,55
 453 1069 453 1069 453 1023 c 2,56,-1
 453 639 l 1,45,46
EndSplineSet
EndChar

StartChar: C
Encoding: 67 67 492
Width: 1237
Flags: W
LayerCount: 2
Fore
SplineSet
1177 217 m 1,0,1
 1148 185 1148 185 1125.5 162 c 128,-1,2
 1103 139 1103 139 1083.5 121 c 128,-1,3
 1064 103 1064 103 1045.5 88.5 c 128,-1,4
 1027 74 1027 74 1007 60 c 0,5,6
 936 13 936 13 859 -10 c 128,-1,7
 782 -33 782 -33 690 -33 c 0,8,9
 557 -33 557 -33 446 12 c 128,-1,10
 335 57 335 57 254 136.5 c 128,-1,11
 173 216 173 216 128.5 327 c 128,-1,12
 84 438 84 438 84 571 c 0,13,14
 84 702 84 702 129 814 c 128,-1,15
 174 926 174 926 254 1008.5 c 128,-1,16
 334 1091 334 1091 443 1137.5 c 128,-1,17
 552 1184 552 1184 680 1184 c 0,18,19
 742 1184 742 1184 805.5 1169.5 c 128,-1,20
 869 1155 869 1155 945 1123 c 0,21,22
 974 1111 974 1111 993.5 1105.5 c 128,-1,23
 1013 1100 1013 1100 1024 1100 c 0,24,25
 1049 1100 1049 1100 1065.5 1116 c 128,-1,26
 1082 1132 1082 1132 1100 1179 c 1,27,-1
 1146 1179 l 1,28,-1
 1146 777 l 1,29,-1
 1103 777 l 1,30,31
 1081 826 1081 826 1061 862.5 c 128,-1,32
 1041 899 1041 899 1021.5 928.5 c 128,-1,33
 1002 958 1002 958 980 981.5 c 128,-1,34
 958 1005 958 1005 930 1032 c 0,35,36
 874 1081 874 1081 818.5 1104 c 128,-1,37
 763 1127 763 1127 703 1127 c 0,38,39
 547 1127 547 1127 467.5 989 c 128,-1,40
 388 851 388 851 388 584 c 0,41,42
 388 454 388 454 405.5 360 c 128,-1,43
 423 266 423 266 461 198 c 0,44,45
 479 166 479 166 507.5 138 c 128,-1,46
 536 110 536 110 571.5 90.5 c 128,-1,47
 607 71 607 71 648 60 c 128,-1,48
 689 49 689 49 731 49 c 0,49,50
 768 49 768 49 808 57 c 128,-1,51
 848 65 848 65 886 80 c 0,52,53
 917 93 917 93 944 107.5 c 128,-1,54
 971 122 971 122 999 142.5 c 128,-1,55
 1027 163 1027 163 1057 191.5 c 128,-1,56
 1087 220 1087 220 1126 260 c 1,57,-1
 1177 217 l 1,0,1
EndSplineSet
EndChar

StartChar: D
Encoding: 68 68 493
Width: 1237
Flags: W
LayerCount: 2
Fore
SplineSet
166 1000 m 2,0,1
 166 1030 166 1030 159.5 1049.5 c 128,-1,2
 153 1069 153 1069 136.5 1082.5 c 128,-1,3
 120 1096 120 1096 93 1103.5 c 128,-1,4
 66 1111 66 1111 25 1115 c 1,5,-1
 25 1157 l 1,6,-1
 546 1157 l 2,7,8
 695 1157 695 1157 812.5 1118 c 128,-1,9
 930 1079 930 1079 1012 1006 c 128,-1,10
 1094 933 1094 933 1138 828 c 128,-1,11
 1182 723 1182 723 1182 591 c 0,12,13
 1182 458 1182 458 1137.5 349 c 128,-1,14
 1093 240 1093 240 1012 162.5 c 128,-1,15
 931 85 931 85 817.5 42.5 c 128,-1,16
 704 0 704 0 566 0 c 2,17,-1
 25 0 l 1,18,-1
 25 43 l 1,19,20
 98 45 98 45 132 72 c 128,-1,21
 166 99 166 99 166 156 c 2,22,-1
 166 1000 l 2,0,1
443 158 m 2,23,24
 443 130 443 130 448 111 c 128,-1,25
 453 92 453 92 464.5 80.5 c 128,-1,26
 476 69 476 69 494.5 64.5 c 128,-1,27
 513 60 513 60 543 60 c 0,28,29
 708 60 708 60 794 178 c 0,30,31
 815 207 815 207 831.5 248 c 128,-1,32
 848 289 848 289 860 339.5 c 128,-1,33
 872 390 872 390 878 447.5 c 128,-1,34
 884 505 884 505 884 566 c 0,35,36
 884 674 884 674 866 765 c 128,-1,37
 848 856 848 856 813 925 c 0,38,39
 769 1014 769 1014 703.5 1057 c 128,-1,40
 638 1100 638 1100 544 1100 c 0,41,42
 443 1100 443 1100 443 1040 c 2,43,-1
 443 158 l 2,23,24
EndSplineSet
EndChar

StartChar: E
Encoding: 69 69 494
Width: 1142
Flags: W
LayerCount: 2
Fore
SplineSet
1015 813 m 1,0,-1
 973 813 l 1,1,2
 956 900 956 900 930 954.5 c 128,-1,3
 904 1009 904 1009 858.5 1041.5 c 128,-1,4
 813 1074 813 1074 742 1087 c 128,-1,5
 671 1100 671 1100 567 1100 c 0,6,7
 533 1100 533 1100 511.5 1096.5 c 128,-1,8
 490 1093 490 1093 478 1084.5 c 128,-1,9
 466 1076 466 1076 461 1060 c 128,-1,10
 456 1044 456 1044 456 1019 c 2,11,-1
 456 622 l 1,12,13
 525 621 525 621 573.5 633 c 128,-1,14
 622 645 622 645 654.5 675 c 128,-1,15
 687 705 687 705 705 754.5 c 128,-1,16
 723 804 723 804 733 877 c 1,17,-1
 777 877 l 1,18,-1
 777 298 l 1,19,-1
 733 298 l 1,20,21
 725 373 725 373 707 423.5 c 128,-1,22
 689 474 689 474 656.5 505 c 128,-1,23
 624 536 624 536 575 550 c 128,-1,24
 526 564 526 564 456 564 c 1,25,-1
 456 148 l 2,26,27
 456 121 456 121 462.5 102.5 c 128,-1,28
 469 84 469 84 485.5 73 c 128,-1,29
 502 62 502 62 529.5 57.5 c 128,-1,30
 557 53 557 53 599 53 c 0,31,32
 695 53 695 53 768 75 c 128,-1,33
 841 97 841 97 900 143 c 0,34,35
 924 162 924 162 942.5 181.5 c 128,-1,36
 961 201 961 201 978 225.5 c 128,-1,37
 995 250 995 250 1012.5 281.5 c 128,-1,38
 1030 313 1030 313 1050 356 c 1,39,-1
 1098 356 l 1,40,-1
 1029 0 l 1,41,-1
 28 0 l 1,42,-1
 28 43 l 1,43,44
 75 48 75 48 104.5 55 c 128,-1,45
 134 62 134 62 150 75.5 c 128,-1,46
 166 89 166 89 172 110 c 128,-1,47
 178 131 178 131 178 164 c 2,48,-1
 178 994 l 2,49,50
 178 1027 178 1027 171 1049 c 128,-1,51
 164 1071 164 1071 147 1084.5 c 128,-1,52
 130 1098 130 1098 101 1105 c 128,-1,53
 72 1112 72 1112 28 1115 c 1,54,-1
 28 1157 l 1,55,-1
 1015 1157 l 1,56,-1
 1015 813 l 1,0,-1
EndSplineSet
EndChar

StartChar: F
Encoding: 70 70 495
Width: 1046
Flags: W
LayerCount: 2
Fore
SplineSet
999 813 m 1,0,-1
 958 813 l 1,1,2
 949 854 949 854 940.5 884 c 128,-1,3
 932 914 932 914 922.5 936.5 c 128,-1,4
 913 959 913 959 902 976.5 c 128,-1,5
 891 994 891 994 877 1010 c 0,6,7
 836 1056 836 1056 760 1078 c 128,-1,8
 684 1100 684 1100 566 1100 c 0,9,10
 532 1100 532 1100 511 1096 c 128,-1,11
 490 1092 490 1092 478 1083 c 128,-1,12
 466 1074 466 1074 461 1058.5 c 128,-1,13
 456 1043 456 1043 456 1019 c 2,14,-1
 456 622 l 1,15,16
 520 622 520 622 564.5 634 c 128,-1,17
 609 646 609 646 639 675.5 c 128,-1,18
 669 705 669 705 687 754.5 c 128,-1,19
 705 804 705 804 717 877 c 1,20,-1
 761 877 l 1,21,-1
 761 298 l 1,22,-1
 717 298 l 1,23,24
 708 373 708 373 691 423 c 128,-1,25
 674 473 674 473 643.5 504 c 128,-1,26
 613 535 613 535 567.5 548.5 c 128,-1,27
 522 562 522 562 456 564 c 1,28,-1
 456 164 l 2,29,30
 456 129 456 129 463.5 106.5 c 128,-1,31
 471 84 471 84 491.5 70.5 c 128,-1,32
 512 57 512 57 548.5 51 c 128,-1,33
 585 45 585 45 644 43 c 1,34,-1
 644 0 l 1,35,-1
 28 0 l 1,36,-1
 28 43 l 1,37,38
 75 48 75 48 104.5 55 c 128,-1,39
 134 62 134 62 150 75.5 c 128,-1,40
 166 89 166 89 172 110 c 128,-1,41
 178 131 178 131 178 164 c 2,42,-1
 178 994 l 2,43,44
 178 1027 178 1027 171 1049.5 c 128,-1,45
 164 1072 164 1072 147 1085.5 c 128,-1,46
 130 1099 130 1099 101 1105.5 c 128,-1,47
 72 1112 72 1112 28 1115 c 1,48,-1
 28 1157 l 1,49,-1
 999 1157 l 1,50,-1
 999 813 l 1,0,-1
EndSplineSet
EndChar

StartChar: G
Encoding: 71 71 496
Width: 1332
Flags: W
LayerCount: 2
Fore
SplineSet
1293 449 m 1,0,1
 1245 444 1245 444 1216 436 c 128,-1,2
 1187 428 1187 428 1171 411 c 128,-1,3
 1155 394 1155 394 1150.5 366 c 128,-1,4
 1146 338 1146 338 1146 291 c 2,5,-1
 1146 74 l 1,6,7
 1104 49 1104 49 1050.5 29.5 c 128,-1,8
 997 10 997 10 934.5 -4 c 128,-1,9
 872 -18 872 -18 805.5 -25.5 c 128,-1,10
 739 -33 739 -33 673 -33 c 0,11,12
 538 -33 538 -33 426 11.5 c 128,-1,13
 314 56 314 56 233.5 135.5 c 128,-1,14
 153 215 153 215 108.5 325 c 128,-1,15
 64 435 64 435 64 567 c 256,16,17
 64 699 64 699 109 812 c 128,-1,18
 154 925 154 925 234 1008 c 128,-1,19
 314 1091 314 1091 422.5 1137.5 c 128,-1,20
 531 1184 531 1184 659 1184 c 0,21,22
 722 1184 722 1184 785 1169.5 c 128,-1,23
 848 1155 848 1155 925 1123 c 0,24,25
 954 1111 954 1111 973.5 1105.5 c 128,-1,26
 993 1100 993 1100 1004 1100 c 0,27,28
 1028 1100 1028 1100 1045 1116 c 128,-1,29
 1062 1132 1062 1132 1078 1179 c 1,30,-1
 1126 1179 l 1,31,-1
 1126 777 l 1,32,-1
 1082 777 l 1,33,34
 1059 826 1059 826 1040.5 863 c 128,-1,35
 1022 900 1022 900 1002 929.5 c 128,-1,36
 982 959 982 959 959 983 c 128,-1,37
 936 1007 936 1007 909 1032 c 0,38,39
 852 1081 852 1081 796.5 1104 c 128,-1,40
 741 1127 741 1127 682 1127 c 0,41,42
 526 1127 526 1127 446 988.5 c 128,-1,43
 366 850 366 850 366 579 c 0,44,45
 366 271 366 271 477 131 c 0,46,47
 521 75 521 75 577 50 c 128,-1,48
 633 25 633 25 714 25 c 0,49,50
 801 25 801 25 840 54.5 c 128,-1,51
 879 84 879 84 879 148 c 2,52,-1
 879 329 l 2,53,54
 879 363 879 363 872.5 385.5 c 128,-1,55
 866 408 866 408 847 420.5 c 128,-1,56
 828 433 828 433 794.5 439.5 c 128,-1,57
 761 446 761 446 705 449 c 1,58,-1
 705 492 l 1,59,-1
 1293 492 l 1,60,-1
 1293 449 l 1,0,1
EndSplineSet
EndChar

StartChar: H
Encoding: 72 72 497
Width: 1332
Flags: W
LayerCount: 2
Fore
SplineSet
459 559 m 1,0,-1
 459 164 l 2,1,2
 459 133 459 133 465.5 112.5 c 128,-1,3
 472 92 472 92 489.5 78 c 128,-1,4
 507 64 507 64 536.5 56 c 128,-1,5
 566 48 566 48 613 43 c 1,6,-1
 613 0 l 1,7,-1
 36 0 l 1,8,-1
 36 43 l 1,9,10
 80 48 80 48 109 56 c 128,-1,11
 138 64 138 64 153.5 78 c 128,-1,12
 169 92 169 92 175 112.5 c 128,-1,13
 181 133 181 133 181 164 c 2,14,-1
 181 994 l 2,15,16
 181 1025 181 1025 174.5 1046.5 c 128,-1,17
 168 1068 168 1068 151 1082 c 128,-1,18
 134 1096 134 1096 106.5 1103.5 c 128,-1,19
 79 1111 79 1111 36 1115 c 1,20,-1
 36 1157 l 1,21,-1
 613 1157 l 1,22,-1
 613 1115 l 1,23,24
 567 1112 567 1112 537.5 1104.5 c 128,-1,25
 508 1097 508 1097 490.5 1082.5 c 128,-1,26
 473 1068 473 1068 466 1046.5 c 128,-1,27
 459 1025 459 1025 459 994 c 2,28,-1
 459 639 l 1,29,-1
 872 639 l 1,30,-1
 872 994 l 2,31,32
 872 1025 872 1025 864.5 1046.5 c 128,-1,33
 857 1068 857 1068 839.5 1082.5 c 128,-1,34
 822 1097 822 1097 792.5 1104.5 c 128,-1,35
 763 1112 763 1112 717 1115 c 1,36,-1
 717 1157 l 1,37,-1
 1300 1157 l 1,38,-1
 1300 1115 l 1,39,40
 1256 1112 1256 1112 1227.5 1104.5 c 128,-1,41
 1199 1097 1199 1097 1181.5 1082.5 c 128,-1,42
 1164 1068 1164 1068 1157 1046.5 c 128,-1,43
 1150 1025 1150 1025 1150 994 c 2,44,-1
 1150 164 l 2,45,46
 1150 133 1150 133 1156 112.5 c 128,-1,47
 1162 92 1162 92 1179 78 c 128,-1,48
 1196 64 1196 64 1225 56 c 128,-1,49
 1254 48 1254 48 1300 43 c 1,50,-1
 1300 0 l 1,51,-1
 717 0 l 1,52,-1
 717 43 l 1,53,54
 764 48 764 48 794.5 56 c 128,-1,55
 825 64 825 64 842 78 c 128,-1,56
 859 92 859 92 865.5 112.5 c 128,-1,57
 872 133 872 133 872 164 c 2,58,-1
 872 559 l 1,59,-1
 459 559 l 1,0,-1
EndSplineSet
EndChar

StartChar: I
Encoding: 73 73 498
Width: 666
Flags: W
LayerCount: 2
Fore
SplineSet
193 994 m 2,0,1
 193 1027 193 1027 185.5 1048 c 128,-1,2
 178 1069 178 1069 160 1083.5 c 128,-1,3
 142 1098 142 1098 111 1105 c 128,-1,4
 80 1112 80 1112 34 1115 c 1,5,-1
 34 1157 l 1,6,-1
 634 1157 l 1,7,-1
 634 1115 l 1,8,9
 586 1113 586 1113 554.5 1106.5 c 128,-1,10
 523 1100 523 1100 504.5 1086 c 128,-1,11
 486 1072 486 1072 479 1049.5 c 128,-1,12
 472 1027 472 1027 472 994 c 2,13,-1
 472 164 l 2,14,15
 472 131 472 131 478.5 109 c 128,-1,16
 485 87 485 87 503.5 73 c 128,-1,17
 522 59 522 59 553.5 52 c 128,-1,18
 585 45 585 45 634 43 c 1,19,-1
 634 0 l 1,20,-1
 34 0 l 1,21,-1
 34 43 l 1,22,23
 83 48 83 48 113.5 55 c 128,-1,24
 144 62 144 62 162 75.5 c 128,-1,25
 180 89 180 89 186.5 110.5 c 128,-1,26
 193 132 193 132 193 164 c 2,27,-1
 193 994 l 2,0,1
EndSplineSet
EndChar

StartChar: J
Encoding: 74 74 499
Width: 856
Flags: W
LayerCount: 2
Fore
SplineSet
668 211 m 2,0,1
 668 25 668 25 575 -69.5 c 128,-1,2
 482 -164 482 -164 301 -164 c 0,3,4
 250 -164 250 -164 201.5 -153.5 c 128,-1,5
 153 -143 153 -143 120 -126 c 0,6,7
 94 -112 94 -112 73.5 -90 c 128,-1,8
 53 -68 53 -68 37 -43.5 c 128,-1,9
 21 -19 21 -19 13 8 c 128,-1,10
 5 35 5 35 5 62 c 0,11,12
 5 87 5 87 15 109 c 128,-1,13
 25 131 25 131 41.5 147.5 c 128,-1,14
 58 164 58 164 80 174.5 c 128,-1,15
 102 185 102 185 125 185 c 0,16,17
 149 185 149 185 172.5 174.5 c 128,-1,18
 196 164 196 164 213 146.5 c 128,-1,19
 230 129 230 129 240 106 c 128,-1,20
 250 83 250 83 250 57 c 0,21,22
 250 38 250 38 245 24.5 c 128,-1,23
 240 11 240 11 225 -9 c 0,24,25
 212 -25 212 -25 207.5 -34 c 128,-1,26
 203 -43 203 -43 203 -53 c 0,27,28
 203 -78 203 -78 225 -93 c 128,-1,29
 247 -108 247 -108 281 -108 c 0,30,31
 339 -108 339 -108 364.5 -73.5 c 128,-1,32
 390 -39 390 -39 390 41 c 2,33,-1
 390 994 l 2,34,35
 390 1028 390 1028 383 1050.5 c 128,-1,36
 376 1073 376 1073 356 1086.5 c 128,-1,37
 336 1100 336 1100 303 1106.5 c 128,-1,38
 270 1113 270 1113 217 1115 c 1,39,-1
 217 1157 l 1,40,-1
 821 1157 l 1,41,-1
 821 1115 l 1,42,43
 772 1112 772 1112 742.5 1104 c 128,-1,44
 713 1096 713 1096 696.5 1079 c 128,-1,45
 680 1062 680 1062 674 1033 c 128,-1,46
 668 1004 668 1004 668 958 c 2,47,-1
 668 211 l 2,0,1
EndSplineSet
EndChar

StartChar: K
Encoding: 75 75 500
Width: 1332
Flags: W
LayerCount: 2
Fore
SplineSet
1318 0 m 1,0,-1
 742 0 l 1,1,-1
 742 43 l 1,2,3
 759 44 759 44 774.5 44 c 128,-1,4
 790 44 790 44 796 44 c 0,5,6
 840 46 840 46 858.5 54 c 128,-1,7
 877 62 877 62 877 79 c 0,8,9
 877 93 877 93 868.5 108 c 128,-1,10
 860 123 860 123 836 153 c 2,11,-1
 525 543 l 1,12,-1
 477 500 l 1,13,-1
 477 164 l 2,14,15
 477 133 477 133 483.5 112.5 c 128,-1,16
 490 92 490 92 506.5 78 c 128,-1,17
 523 64 523 64 552.5 56 c 128,-1,18
 582 48 582 48 629 43 c 1,19,-1
 629 0 l 1,20,-1
 51 0 l 1,21,-1
 51 43 l 1,22,23
 98 48 98 48 127.5 55.5 c 128,-1,24
 157 63 157 63 173 76 c 128,-1,25
 189 89 189 89 195 110.5 c 128,-1,26
 201 132 201 132 201 164 c 2,27,-1
 201 994 l 2,28,29
 201 1027 201 1027 194.5 1049.5 c 128,-1,30
 188 1072 188 1072 170.5 1085.5 c 128,-1,31
 153 1099 153 1099 124 1105.5 c 128,-1,32
 95 1112 95 1112 51 1115 c 1,33,-1
 51 1157 l 1,34,-1
 631 1157 l 1,35,-1
 631 1115 l 1,36,37
 584 1112 584 1112 553.5 1104 c 128,-1,38
 523 1096 523 1096 506 1078.5 c 128,-1,39
 489 1061 489 1061 483 1032 c 128,-1,40
 477 1003 477 1003 477 958 c 2,41,-1
 477 591 l 1,42,-1
 850 964 l 2,43,44
 870 984 870 984 882 997 c 128,-1,45
 894 1010 894 1010 900.5 1021 c 128,-1,46
 907 1032 907 1032 909 1040 c 128,-1,47
 911 1048 911 1048 911 1059 c 0,48,49
 911 1084 911 1084 893 1096 c 128,-1,50
 875 1108 875 1108 827 1110 c 0,51,52
 821 1112 821 1112 804 1112.5 c 128,-1,53
 787 1113 787 1113 766 1115 c 1,54,-1
 766 1157 l 1,55,-1
 1260 1157 l 1,56,-1
 1260 1115 l 1,57,58
 1219 1111 1219 1111 1184.5 1104 c 128,-1,59
 1150 1097 1150 1097 1116 1082 c 128,-1,60
 1082 1067 1082 1067 1044.5 1040.5 c 128,-1,61
 1007 1014 1007 1014 959.5 972 c 128,-1,62
 912 930 912 930 851.5 869.5 c 128,-1,63
 791 809 791 809 710 727 c 1,64,-1
 1234 79 l 2,65,66
 1250 59 1250 59 1267.5 51.5 c 128,-1,67
 1285 44 1285 44 1318 43 c 1,68,-1
 1318 0 l 1,0,-1
EndSplineSet
EndChar

StartChar: L
Encoding: 76 76 501
Width: 1142
Flags: W
LayerCount: 2
Fore
SplineSet
1023 0 m 1,0,-1
 33 0 l 1,1,-1
 33 43 l 1,2,3
 80 48 80 48 108.5 55.5 c 128,-1,4
 137 63 137 63 153 76 c 128,-1,5
 169 89 169 89 174.5 110.5 c 128,-1,6
 180 132 180 132 180 164 c 2,7,-1
 180 994 l 2,8,9
 180 1027 180 1027 173 1049 c 128,-1,10
 166 1071 166 1071 149.5 1084.5 c 128,-1,11
 133 1098 133 1098 104 1105 c 128,-1,12
 75 1112 75 1112 33 1115 c 1,13,-1
 33 1157 l 1,14,-1
 631 1157 l 1,15,-1
 631 1115 l 1,16,17
 575 1112 575 1112 541 1105 c 128,-1,18
 507 1098 507 1098 488 1081 c 128,-1,19
 469 1064 469 1064 463.5 1034.5 c 128,-1,20
 458 1005 458 1005 458 958 c 2,21,-1
 458 148 l 2,22,23
 458 121 458 121 465 102.5 c 128,-1,24
 472 84 472 84 487.5 73 c 128,-1,25
 503 62 503 62 529 57.5 c 128,-1,26
 555 53 555 53 594 53 c 0,27,28
 694 53 694 53 767 76 c 128,-1,29
 840 99 840 99 892 148 c 0,30,31
 915 168 915 168 933 190 c 128,-1,32
 951 212 951 212 969 239 c 128,-1,33
 987 266 987 266 1005 302.5 c 128,-1,34
 1023 339 1023 339 1043 389 c 1,35,-1
 1093 389 l 1,36,-1
 1023 0 l 1,0,-1
EndSplineSet
EndChar

StartChar: M
Encoding: 77 77 502
Width: 1617
Flags: W
LayerCount: 2
Fore
SplineSet
729 0 m 1,0,-1
 683 0 l 1,1,-1
 252 1018 l 1,2,-1
 252 212 l 2,3,4
 252 166 252 166 259 134.5 c 128,-1,5
 266 103 266 103 285.5 84 c 128,-1,6
 305 65 305 65 338.5 55.5 c 128,-1,7
 372 46 372 46 425 43 c 1,8,-1
 425 0 l 1,9,-1
 25 0 l 1,10,-1
 25 43 l 1,11,12
 75 48 75 48 105.5 55.5 c 128,-1,13
 136 63 136 63 152.5 78 c 128,-1,14
 169 93 169 93 174.5 117.5 c 128,-1,15
 180 142 180 142 180 180 c 2,16,-1
 180 994 l 2,17,18
 180 1027 180 1027 173.5 1049 c 128,-1,19
 167 1071 167 1071 150.5 1084 c 128,-1,20
 134 1097 134 1097 104.5 1104 c 128,-1,21
 75 1111 75 1111 28 1115 c 1,22,-1
 28 1157 l 1,23,-1
 461 1157 l 1,24,-1
 804 349 l 1,25,-1
 1146 1157 l 1,26,-1
 1578 1157 l 1,27,-1
 1578 1115 l 1,28,29
 1530 1112 1530 1112 1501 1104 c 128,-1,30
 1472 1096 1472 1096 1455 1079 c 128,-1,31
 1438 1062 1438 1062 1432.5 1033 c 128,-1,32
 1427 1004 1427 1004 1427 958 c 2,33,-1
 1427 201 l 2,34,35
 1427 154 1427 154 1432 126.5 c 128,-1,36
 1437 99 1437 99 1452 82.5 c 128,-1,37
 1467 66 1467 66 1497 57.5 c 128,-1,38
 1527 49 1527 49 1578 43 c 1,39,-1
 1578 0 l 1,40,-1
 1009 0 l 1,41,-1
 1009 43 l 1,42,43
 1057 48 1057 48 1087 54.5 c 128,-1,44
 1117 61 1117 61 1133.5 75 c 128,-1,45
 1150 89 1150 89 1156 111.5 c 128,-1,46
 1162 134 1162 134 1162 171 c 2,47,-1
 1162 1043 l 1,48,-1
 729 0 l 1,0,-1
EndSplineSet
EndChar

StartChar: N
Encoding: 78 78 503
Width: 1237
Flags: W
LayerCount: 2
Fore
SplineSet
992 423 m 1,0,-1
 992 945 l 2,1,2
 992 991 992 991 985 1021.5 c 128,-1,3
 978 1052 978 1052 959.5 1071.5 c 128,-1,4
 941 1091 941 1091 910.5 1100.5 c 128,-1,5
 880 1110 880 1110 832 1115 c 1,6,-1
 832 1157 l 1,7,-1
 1201 1157 l 1,8,-1
 1201 1115 l 1,9,10
 1160 1109 1160 1109 1134 1100 c 128,-1,11
 1108 1091 1108 1091 1093 1076.5 c 128,-1,12
 1078 1062 1078 1062 1073 1038 c 128,-1,13
 1068 1014 1068 1014 1068 978 c 2,14,-1
 1068 -30 l 1,15,-1
 1019 -30 l 1,16,-1
 254 900 l 1,17,-1
 254 212 l 2,18,19
 254 167 254 167 260.5 137 c 128,-1,20
 267 107 267 107 285.5 88 c 128,-1,21
 304 69 304 69 335.5 58.5 c 128,-1,22
 367 48 367 48 417 43 c 1,23,-1
 417 0 l 1,24,-1
 28 0 l 1,25,-1
 28 43 l 1,26,27
 75 48 75 48 104 56.5 c 128,-1,28
 133 65 133 65 149.5 80 c 128,-1,29
 166 95 166 95 172 119 c 128,-1,30
 178 143 178 143 178 180 c 2,31,-1
 178 992 l 1,32,33
 148 1028 148 1028 126 1052.5 c 128,-1,34
 104 1077 104 1077 87.5 1090.5 c 128,-1,35
 71 1104 71 1104 58 1109.5 c 128,-1,36
 45 1115 45 1115 33 1115 c 1,37,-1
 33 1157 l 1,38,-1
 394 1157 l 1,39,-1
 992 423 l 1,0,-1
EndSplineSet
EndChar

StartChar: O
Encoding: 79 79 504
Width: 1332
Flags: W
LayerCount: 2
Fore
SplineSet
673 1184 m 0,0,1
 802 1184 802 1184 912.5 1138 c 128,-1,2
 1023 1092 1023 1092 1102.5 1011 c 128,-1,3
 1182 930 1182 930 1227.5 818.5 c 128,-1,4
 1273 707 1273 707 1273 576 c 0,5,6
 1273 443 1273 443 1228.5 331.5 c 128,-1,7
 1184 220 1184 220 1103.5 139 c 128,-1,8
 1023 58 1023 58 911 12.5 c 128,-1,9
 799 -33 799 -33 666 -33 c 256,10,11
 533 -33 533 -33 422 12 c 128,-1,12
 311 57 311 57 230 137.5 c 128,-1,13
 149 218 149 218 104.5 329.5 c 128,-1,14
 60 441 60 441 60 574 c 0,15,16
 60 708 60 708 105.5 819.5 c 128,-1,17
 151 931 151 931 232.5 1012 c 128,-1,18
 314 1093 314 1093 426 1138.5 c 128,-1,19
 538 1184 538 1184 673 1184 c 0,0,1
672 1127 m 0,20,21
 522 1127 522 1127 442.5 981.5 c 128,-1,22
 363 836 363 836 363 559 c 0,23,24
 363 299 363 299 440.5 162 c 128,-1,25
 518 25 518 25 666 25 c 0,26,27
 815 25 815 25 892 162 c 128,-1,28
 969 299 969 299 969 564 c 0,29,30
 969 698 969 698 949 802.5 c 128,-1,31
 929 907 929 907 891 979.5 c 128,-1,32
 853 1052 853 1052 798 1089.5 c 128,-1,33
 743 1127 743 1127 672 1127 c 0,20,21
EndSplineSet
EndChar

StartChar: P
Encoding: 80 80 505
Width: 1046
Flags: W
LayerCount: 2
Fore
SplineSet
449 201 m 2,0,1
 449 153 449 153 453.5 125.5 c 128,-1,2
 458 98 458 98 473.5 81.5 c 128,-1,3
 489 65 489 65 519 57 c 128,-1,4
 549 49 549 49 599 43 c 1,5,-1
 599 0 l 1,6,-1
 28 0 l 1,7,-1
 28 43 l 1,8,9
 41 45 41 45 53 47 c 128,-1,10
 65 49 65 49 69 49 c 0,11,12
 98 53 98 53 118 62.5 c 128,-1,13
 138 72 138 72 150 89.5 c 128,-1,14
 162 107 162 107 166.5 134 c 128,-1,15
 171 161 171 161 171 201 c 2,16,-1
 171 958 l 2,17,18
 171 1003 171 1003 166 1031 c 128,-1,19
 161 1059 161 1059 145 1077.5 c 128,-1,20
 129 1096 129 1096 101 1103.5 c 128,-1,21
 73 1111 73 1111 28 1115 c 1,22,-1
 28 1157 l 1,23,-1
 579 1157 l 2,24,25
 686 1157 686 1157 769.5 1136.5 c 128,-1,26
 853 1116 853 1116 910.5 1076 c 128,-1,27
 968 1036 968 1036 998 978.5 c 128,-1,28
 1028 921 1028 921 1028 846 c 0,29,30
 1028 747 1028 747 973 672 c 128,-1,31
 918 597 918 597 813 557 c 0,32,33
 786 545 786 545 758 538 c 128,-1,34
 730 531 730 531 690 527 c 128,-1,35
 650 523 650 523 592.5 522 c 128,-1,36
 535 521 535 521 449 520 c 1,37,-1
 449 201 l 2,0,1
449 579 m 1,38,39
 494 579 494 579 528.5 581.5 c 128,-1,40
 563 584 563 584 588.5 589.5 c 128,-1,41
 614 595 614 595 633.5 604 c 128,-1,42
 653 613 653 613 668 626 c 0,43,44
 702 655 702 655 717.5 705.5 c 128,-1,45
 733 756 733 756 733 837 c 0,46,47
 733 907 733 907 722.5 956 c 128,-1,48
 712 1005 712 1005 687.5 1036.5 c 128,-1,49
 663 1068 663 1068 625 1083 c 128,-1,50
 587 1098 587 1098 535 1098 c 0,51,52
 449 1098 449 1098 449 1038 c 2,53,-1
 449 579 l 1,38,39
EndSplineSet
EndChar

StartChar: Q
Encoding: 81 81 506
Width: 1332
Flags: W
LayerCount: 2
Fore
SplineSet
1260 -242 m 1,0,1
 1212 -259 1212 -259 1173.5 -270 c 128,-1,2
 1135 -281 1135 -281 1099 -288 c 128,-1,3
 1063 -295 1063 -295 1028.5 -298 c 128,-1,4
 994 -301 994 -301 954 -301 c 0,5,6
 841 -301 841 -301 738 -262 c 128,-1,7
 635 -223 635 -223 564 -151 c 0,8,9
 549 -136 549 -136 537.5 -121.5 c 128,-1,10
 526 -107 526 -107 514.5 -90.5 c 128,-1,11
 503 -74 503 -74 492 -52.5 c 128,-1,12
 481 -31 481 -31 467 -3 c 1,13,14
 418 15 418 15 382 31.5 c 128,-1,15
 346 48 346 48 317.5 66 c 128,-1,16
 289 84 289 84 264 106 c 128,-1,17
 239 128 239 128 212 157 c 0,18,19
 138 240 138 240 99 344.5 c 128,-1,20
 60 449 60 449 60 567 c 0,21,22
 60 700 60 700 106 813.5 c 128,-1,23
 152 927 152 927 232.5 1009 c 128,-1,24
 313 1091 313 1091 424 1137.5 c 128,-1,25
 535 1184 535 1184 666 1184 c 0,26,27
 799 1184 799 1184 910.5 1138 c 128,-1,28
 1022 1092 1022 1092 1102 1011 c 128,-1,29
 1182 930 1182 930 1227.5 817.5 c 128,-1,30
 1273 705 1273 705 1273 572 c 0,31,32
 1273 446 1273 446 1232 338.5 c 128,-1,33
 1191 231 1191 231 1112 148 c 0,34,35
 1084 118 1084 118 1058 96 c 128,-1,36
 1032 74 1032 74 1000.5 56.5 c 128,-1,37
 969 39 969 39 930 23 c 128,-1,38
 891 7 891 7 840 -10 c 1,39,40
 851 -34 851 -34 860.5 -51.5 c 128,-1,41
 870 -69 870 -69 879.5 -83 c 128,-1,42
 889 -97 889 -97 899 -108.5 c 128,-1,43
 909 -120 909 -120 920 -132 c 0,44,45
 964 -176 964 -176 1020 -198.5 c 128,-1,46
 1076 -221 1076 -221 1136 -221 c 0,47,48
 1160 -221 1160 -221 1184.5 -216.5 c 128,-1,49
 1209 -212 1209 -212 1250 -201 c 1,50,-1
 1260 -242 l 1,0,1
668 1127 m 0,51,52
 594 1127 594 1127 537.5 1090.5 c 128,-1,53
 481 1054 481 1054 442 982.5 c 128,-1,54
 403 911 403 911 383 806.5 c 128,-1,55
 363 702 363 702 363 567 c 0,56,57
 363 298 363 298 440 161.5 c 128,-1,58
 517 25 517 25 666 25 c 256,59,60
 815 25 815 25 892 162 c 128,-1,61
 969 299 969 299 969 566 c 0,62,63
 969 699 969 699 949 804 c 128,-1,64
 929 909 929 909 890.5 980.5 c 128,-1,65
 852 1052 852 1052 796 1089.5 c 128,-1,66
 740 1127 740 1127 668 1127 c 0,51,52
EndSplineSet
EndChar

